v -0.005154970567673445 -0.005651640240103006 0.0056769102811813354
v -0.006985930260270834 -0.007507730275392532 0.008862470276653767
v -0.008013971149921417 -0.005977890454232693 0.007982400245964527
v -0.008500169962644577 2.1880001440877095e-05 0.00546990055590868
v -0.008480970747768879 -0.004318420309573412 0.0069878906942903996
v -0.008500169962644577 -0.003889610292389989 0.012777900323271751
v -0.008500169962644577 2.1880001440877095e-05 0.00546990055590868
v -0.008500169962644577 -0.003889610292389989 0.012777900323271751
v -0.008489370346069336 -0.003705560229718685 0.018597891554236412
v -0.008500169962644577 2.1880001440877095e-05 0.00546990055590868
v -0.008489370346069336 -0.003705560229718685 0.018597891554236412
v -0.008500169962644577 2.1880001440877095e-05 0.020537901669740677
v -0.008225670084357262 0.0037377001717686653 0.021843500435352325
v -0.008500169962644577 2.1880001440877095e-05 0.00546990055590868
v -0.008500169962644577 2.1880001440877095e-05 0.020537901669740677
v -0.003500170074403286 0.007979650050401688 0.0012188999680802226
v -0.003500170074403286 0.0070498003624379635 0.024446891620755196
v 0.0034929602406919003 0.007979650050401688 0.0012188999680802226
v 0.0034998301416635513 0.0070498003624379635 0.024446891620755196
v 0.0034929602406919003 0.007979650050401688 0.0012188999680802226
v -0.003500170074403286 0.0070498003624379635 0.024446891620755196
v -0.004298069979995489 0.007002770435065031 0.024018900468945503
v -0.003500170074403286 0.0070498003624379635 0.024446891620755196
v -0.003500170074403286 0.007979650050401688 0.0012188999680802226
v -0.004298069979995489 0.007002770435065031 0.024018900468945503
v -0.003500170074403286 0.007979650050401688 0.0012188999680802226
v -0.004757570568472147 0.007781740743666887 0.002145900158211589
v -0.004757570568472147 0.007781740743666887 0.002145900158211589
v -0.006731770467013121 0.0066855004988610744 0.0028724002186208963
v -0.004298069979995489 0.007002770435065031 0.024018900468945503
v -0.0063112699426710606 0.006251020357012749 0.022773902863264084
v -0.004298069979995489 0.007002770435065031 0.024018900468945503
v -0.006731770467013121 0.0066855004988610744 0.0028724002186208963
v -0.006731770467013121 0.0066855004988610744 0.0028724002186208963
v -0.007752570323646069 0.0055344803258776665 0.003444480011239648
v -0.0063112699426710606 0.006251020357012749 0.022773902863264084
v -0.007627570535987616 0.004939400590956211 0.022204652428627014
v -0.0063112699426710606 0.006251020357012749 0.022773902863264084
v -0.007752570323646069 0.0055344803258776665 0.003444480011239648
v -0.008225670084357262 0.0037377001717686653 0.021843500435352325
v -0.007627570535987616 0.004939400590956211 0.022204652428627014
v -0.007752570323646069 0.0055344803258776665 0.003444480011239648
v -0.007752570323646069 0.0055344803258776665 0.003444480011239648
v -0.008429670706391335 0.0036942900624126196 0.0041879103519022465
v -0.008225670084357262 0.0037377001717686653 0.021843500435352325
v -0.008429670706391335 0.0036942900624126196 0.0041879103519022465
v -0.008500169962644577 2.1880001440877095e-05 0.00546990055590868
v -0.008225670084357262 0.0037377001717686653 0.021843500435352325
v -0.0034316901583224535 -0.008644049987196922 0.01562890037894249
v -0.003500170074403286 -0.00893332064151764 0.012688900344073772
v 0.003424480091780424 -0.008644049987196922 0.01562890037894249
v 0.0034929602406919003 -0.00893332064151764 0.012688900344073772
v 0.003424480091780424 -0.008644049987196922 0.01562890037894249
v -0.003500170074403286 -0.00893332064151764 0.012688900344073772
v -0.003500170074403286 -0.00893332064151764 0.012688900344073772
v -0.003500170074403286 -0.008976071141660213 0.009813900105655193
v 0.0034929602406919003 -0.00893332064151764 0.012688900344073772
v 0.0034929602406919003 -0.008976071141660213 0.009813900105655193
v 0.0034929602406919003 -0.00893332064151764 0.012688900344073772
v -0.003500170074403286 -0.008976071141660213 0.009813900105655193
v -0.006413370370864868 -0.007450560573488474 0.01715490035712719
v -0.004732770379632711 -0.007886829786002636 0.017096901312470436
v -0.007464270573109388 -0.004932370502501726 0.019659381359815598
v -0.00400017062202096 -0.00521444994956255 0.01976890116930008
v -0.007464270573109388 -0.004932370502501726 0.019659381359815598
v -0.004732770379632711 -0.007886829786002636 0.017096901312470436
v -0.004732770379632711 -0.007886829786002636 0.017096901312470436
v -0.0034316901583224535 -0.008644049987196922 0.01562890037894249
v -0.00400017062202096 -0.00521444994956255 0.01976890116930008
v -0.00400017062202096 -0.00521444994956255 0.01976890116930008
v -0.0034316901583224535 -0.008644049987196922 0.01562890037894249
v 0.003424480091780424 -0.008644049987196922 0.01562890037894249
v 0.003999830223619938 -0.00521444994956255 0.01976890116930008
v -0.00400017062202096 -0.00521444994956255 0.01976890116930008
v 0.003424480091780424 -0.008644049987196922 0.01562890037894249
v -0.006985930260270834 -0.007507730275392532 0.008862470276653767
v -0.005154970567673445 -0.005651640240103006 0.0056769102811813354
v -0.003500170074403286 -0.008705390617251396 0.008825910277664661
v -0.005154970567673445 -0.005651640240103006 0.0056769102811813354
v -0.00400017062202096 -0.0058231898583471775 0.005848899949342012
v -0.003500170074403286 -0.008705390617251396 0.008825910277664661
v 0.003999830223619938 -0.0058231898583471775 0.005848899949342012
v 0.0034929602406919003 -0.008705390617251396 0.008825910277664661
v -0.003500170074403286 -0.008705390617251396 0.008825910277664661
v -0.00400017062202096 -0.0058231898583471775 0.005848899949342012
v 0.003999830223619938 -0.0058231898583471775 0.005848899949342012
v -0.003500170074403286 -0.008705390617251396 0.008825910277664661
v -0.008500169962644577 -0.003889610292389989 0.012777900323271751
v -0.008480970747768879 -0.004318420309573412 0.0069878906942903996
v -0.008013971149921417 -0.005977890454232693 0.007982400245964527
v -0.008119570091366768 -0.005837210454046726 0.012861900962889194
v -0.008500169962644577 -0.003889610292389989 0.012777900323271751
v -0.008013971149921417 -0.005977890454232693 0.007982400245964527
v -0.008119570091366768 -0.005837210454046726 0.012861900962889194
v -0.008013971149921417 -0.005977890454232693 0.007982400245964527
v -0.006985930260270834 -0.007507730275392532 0.008862470276653767
v -0.0070356703363358974 -0.0074578202329576015 0.012930899858474731
v -0.008119570091366768 -0.005837210454046726 0.012861900962889194
v -0.006985930260270834 -0.007507730275392532 0.008862470276653767
v -0.00541356997564435 -0.008540680631995201 0.012828340753912926
v -0.005526400171220303 -0.008058871142566204 0.01599106192588806
v -0.007076570298522711 -0.0071526202373206615 0.01653590053319931
v -0.0070356703363358974 -0.0074578202329576015 0.012930899858474731
v -0.00541356997564435 -0.008540680631995201 0.012828340753912926
v -0.007076570298522711 -0.0071526202373206615 0.01653590053319931
v -0.0070356703363358974 -0.0074578202329576015 0.012930899858474731
v -0.006985930260270834 -0.007507730275392532 0.008862470276653767
v -0.005669070407748222 -0.008477780967950821 0.00950590055435896
v -0.00541356997564435 -0.008540680631995201 0.012828340753912926
v -0.0070356703363358974 -0.0074578202329576015 0.012930899858474731
v -0.005669070407748222 -0.008477780967950821 0.00950590055435896
v -0.005669070407748222 -0.008477780967950821 0.00950590055435896
v -0.003500170074403286 -0.008976071141660213 0.009813900105655193
v -0.00541356997564435 -0.008540680631995201 0.012828340753912926
v -0.0034316901583224535 -0.008644049987196922 0.01562890037894249
v -0.005526400171220303 -0.008058871142566204 0.01599106192588806
v -0.00541356997564435 -0.008540680631995201 0.012828340753912926
v -0.00541356997564435 -0.008540680631995201 0.012828340753912926
v -0.003500170074403286 -0.00893332064151764 0.012688900344073772
v -0.0034316901583224535 -0.008644049987196922 0.01562890037894249
v -0.00541356997564435 -0.008540680631995201 0.012828340753912926
v -0.003500170074403286 -0.008976071141660213 0.009813900105655193
v -0.003500170074403286 -0.00893332064151764 0.012688900344073772
v 0.004487960133701563 -0.005617099814116955 0.02077290043234825
v -0.004495170433074236 -0.005617099814116955 0.02077290043234825
v -0.00400017062202096 -0.00521444994956255 0.01976890116930008
v -0.004495170433074236 -0.005617099814116955 0.02077290043234825
v 0.004750360269099474 -0.006438000593334436 0.022179899737238884
v -0.004757570568472147 -0.006438000593334436 0.022179899737238884
v 0.004750360269099474 -0.006438000593334436 0.022179899737238884
v 0.004757230170071125 -0.006973210256546736 0.02588191069662571
v -0.004757570568472147 -0.006438000593334436 0.022179899737238884
v -0.004757570568472147 -0.006973210256546736 0.02588191069662571
v -0.004757570568472147 -0.006438000593334436 0.022179899737238884
v 0.004757230170071125 -0.006973210256546736 0.02588191069662571
v 0.004757230170071125 -0.006973210256546736 0.02588191069662571
v 0.004757230170071125 -0.006489649880677462 0.027705902233719826
v -0.004757570568472147 -0.006973210256546736 0.02588191069662571
v -0.004757570568472147 -0.006489649880677462 0.027705902233719826
v -0.004757570568472147 -0.006973210256546736 0.02588191069662571
v 0.004757230170071125 -0.006489649880677462 0.027705902233719826
v 0.004757230170071125 -0.006489649880677462 0.027705902233719826
v 0.004757230170071125 -0.004190930165350437 0.030656902119517326
v -0.004757570568472147 -0.006489649880677462 0.027705902233719826
v -0.004757570568472147 -0.004190930165350437 0.030656902119517326
v -0.004757570568472147 -0.006489649880677462 0.027705902233719826
v 0.004757230170071125 -0.004190930165350437 0.030656902119517326
v 0.004757230170071125 -0.004190930165350437 0.030656902119517326
v 0.004757230170071125 -0.002540570218116045 0.0315718911588192
v -0.004757570568472147 -0.004190930165350437 0.030656902119517326
v -0.004757570568472147 -0.002540570218116045 0.0315718911588192
v -0.004757570568472147 -0.004190930165350437 0.030656902119517326
v 0.004757230170071125 -0.002540570218116045 0.0315718911588192
v 0.004757230170071125 -0.002540570218116045 0.0315718911588192
v 0.004757230170071125 0.0011798001360148191 0.031957902014255524
v -0.004757570568472147 -0.002540570218116045 0.0315718911588192
v -0.004757570568472147 0.0011798001360148191 0.031957902014255524
v -0.004757570568472147 -0.002540570218116045 0.0315718911588192
v 0.004757230170071125 0.0011798001360148191 0.031957902014255524
v 0.004757230170071125 0.0011798001360148191 0.031957902014255524
v 0.004757230170071125 0.0029830101411789656 0.03140190243721008
v -0.004757570568472147 0.0011798001360148191 0.031957902014255524
v -0.004757570568472147 0.0029830101411789656 0.03140190243721008
v -0.004757570568472147 0.0011798001360148191 0.031957902014255524
v 0.004757230170071125 0.0029830101411789656 0.03140190243721008
v 0.004757230170071125 0.0029830101411789656 0.03140190243721008
v 0.004757230170071125 0.0045741102658212185 0.030386900529265404
v -0.004757570568472147 0.0029830101411789656 0.03140190243721008
v -0.004757570568472147 0.0045741102658212185 0.030386900529265404
v -0.004757570568472147 0.0029830101411789656 0.03140190243721008
v 0.004757230170071125 0.0045741102658212185 0.030386900529265404
v 0.004757230170071125 0.0045741102658212185 0.030386900529265404
v 0.004757230170071125 0.006687160115689039 0.02730090171098709
v -0.004757570568472147 0.0045741102658212185 0.030386900529265404
v -0.004757570568472147 0.006687160115689039 0.02730090171098709
v -0.004757570568472147 0.0045741102658212185 0.030386900529265404
v 0.004757230170071125 0.006687160115689039 0.02730090171098709
v 0.004757230170071125 0.006687160115689039 0.02730090171098709
v 0.004757230170071125 0.00705771055072546 0.02545091137290001
v -0.004757570568472147 0.006687160115689039 0.02730090171098709
v -0.004757570568472147 0.00705771055072546 0.02545091137290001
v -0.004757570568472147 0.006687160115689039 0.02730090171098709
v 0.004757230170071125 0.00705771055072546 0.02545091137290001
v 0.0034998301416635513 0.0070498003624379635 0.024446891620755196
v -0.004757570568472147 0.00705771055072546 0.02545091137290001
v 0.004757230170071125 0.00705771055072546 0.02545091137290001
v -0.004757570568472147 0.00705771055072546 0.02545091137290001
v 0.0034998301416635513 0.0070498003624379635 0.024446891620755196
v -0.003500170074403286 0.0070498003624379635 0.024446891620755196
v -0.004757570568472147 0.00705771055072546 0.02545091137290001
v -0.003500170074403286 0.0070498003624379635 0.024446891620755196
v -0.004298069979995489 0.007002770435065031 0.024018900468945503
v -0.007464270573109388 -0.004932370502501726 0.019659381359815598
v -0.004495170433074236 -0.005617099814116955 0.02077290043234825
v -0.004757570568472147 -0.006438000593334436 0.022179899737238884
v -0.005905570462346077 -0.006467490456998348 0.02290090173482895
v -0.007464270573109388 -0.004932370502501726 0.019659381359815598
v -0.004757570568472147 -0.006438000593334436 0.022179899737238884
v -0.005905570462346077 -0.006467490456998348 0.02290090173482895
v -0.004757570568472147 -0.006438000593334436 0.022179899737238884
v -0.004757570568472147 -0.006973210256546736 0.02588191069662571
v -0.005905570462346077 -0.006714300252497196 0.026079902425408363
v -0.005905570462346077 -0.006467490456998348 0.02290090173482895
v -0.004757570568472147 -0.006973210256546736 0.02588191069662571
v -0.004757570568472147 -0.006973210256546736 0.02588191069662571
v -0.004757570568472147 -0.006489649880677462 0.027705902233719826
v -0.005905570462346077 -0.006714300252497196 0.026079902425408363
v -0.005878870375454426 -0.004670700524002314 0.029331691563129425
v -0.005905570462346077 -0.006714300252497196 0.026079902425408363
v -0.004757570568472147 -0.006489649880677462 0.027705902233719826
v -0.005878870375454426 -0.004670700524002314 0.029331691563129425
v -0.004757570568472147 -0.006489649880677462 0.027705902233719826
v -0.004757570568472147 -0.004190930165350437 0.030656902119517326
v -0.005905570462346077 -0.0030593001283705235 0.0310899019241333
v -0.005878870375454426 -0.004670700524002314 0.029331691563129425
v -0.004757570568472147 -0.004190930165350437 0.030656902119517326
v -0.004757570568472147 -0.004190930165350437 0.030656902119517326
v -0.004757570568472147 -0.002540570218116045 0.0315718911588192
v -0.005905570462346077 -0.0030593001283705235 0.0310899019241333
v -0.005905570462346077 4.3750002078013495e-05 0.03182591125369072
v -0.005905570462346077 -0.0030593001283705235 0.0310899019241333
v -0.004757570568472147 -0.002540570218116045 0.0315718911588192
v -0.004757570568472147 -0.002540570218116045 0.0315718911588192
v -0.004757570568472147 0.0011798001360148191 0.031957902014255524
v -0.005905570462346077 4.3750002078013495e-05 0.03182591125369072
v -0.005905570462346077 4.3750002078013495e-05 0.03182591125369072
v -0.004757570568472147 0.0011798001360148191 0.031957902014255524
v -0.004757570568472147 0.0029830101411789656 0.03140190243721008
v -0.005905570462346077 0.0031420201994478703 0.031069891527295113
v -0.005905570462346077 4.3750002078013495e-05 0.03182591125369072
v -0.004757570568472147 0.0029830101411789656 0.03140190243721008
v -0.004757570568472147 0.0029830101411789656 0.03140190243721008
v -0.004757570568472147 0.0045741102658212185 0.030386900529265404
v -0.005905570462346077 0.0031420201994478703 0.031069891527295113
v -0.005905570462346077 0.00555840041488409 0.028988901525735855
v -0.005905570462346077 0.0031420201994478703 0.031069891527295113
v -0.004757570568472147 0.0045741102658212185 0.030386900529265404
v -0.004757570568472147 0.0045741102658212185 0.030386900529265404
v -0.004757570568472147 0.006687160115689039 0.02730090171098709
v -0.005905570462346077 0.00555840041488409 0.028988901525735855
v -0.005905570462346077 0.006764830555766821 0.026036910712718964
v -0.005905570462346077 0.00555840041488409 0.028988901525735855
v -0.004757570568472147 0.006687160115689039 0.02730090171098709
v -0.004757570568472147 0.006687160115689039 0.02730090171098709
v -0.004757570568472147 0.00705771055072546 0.02545091137290001
v -0.005905570462346077 0.006764830555766821 0.026036910712718964
v -0.005905570462346077 0.006764830555766821 0.026036910712718964
v -0.004757570568472147 0.00705771055072546 0.02545091137290001
v -0.004298069979995489 0.007002770435065031 0.024018900468945503
v -0.005905570462346077 0.006764830555766821 0.026036910712718964
v -0.004298069979995489 0.007002770435065031 0.024018900468945503
v -0.0063112699426710606 0.006251020357012749 0.022773902863264084
v -0.008773639798164368 -0.0033491102512925863 0.022568849846720695
v -0.008450030349195004 -0.0033396303188055754 0.020409321412444115
v -0.007464270573109388 -0.004932370502501726 0.019659381359815598
v -0.005905570462346077 -0.0030593001283705235 0.0310899019241333
v -0.005905570462346077 4.3750002078013495e-05 0.03182591125369072
v -0.008121470920741558 2.1880001440877095e-05 0.029932901263237
v -0.005905570462346077 4.3750002078013495e-05 0.03182591125369072
v -0.005905570462346077 0.0031420201994478703 0.031069891527295113
v -0.008121470920741558 2.1880001440877095e-05 0.029932901263237
v -0.005905570462346077 0.00555840041488409 0.028988901525735855
v -0.005905570462346077 0.006764830555766821 0.026036910712718964
v -0.008121470920741558 0.004950330127030611 0.025050900876522064
v -0.005905570462346077 0.006764830555766821 0.026036910712718964
v -0.0063112699426710606 0.006251020357012749 0.022773902863264084
v -0.008121470920741558 0.004950330127030611 0.025050900876522064
v -0.007627570535987616 0.004939400590956211 0.022204652428627014
v -0.008121470920741558 0.004950330127030611 0.025050900876522064
v -0.0063112699426710606 0.006251020357012749 0.022773902863264084
v -0.008999960497021675 0.0038781201001256704 0.025230342522263527
v -0.008999960497021675 0.00311434012837708 0.027469901368021965
v -0.008121470920741558 0.004950330127030611 0.025050900876522064
v -0.008225670084357262 0.0037377001717686653 0.021843500435352325
v -0.008999960497021675 0.0038781201001256704 0.025230342522263527
v -0.008121470920741558 0.004950330127030611 0.025050900876522064
v -0.008121470920741558 0.004950330127030611 0.025050900876522064
v -0.007627570535987616 0.004939400590956211 0.022204652428627014
v -0.008225670084357262 0.0037377001717686653 0.021843500435352325
v -0.008225670084357262 0.0037377001717686653 0.021843500435352325
v -0.008500169962644577 2.1880001440877095e-05 0.020537901669740677
v -0.009000190533697605 2.6420000722282566e-05 0.023152902722358704
v -0.008225670084357262 0.0037377001717686653 0.021843500435352325
v -0.009000190533697605 2.6420000722282566e-05 0.023152902722358704
v -0.008999960497021675 0.0038781201001256704 0.025230342522263527
v -0.008999960497021675 -0.0026055900380015373 0.027581030502915382
v -0.009000000543892384 2.1880001440877095e-05 0.028726141899824142
v -0.009000190533697605 2.6420000722282566e-05 0.023152902722358704
v -0.008999960497021675 -0.0035867802798748016 0.02582201175391674
v -0.008999960497021675 -0.0026055900380015373 0.027581030502915382
v -0.009000190533697605 2.6420000722282566e-05 0.023152902722358704
v -0.008773639798164368 -0.0033491102512925863 0.022568849846720695
v -0.008500169962644577 2.1880001440877095e-05 0.020537901669740677
v -0.008450030349195004 -0.0033396303188055754 0.020409321412444115
v -0.008500169962644577 2.1880001440877095e-05 0.020537901669740677
v -0.008773639798164368 -0.0033491102512925863 0.022568849846720695
v -0.009000190533697605 2.6420000722282566e-05 0.023152902722358704
v -0.008999960497021675 -0.0035867802798748016 0.02582201175391674
v -0.009000190533697605 2.6420000722282566e-05 0.023152902722358704
v -0.008773639798164368 -0.0033491102512925863 0.022568849846720695
v -0.004757570568472147 -0.007783830631524324 0.0019718999974429607
v -0.004757570568472147 -0.0070776804350316525 0.003798900404945016
v -0.006878870539367199 -0.0068123904056847095 0.002176909940317273
v -0.006878870539367199 -0.005854020360857248 -0.004573890008032322
v -0.004757570568472147 -0.005985130090266466 -0.005355090368539095
v -0.004757570568472147 -0.007796000223606825 -0.0019151100423187017
v -0.006878870539367199 -0.006538240239024162 -0.0028931002598255873
v -0.006878870539367199 -0.005854020360857248 -0.004573890008032322
v -0.004757570568472147 -0.007796000223606825 -0.0019151100423187017
v -0.006878870539367199 -0.005854020360857248 -0.004573890008032322
v -0.0064055705443024635 -0.004618150182068348 -0.0062931003049016
v -0.004757570568472147 -0.005985130090266466 -0.005355090368539095
v -0.004757570568472147 -0.004513470456004143 -0.006647100206464529
v -0.004757570568472147 -0.005985130090266466 -0.005355090368539095
v -0.0064055705443024635 -0.004618150182068348 -0.0062931003049016
v -0.004757570568472147 0.002984900027513504 -0.007481100503355265
v -0.004757570568472147 0.0010901001514866948 -0.007975100539624691
v -0.005905570462346077 0.001770760165527463 -0.007620090153068304
v -0.005905570462346077 0.0047913603484630585 -0.006195100024342537
v -0.004757570568472147 0.004704470280557871 -0.006544100120663643
v -0.004757570568472147 0.002984900027513504 -0.007481100503355265
v -0.005905570462346077 0.001770760165527463 -0.007620090153068304
v -0.005905570462346077 0.0047913603484630585 -0.006195100024342537
v -0.004757570568472147 0.002984900027513504 -0.007481100503355265
v -0.005905570462346077 0.0047913603484630585 -0.006195100024342537
v -0.005905570462346077 0.001770760165527463 -0.007620090153068304
v -0.006878870539367199 0.003669480327516794 -0.006170100532472134
v -0.006878870539367199 0.003669480327516794 -0.006170100532472134
v -0.005905570462346077 0.00694247055798769 -0.0036411001347005367
v -0.005905570462346077 0.0047913603484630585 -0.006195100024342537
v -0.004757570568472147 0.006146920379251242 -0.005220100283622742
v -0.004757570568472147 0.004704470280557871 -0.006544100120663643
v -0.005905570462346077 0.0047913603484630585 -0.006195100024342537
v -0.005905570462346077 0.0047913603484630585 -0.006195100024342537
v -0.005905570462346077 0.00694247055798769 -0.0036411001347005367
v -0.004757570568472147 0.006146920379251242 -0.005220100283622742
v -0.004757570568472147 0.007226940710097551 -0.0035861001815646887
v -0.004757570568472147 0.006146920379251242 -0.005220100283622742
v -0.005905570462346077 0.00694247055798769 -0.0036411001347005367
v -0.005905570462346077 0.0076341405510902405 -0.00042209000093862414
v -0.005905570462346077 0.00694247055798769 -0.0036411001347005367
v -0.008121470920741558 0.006008870434015989 0.00010433000716147944
v -0.003500170074403286 0.007979650050401688 0.0012188999680802226
v -0.004757570568472147 0.007880620658397675 -0.0017401000950485468
v -0.005905570462346077 0.0076341405510902405 -0.00042209000093862414
v 0.0034929602406919003 -0.008705390617251396 0.008825910277664661
v 0.0034929602406919003 -0.008976071141660213 0.009813900105655193
v -0.003500170074403286 -0.008705390617251396 0.008825910277664661
v -0.004757570568472147 -0.0070776804350316525 0.003798900404945016
v 0.003999830223619938 -0.0058231898583471775 0.005848899949342012
v -0.00400017062202096 -0.0058231898583471775 0.005848899949342012
v 0.003999830223619938 -0.0058231898583471775 0.005848899949342012
v -0.004757570568472147 -0.0070776804350316525 0.003798900404945016
v 0.004757230170071125 -0.0070776804350316525 0.003798900404945016
v -0.004757570568472147 -0.0070776804350316525 0.003798900404945016
v -0.004757570568472147 -0.007783830631524324 0.0019718999974429607
v 0.004757230170071125 -0.0070776804350316525 0.003798900404945016
v 0.004757230170071125 -0.007783830631524324 0.0019718999974429607
v 0.004757230170071125 -0.0070776804350316525 0.003798900404945016
v -0.004757570568472147 -0.007783830631524324 0.0019718999974429607
v -0.004757570568472147 -0.007783830631524324 0.0019718999974429607
v -0.004757570568472147 -0.008028080686926842 2.8890002795378678e-05
v 0.004757230170071125 -0.007783830631524324 0.0019718999974429607
v 0.004757230170071125 -0.008028080686926842 2.8890002795378678e-05
v 0.004757230170071125 -0.007783830631524324 0.0019718999974429607
v -0.004757570568472147 -0.008028080686926842 2.8890002795378678e-05
v -0.004757570568472147 -0.008028080686926842 2.8890002795378678e-05
v -0.004757570568472147 -0.007796000223606825 -0.0019151100423187017
v 0.004757230170071125 -0.008028080686926842 2.8890002795378678e-05
v 0.004757230170071125 -0.007796000223606825 -0.0019151100423187017
v 0.004757230170071125 -0.008028080686926842 2.8890002795378678e-05
v -0.004757570568472147 -0.007796000223606825 -0.0019151100423187017
v -0.004757570568472147 -0.007796000223606825 -0.0019151100423187017
v -0.004757570568472147 -0.005985130090266466 -0.005355090368539095
v 0.004757230170071125 -0.007796000223606825 -0.0019151100423187017
v 0.004757230170071125 -0.005985130090266466 -0.005355090368539095
v 0.004757230170071125 -0.007796000223606825 -0.0019151100423187017
v -0.004757570568472147 -0.005985130090266466 -0.005355090368539095
v -0.004757570568472147 -0.005985130090266466 -0.005355090368539095
v -0.004757570568472147 -0.004513470456004143 -0.006647100206464529
v 0.004757230170071125 -0.005985130090266466 -0.005355090368539095
v 0.004757230170071125 -0.004513470456004143 -0.006647100206464529
v 0.004757230170071125 -0.005985130090266466 -0.005355090368539095
v -0.004757570568472147 -0.004513470456004143 -0.006647100206464529
v -0.004757570568472147 -0.004513470456004143 -0.006647100206464529
v -0.004757570568472147 -0.0027735200710594654 -0.007545100525021553
v 0.004757230170071125 -0.004513470456004143 -0.006647100206464529
v 0.004757230170071125 -0.0027735200710594654 -0.007545100525021553
v 0.004757230170071125 -0.004513470456004143 -0.006647100206464529
v -0.004757570568472147 -0.0027735200710594654 -0.007545100525021553
v -0.004757570568472147 -0.0027735200710594654 -0.007545100525021553
v -0.004757570568472147 0.0010901001514866948 -0.007975100539624691
v 0.004757230170071125 -0.0027735200710594654 -0.007545100525021553
v 0.004757230170071125 0.0010901001514866948 -0.007975100539624691
v 0.004757230170071125 -0.0027735200710594654 -0.007545100525021553
v -0.004757570568472147 0.0010901001514866948 -0.007975100539624691
v -0.004757570568472147 0.0010901001514866948 -0.007975100539624691
v -0.004757570568472147 0.002984900027513504 -0.007481100503355265
v 0.004757230170071125 0.0010901001514866948 -0.007975100539624691
v 0.004757230170071125 0.002984900027513504 -0.007481100503355265
v 0.004757230170071125 0.0010901001514866948 -0.007975100539624691
v -0.004757570568472147 0.002984900027513504 -0.007481100503355265
v -0.004757570568472147 0.002984900027513504 -0.007481100503355265
v -0.004757570568472147 0.004704470280557871 -0.006544100120663643
v 0.004757230170071125 0.002984900027513504 -0.007481100503355265
v 0.004757230170071125 0.004704470280557871 -0.006544100120663643
v 0.004757230170071125 0.002984900027513504 -0.007481100503355265
v -0.004757570568472147 0.004704470280557871 -0.006544100120663643
v -0.004757570568472147 0.004704470280557871 -0.006544100120663643
v -0.004757570568472147 0.006146920379251242 -0.005220100283622742
v 0.004757230170071125 0.004704470280557871 -0.006544100120663643
v 0.004757230170071125 0.006146920379251242 -0.005220100283622742
v 0.004757230170071125 0.004704470280557871 -0.006544100120663643
v -0.004757570568472147 0.006146920379251242 -0.005220100283622742
v -0.004757570568472147 0.006146920379251242 -0.005220100283622742
v -0.004757570568472147 0.007226940710097551 -0.0035861001815646887
v 0.004757230170071125 0.006146920379251242 -0.005220100283622742
v 0.004757230170071125 0.007226940710097551 -0.0035861001815646887
v 0.004757230170071125 0.006146920379251242 -0.005220100283622742
v -0.004757570568472147 0.007226940710097551 -0.0035861001815646887
v -0.004757570568472147 0.007226940710097551 -0.0035861001815646887
v -0.004757570568472147 0.007880620658397675 -0.0017401000950485468
v 0.004757230170071125 0.007226940710097551 -0.0035861001815646887
v 0.004757230170071125 0.007880620658397675 -0.0017401000950485468
v 0.004757230170071125 0.007226940710097551 -0.0035861001815646887
v -0.004757570568472147 0.007880620658397675 -0.0017401000950485468
v -0.004757570568472147 0.007880620658397675 -0.0017401000950485468
v -0.003500170074403286 0.007979650050401688 0.0012188999680802226
v 0.004757230170071125 0.007880620658397675 -0.0017401000950485468
v 0.0034929602406919003 0.007979650050401688 0.0012188999680802226
v 0.004757230170071125 0.007880620658397675 -0.0017401000950485468
v -0.003500170074403286 0.007979650050401688 0.0012188999680802226
v -0.006985930260270834 -0.007507730275392532 0.008862470276653767
v -0.003500170074403286 -0.008705390617251396 0.008825910277664661
v -0.005669070407748222 -0.008477780967950821 0.00950590055435896
v -0.007878870703279972 -0.0054078600369393826 0.002463000128045678
v -0.008500000461935997 -0.003558340249583125 0.0043419101275503635
v -0.009000000543892384 -0.00359913008287549 -0.0011731000849977136
v -0.009000000543892384 -0.0022160301450639963 -0.003076100256294012
v -0.009000000543892384 -0.00359913008287549 -0.0011731000849977136
v -0.009000000543892384 2.1880001440877095e-05 0.004392910283058882
v -0.009000000543892384 2.1880001440877095e-05 -0.004580100066959858
v -0.009000000543892384 -0.0022160301450639963 -0.003076100256294012
v -0.009000000543892384 2.1880001440877095e-05 0.004392910283058882
v -0.003500170074403286 -0.008976071141660213 0.009813900105655193
v -0.003500170074403286 -0.008705390617251396 0.008825910277664661
v 0.0034929602406919003 -0.008976071141660213 0.009813900105655193
v -0.009000000543892384 0.00225978996604681 -0.003076100256294012
v -0.008121470920741558 0.00163616007193923 -0.005701099988073111
v -0.009000000543892384 2.1880001440877095e-05 -0.004580100066959858
v -0.008121470920741558 0.006008870434015989 0.00010433000716147944
v -0.008429670706391335 0.0036942900624126196 0.0041879103519022465
v -0.007752570323646069 0.0055344803258776665 0.003444480011239648
v -0.008121470920741558 0.006008870434015989 0.00010433000716147944
v -0.009000000543892384 0.00374480034224689 -0.0010991001036018133
v -0.008429670706391335 0.0036942900624126196 0.0041879103519022465
v -0.008429670706391335 0.0036942900624126196 0.0041879103519022465
v -0.009000000543892384 2.1880001440877095e-05 0.004392910283058882
v -0.008500169962644577 2.1880001440877095e-05 0.00546990055590868
v -0.006878870539367199 -0.007133550476282835 0.0004809100355487317
v -0.006878870539367199 -0.0068123904056847095 0.002176909940317273
v -0.008121470920741558 -0.005890999920666218 -0.0004291000368539244
v -0.006878870539367199 -0.006538240239024162 -0.0028931002598255873
v -0.006878870539367199 -0.007133550476282835 0.0004809100355487317
v -0.008121470920741558 -0.005890999920666218 -0.0004291000368539244
v -0.008121470920741558 -0.005890999920666218 -0.0004291000368539244
v -0.008121470920741558 -0.00560089061036706 -0.0018761001992970705
v -0.006878870539367199 -0.006538240239024162 -0.0028931002598255873
v -0.008121470920741558 -0.00560089061036706 -0.0018761001992970705
v -0.008121000602841377 -0.004852409940212965 -0.004186100326478481
v -0.006878870539367199 -0.006538240239024162 -0.0028931002598255873
v -0.006878870539367199 -0.005854020360857248 -0.004573890008032322
v -0.006878870539367199 -0.006538240239024162 -0.0028931002598255873
v -0.008121000602841377 -0.004852409940212965 -0.004186100326478481
v -0.0064055705443024635 -0.004618150182068348 -0.0062931003049016
v -0.006878870539367199 -0.005854020360857248 -0.004573890008032322
v -0.008121000602841377 -0.004852409940212965 -0.004186100326478481
v -0.005905570462346077 -0.0015686801634728909 -0.007337640039622784
v -0.0064055705443024635 -0.004618150182068348 -0.0062931003049016
v -0.008121470920741558 -0.0014427801361307502 -0.005741090048104525
v -0.008121470920741558 -0.0014427801361307502 -0.005741090048104525
v -0.008121470920741558 0.00163616007193923 -0.005701099988073111
v -0.005905570462346077 -0.0015686801634728909 -0.007337640039622784
v -0.005905570462346077 0.001770760165527463 -0.007620090153068304
v -0.005905570462346077 -0.0015686801634728909 -0.007337640039622784
v -0.008121470920741558 0.00163616007193923 -0.005701099988073111
v -0.006878870539367199 0.003669480327516794 -0.006170100532472134
v -0.005905570462346077 0.001770760165527463 -0.007620090153068304
v -0.008121470920741558 0.00163616007193923 -0.005701099988073111
v -0.008121470920741558 0.006008870434015989 0.00010433000716147944
v -0.007752570323646069 0.0055344803258776665 0.003444480011239648
v -0.005905570462346077 0.0076341405510902405 -0.00042209000093862414
v -0.006731770467013121 0.0066855004988610744 0.0028724002186208963
v -0.005905570462346077 0.0076341405510902405 -0.00042209000093862414
v -0.007752570323646069 0.0055344803258776665 0.003444480011239648
v -0.003500170074403286 -0.008976071141660213 0.009813900105655193
v -0.005669070407748222 -0.008477780967950821 0.00950590055435896
v -0.003500170074403286 -0.008705390617251396 0.008825910277664661
v -0.007878870703279972 -0.0054078600369393826 0.002463000128045678
v -0.009000000543892384 -0.00359913008287549 -0.0011731000849977136
v -0.008121470920741558 -0.005890999920666218 -0.0004291000368539244
v -0.008121470920741558 -0.00560089061036706 -0.0018761001992970705
v -0.008121470920741558 -0.005890999920666218 -0.0004291000368539244
v -0.009000000543892384 -0.00359913008287549 -0.0011731000849977136
v -0.009000000543892384 -0.00359913008287549 -0.0011731000849977136
v -0.008121000602841377 -0.004852409940212965 -0.004186100326478481
v -0.008121470920741558 -0.00560089061036706 -0.0018761001992970705
v -0.009000000543892384 -0.00359913008287549 -0.0011731000849977136
v -0.009000000543892384 -0.0022160301450639963 -0.003076100256294012
v -0.008121000602841377 -0.004852409940212965 -0.004186100326478481
v -0.009000000543892384 -0.0022160301450639963 -0.003076100256294012
v -0.009000000543892384 2.1880001440877095e-05 -0.004580100066959858
v -0.008121470920741558 -0.0014427801361307502 -0.005741090048104525
v -0.008121470920741558 0.00163616007193923 -0.005701099988073111
v -0.008121470920741558 -0.0014427801361307502 -0.005741090048104525
v -0.009000000543892384 2.1880001440877095e-05 -0.004580100066959858
v -0.008489370346069336 -0.003705560229718685 0.018597891554236412
v -0.008450030349195004 -0.0033396303188055754 0.020409321412444115
v -0.008500169962644577 2.1880001440877095e-05 0.020537901669740677
v -0.008489370346069336 -0.003705560229718685 0.018597891554236412
v -0.007464270573109388 -0.004932370502501726 0.019659381359815598
v -0.008450030349195004 -0.0033396303188055754 0.020409321412444115
v 0.003999830223619938 -0.00521444994956255 0.01976890116930008
v 0.004487960133701563 -0.005617099814116955 0.02077290043234825
v -0.00400017062202096 -0.00521444994956255 0.01976890116930008
v -0.008489370346069336 -0.003705560229718685 0.018597891554236412
v -0.008027070201933384 -0.005462310276925564 0.017552049830555916
v -0.007464270573109388 -0.004932370502501726 0.019659381359815598
v -0.006413370370864868 -0.007450560573488474 0.01715490035712719
v -0.007464270573109388 -0.004932370502501726 0.019659381359815598
v -0.008027070201933384 -0.005462310276925564 0.017552049830555916
v -0.008027070201933384 -0.005462310276925564 0.017552049830555916
v -0.007076570298522711 -0.0071526202373206615 0.01653590053319931
v -0.006413370370864868 -0.007450560573488474 0.01715490035712719
v -0.005526400171220303 -0.008058871142566204 0.01599106192588806
v -0.006413370370864868 -0.007450560573488474 0.01715490035712719
v -0.007076570298522711 -0.0071526202373206615 0.01653590053319931
v -0.004732770379632711 -0.007886829786002636 0.017096901312470436
v -0.006413370370864868 -0.007450560573488474 0.01715490035712719
v -0.005526400171220303 -0.008058871142566204 0.01599106192588806
v -0.005526400171220303 -0.008058871142566204 0.01599106192588806
v -0.0034316901583224535 -0.008644049987196922 0.01562890037894249
v -0.004732770379632711 -0.007886829786002636 0.017096901312470436
v -0.00400017062202096 -0.00521444994956255 0.01976890116930008
v -0.004495170433074236 -0.005617099814116955 0.02077290043234825
v -0.007464270573109388 -0.004932370502501726 0.019659381359815598
v -0.006878870539367199 -0.006538240239024162 -0.0028931002598255873
v -0.004757570568472147 -0.007796000223606825 -0.0019151100423187017
v -0.006878870539367199 -0.007133550476282835 0.0004809100355487317
v -0.004757570568472147 -0.008028080686926842 2.8890002795378678e-05
v -0.006878870539367199 -0.007133550476282835 0.0004809100355487317
v -0.004757570568472147 -0.007796000223606825 -0.0019151100423187017
v -0.004757570568472147 -0.007783830631524324 0.0019718999974429607
v -0.006878870539367199 -0.007133550476282835 0.0004809100355487317
v -0.004757570568472147 -0.008028080686926842 2.8890002795378678e-05
v -0.006878870539367199 -0.0068123904056847095 0.002176909940317273
v -0.006878870539367199 -0.007133550476282835 0.0004809100355487317
v -0.004757570568472147 -0.007783830631524324 0.0019718999974429607
v -0.0064055705443024635 -0.004618150182068348 -0.0062931003049016
v -0.008121000602841377 -0.004852409940212965 -0.004186100326478481
v -0.008121470920741558 -0.0014427801361307502 -0.005741090048104525
v -0.009000000543892384 -0.0022160301450639963 -0.003076100256294012
v -0.008121470920741558 -0.0014427801361307502 -0.005741090048104525
v -0.008121000602841377 -0.004852409940212965 -0.004186100326478481
v -0.006878870539367199 -0.0068123904056847095 0.002176909940317273
v -0.007878870703279972 -0.0054078600369393826 0.002463000128045678
v -0.008121470920741558 -0.005890999920666218 -0.0004291000368539244
v -0.009000000543892384 2.1880001440877095e-05 0.004392910283058882
v -0.009000000543892384 0.00225978996604681 -0.003076100256294012
v -0.009000000543892384 2.1880001440877095e-05 -0.004580100066959858
v -0.009000000543892384 2.1880001440877095e-05 0.004392910283058882
v -0.009000000543892384 0.00374480034224689 -0.0010991001036018133
v -0.009000000543892384 0.00225978996604681 -0.003076100256294012
v -0.008429670706391335 0.0036942900624126196 0.0041879103519022465
v -0.009000000543892384 0.00374480034224689 -0.0010991001036018133
v -0.009000000543892384 2.1880001440877095e-05 0.004392910283058882
v -0.008500169962644577 2.1880001440877095e-05 0.00546990055590868
v -0.009000000543892384 2.1880001440877095e-05 0.004392910283058882
v -0.008500000461935997 -0.003558340249583125 0.0043419101275503635
v -0.008500000461935997 -0.003558340249583125 0.0043419101275503635
v -0.009000000543892384 2.1880001440877095e-05 0.004392910283058882
v -0.009000000543892384 -0.00359913008287549 -0.0011731000849977136
v -0.009000000543892384 0.00225978996604681 -0.003076100256294012
v -0.008121000602841377 0.0046181404031813145 -0.004139520227909088
v -0.008121470920741558 0.00163616007193923 -0.005701099988073111
v -0.008121000602841377 0.0046181404031813145 -0.004139520227909088
v -0.006878870539367199 0.003669480327516794 -0.006170100532472134
v -0.008121470920741558 0.00163616007193923 -0.005701099988073111
v -0.006878870539367199 0.003669480327516794 -0.006170100532472134
v -0.008121000602841377 0.0046181404031813145 -0.004139520227909088
v -0.005905570462346077 0.00694247055798769 -0.0036411001347005367
v -0.008121000602841377 0.005473260302096605 -0.0025360402651131153
v -0.005905570462346077 0.00694247055798769 -0.0036411001347005367
v -0.008121000602841377 0.0046181404031813145 -0.004139520227909088
v -0.005905570462346077 0.00694247055798769 -0.0036411001347005367
v -0.008121000602841377 0.005473260302096605 -0.0025360402651131153
v -0.008121470920741558 0.006008870434015989 0.00010433000716147944
v -0.008121000602841377 0.005473260302096605 -0.0025360402651131153
v -0.009000000543892384 0.00374480034224689 -0.0010991001036018133
v -0.008121470920741558 0.006008870434015989 0.00010433000716147944
v -0.008500169962644577 -0.003889610292389989 0.012777900323271751
v -0.008027070201933384 -0.005462310276925564 0.017552049830555916
v -0.008489370346069336 -0.003705560229718685 0.018597891554236412
v -0.008500169962644577 -0.003889610292389989 0.012777900323271751
v -0.008119570091366768 -0.005837210454046726 0.012861900962889194
v -0.008027070201933384 -0.005462310276925564 0.017552049830555916
v -0.008119570091366768 -0.005837210454046726 0.012861900962889194
v -0.007076570298522711 -0.0071526202373206615 0.01653590053319931
v -0.008027070201933384 -0.005462310276925564 0.017552049830555916
v -0.008119570091366768 -0.005837210454046726 0.012861900962889194
v -0.0070356703363358974 -0.0074578202329576015 0.012930899858474731
v -0.007076570298522711 -0.0071526202373206615 0.01653590053319931
v -0.003500170074403286 0.007979650050401688 0.0012188999680802226
v -0.005905570462346077 0.0076341405510902405 -0.00042209000093862414
v -0.004757570568472147 0.007781740743666887 0.002145900158211589
v -0.004757570568472147 0.007781740743666887 0.002145900158211589
v -0.005905570462346077 0.0076341405510902405 -0.00042209000093862414
v -0.006731770467013121 0.0066855004988610744 0.0028724002186208963
v -0.008013971149921417 -0.005977890454232693 0.007982400245964527
v -0.008480970747768879 -0.004318420309573412 0.0069878906942903996
v -0.006523960269987583 -0.0048651001416146755 0.00563612999394536
v -0.005154970567673445 -0.005651640240103006 0.0056769102811813354
v -0.008013971149921417 -0.005977890454232693 0.007982400245964527
v -0.006523960269987583 -0.0048651001416146755 0.00563612999394536
v -0.00675466051325202 -0.005905320402234793 0.0039065200835466385
v -0.005154970567673445 -0.005651640240103006 0.0056769102811813354
v -0.006523960269987583 -0.0048651001416146755 0.00563612999394536
v -0.006878870539367199 -0.0068123904056847095 0.002176909940317273
v -0.005154970567673445 -0.005651640240103006 0.0056769102811813354
v -0.00675466051325202 -0.005905320402234793 0.0039065200835466385
v -0.006878870539367199 -0.0068123904056847095 0.002176909940317273
v -0.00675466051325202 -0.005905320402234793 0.0039065200835466385
v -0.007878870703279972 -0.0054078600369393826 0.002463000128045678
v -0.00675466051325202 -0.005905320402234793 0.0039065200835466385
v -0.006523960269987583 -0.0048651001416146755 0.00563612999394536
v -0.007878870703279972 -0.0054078600369393826 0.002463000128045678
v -0.006523960269987583 -0.0048651001416146755 0.00563612999394536
v -0.008500000461935997 -0.003558340249583125 0.0043419101275503635
v -0.007878870703279972 -0.0054078600369393826 0.002463000128045678
v -0.008500000461935997 -0.003558340249583125 0.0043419101275503635
v -0.008458230644464493 -0.003706150222569704 0.005688800010830164
v -0.008500169962644577 2.1880001440877095e-05 0.00546990055590868
v -0.008458230644464493 -0.003706150222569704 0.005688800010830164
v -0.008480970747768879 -0.004318420309573412 0.0069878906942903996
v -0.008500169962644577 2.1880001440877095e-05 0.00546990055590868
v -0.008480970747768879 -0.004318420309573412 0.0069878906942903996
v -0.008458230644464493 -0.003706150222569704 0.005688800010830164
v -0.006523960269987583 -0.0048651001416146755 0.00563612999394536
v -0.008458230644464493 -0.003706150222569704 0.005688800010830164
v -0.008500000461935997 -0.003558340249583125 0.0043419101275503635
v -0.006523960269987583 -0.0048651001416146755 0.00563612999394536
v -0.005154970567673445 -0.005651640240103006 0.0056769102811813354
v -0.006878870539367199 -0.0068123904056847095 0.002176909940317273
v -0.004757570568472147 -0.0070776804350316525 0.003798900404945016
v -0.005154970567673445 -0.005651640240103006 0.0056769102811813354
v -0.004757570568472147 -0.0070776804350316525 0.003798900404945016
v -0.00400017062202096 -0.0058231898583471775 0.005848899949342012
v -0.008999960497021675 0.00311434012837708 0.027469901368021965
v -0.008999960497021675 0.0038781201001256704 0.025230342522263527
v -0.009000190533697605 2.6420000722282566e-05 0.023152902722358704
v -0.008999960497021675 0.00311434012837708 0.027469901368021965
v -0.009000190533697605 2.6420000722282566e-05 0.023152902722358704
v -0.009000000543892384 2.1880001440877095e-05 0.028726141899824142
v -0.005905570462346077 -0.006467490456998348 0.02290090173482895
v -0.007969330064952374 -0.004728900268673897 0.022715112194418907
v -0.007464270573109388 -0.004932370502501726 0.019659381359815598
v -0.007969330064952374 -0.004728900268673897 0.022715112194418907
v -0.008773639798164368 -0.0033491102512925863 0.022568849846720695
v -0.007464270573109388 -0.004932370502501726 0.019659381359815598
v -0.008121000602841377 -0.004784040153026581 0.025948541238904
v -0.008773639798164368 -0.0033491102512925863 0.022568849846720695
v -0.007969330064952374 -0.004728900268673897 0.022715112194418907
v -0.008121000602841377 -0.0038381703197956085 0.028386730700731277
v -0.008999960497021675 -0.0035867802798748016 0.02582201175391674
v -0.008121000602841377 -0.004784040153026581 0.025948541238904
v -0.008999960497021675 -0.0035867802798748016 0.02582201175391674
v -0.008121000602841377 -0.0038381703197956085 0.028386730700731277
v -0.008999960497021675 -0.0026055900380015373 0.027581030502915382
v -0.008121000602841377 -0.003164870198816061 0.029143299907445908
v -0.008999960497021675 -0.0026055900380015373 0.027581030502915382
v -0.008121000602841377 -0.0038381703197956085 0.028386730700731277
v -0.008121000602841377 -0.003164870198816061 0.029143299907445908
v -0.005905570462346077 -0.0030593001283705235 0.0310899019241333
v -0.008121470920741558 2.1880001440877095e-05 0.029932901263237
v -0.005905570462346077 0.0031420201994478703 0.031069891527295113
v -0.008121000602841377 0.003127030096948147 0.02912055142223835
v -0.008121470920741558 2.1880001440877095e-05 0.029932901263237
v -0.008121000602841377 0.003997300285845995 0.02801867015659809
v -0.008999960497021675 0.00311434012837708 0.027469901368021965
v -0.008121000602841377 0.003127030096948147 0.02912055142223835
v -0.008999960497021675 0.00311434012837708 0.027469901368021965
v -0.008121000602841377 0.003997300285845995 0.02801867015659809
v -0.008121470920741558 0.004950330127030611 0.025050900876522064
v -0.008121000602841377 0.003997300285845995 0.02801867015659809
v -0.005905570462346077 0.00555840041488409 0.028988901525735855
v -0.008121470920741558 0.004950330127030611 0.025050900876522064
v -0.005905570462346077 0.00555840041488409 0.028988901525735855
v -0.008121000602841377 0.003997300285845995 0.02801867015659809
v -0.008121000602841377 0.003127030096948147 0.02912055142223835
v -0.005905570462346077 0.00555840041488409 0.028988901525735855
v -0.008121000602841377 0.003127030096948147 0.02912055142223835
v -0.005905570462346077 0.0031420201994478703 0.031069891527295113
v -0.005905570462346077 -0.0030593001283705235 0.0310899019241333
v -0.008121000602841377 -0.003164870198816061 0.029143299907445908
v -0.005878870375454426 -0.004670700524002314 0.029331691563129425
v -0.008121000602841377 -0.003164870198816061 0.029143299907445908
v -0.008121000602841377 -0.0038381703197956085 0.028386730700731277
v -0.005878870375454426 -0.004670700524002314 0.029331691563129425
v -0.005878870375454426 -0.004670700524002314 0.029331691563129425
v -0.008121000602841377 -0.0038381703197956085 0.028386730700731277
v -0.005905570462346077 -0.006714300252497196 0.026079902425408363
v -0.008121000602841377 -0.0038381703197956085 0.028386730700731277
v -0.008121000602841377 -0.004784040153026581 0.025948541238904
v -0.005905570462346077 -0.006714300252497196 0.026079902425408363
v -0.008773639798164368 -0.0033491102512925863 0.022568849846720695
v -0.008121000602841377 -0.004784040153026581 0.025948541238904
v -0.008999960497021675 -0.0035867802798748016 0.02582201175391674
v -0.005905570462346077 -0.006714300252497196 0.026079902425408363
v -0.008121000602841377 -0.004784040153026581 0.025948541238904
v -0.005905570462346077 -0.006467490456998348 0.02290090173482895
v -0.008121000602841377 -0.004784040153026581 0.025948541238904
v -0.007969330064952374 -0.004728900268673897 0.022715112194418907
v -0.005905570462346077 -0.006467490456998348 0.02290090173482895
v -0.009000000543892384 0.00374480034224689 -0.0010991001036018133
v -0.008121000602841377 0.005473260302096605 -0.0025360402651131153
v -0.008121000602841377 0.0046181404031813145 -0.004139520227909088
v -0.009000000543892384 0.00374480034224689 -0.0010991001036018133
v -0.008121000602841377 0.0046181404031813145 -0.004139520227909088
v -0.009000000543892384 0.00225978996604681 -0.003076100256294012
v -0.008999960497021675 -0.0026055900380015373 0.027581030502915382
v -0.008121000602841377 -0.003164870198816061 0.029143299907445908
v -0.009000000543892384 2.1880001440877095e-05 0.028726141899824142
v -0.008121470920741558 2.1880001440877095e-05 0.029932901263237
v -0.009000000543892384 2.1880001440877095e-05 0.028726141899824142
v -0.008121000602841377 -0.003164870198816061 0.029143299907445908
v -0.008121470920741558 2.1880001440877095e-05 0.029932901263237
v -0.008121000602841377 0.003127030096948147 0.02912055142223835
v -0.009000000543892384 2.1880001440877095e-05 0.028726141899824142
v -0.008999960497021675 0.00311434012837708 0.027469901368021965
v -0.009000000543892384 2.1880001440877095e-05 0.028726141899824142
v -0.008121000602841377 0.003127030096948147 0.02912055142223835
v -0.005905570462346077 -0.0015686801634728909 -0.007337640039622784
v -0.005905570462346077 0.001770760165527463 -0.007620090153068304
v -0.004757570568472147 0.0010901001514866948 -0.007975100539624691
v -0.005905570462346077 -0.0015686801634728909 -0.007337640039622784
v -0.004757570568472147 0.0010901001514866948 -0.007975100539624691
v -0.004757570568472147 -0.0027735200710594654 -0.007545100525021553
v -0.0064055705443024635 -0.004618150182068348 -0.0062931003049016
v -0.005905570462346077 -0.0015686801634728909 -0.007337640039622784
v -0.004757570568472147 -0.0027735200710594654 -0.007545100525021553
v -0.0064055705443024635 -0.004618150182068348 -0.0062931003049016
v -0.004757570568472147 -0.0027735200710594654 -0.007545100525021553
v -0.004757570568472147 -0.004513470456004143 -0.006647100206464529
v -0.005905570462346077 0.00694247055798769 -0.0036411001347005367
v -0.004757570568472147 0.007880620658397675 -0.0017401000950485468
v -0.004757570568472147 0.007226940710097551 -0.0035861001815646887
v -0.005905570462346077 0.00694247055798769 -0.0036411001347005367
v -0.005905570462346077 0.0076341405510902405 -0.00042209000093862414
v -0.004757570568472147 0.007880620658397675 -0.0017401000950485468
v 0.005898360628634691 0.00694247055798769 -0.0036411001347005367
v 0.004757230170071125 0.007880620658397675 -0.0017401000950485468
v 0.005898360628634691 0.0076341405510902405 -0.00042209000093862414
v 0.005898360628634691 0.00694247055798769 -0.0036411001347005367
v 0.004757230170071125 0.007226940710097551 -0.0035861001815646887
v 0.004757230170071125 0.007880620658397675 -0.0017401000950485468
v 0.006398360710591078 -0.004618150182068348 -0.0062931003049016
v 0.004757230170071125 -0.004513470456004143 -0.006647100206464529
v 0.004757230170071125 -0.0027735200710594654 -0.007545100525021553
v 0.006398360710591078 -0.004618150182068348 -0.0062931003049016
v 0.004757230170071125 -0.0027735200710594654 -0.007545100525021553
v 0.005898360628634691 -0.0015686801634728909 -0.007337640039622784
v 0.005898360628634691 -0.0015686801634728909 -0.007337640039622784
v 0.004757230170071125 -0.0027735200710594654 -0.007545100525021553
v 0.004757230170071125 0.0010901001514866948 -0.007975100539624691
v 0.005898360628634691 -0.0015686801634728909 -0.007337640039622784
v 0.004757230170071125 0.0010901001514866948 -0.007975100539624691
v 0.005898360628634691 0.001770760165527463 -0.007620090153068304
v 0.008999960497021675 0.00311434012837708 0.027469901368021965
v 0.008113790303468704 0.003127030096948147 0.02912055142223835
v 0.009000000543892384 2.1880001440877095e-05 0.028726141899824142
v 0.00811425969004631 2.1880001440877095e-05 0.029932901263237
v 0.009000000543892384 2.1880001440877095e-05 0.028726141899824142
v 0.008113790303468704 0.003127030096948147 0.02912055142223835
v 0.00811425969004631 2.1880001440877095e-05 0.029932901263237
v 0.008113790303468704 -0.003164880210533738 0.029143299907445908
v 0.009000000543892384 2.1880001440877095e-05 0.028726141899824142
v 0.008999960497021675 -0.0026055900380015373 0.027581030502915382
v 0.009000000543892384 2.1880001440877095e-05 0.028726141899824142
v 0.008113790303468704 -0.003164880210533738 0.029143299907445908
v 0.009000000543892384 0.00374480034224689 -0.0010991001036018133
v 0.009000000543892384 0.00225978996604681 -0.003076100256294012
v 0.008113790303468704 0.0046181404031813145 -0.004139520227909088
v 0.009000000543892384 0.00374480034224689 -0.0010991001036018133
v 0.008113790303468704 0.0046181404031813145 -0.004139520227909088
v 0.008113790303468704 0.005473260302096605 -0.0025360402651131153
v 0.008113790303468704 -0.004784040153026581 0.025948541238904
v 0.005898360628634691 -0.006467490456998348 0.02290090173482895
v 0.007962120696902275 -0.004728900268673897 0.022715112194418907
v 0.005898360628634691 -0.006714300252497196 0.026079902425408363
v 0.005898360628634691 -0.006467490456998348 0.02290090173482895
v 0.008113790303468704 -0.004784040153026581 0.025948541238904
v 0.00876643043011427 -0.0033491102512925863 0.022568849846720695
v 0.008999960497021675 -0.0035867802798748016 0.02582201175391674
v 0.008113790303468704 -0.004784040153026581 0.025948541238904
v 0.008113790303468704 -0.0038381703197956085 0.028386730700731277
v 0.005898360628634691 -0.006714300252497196 0.026079902425408363
v 0.008113790303468704 -0.004784040153026581 0.025948541238904
v 0.00587166054174304 -0.004670700524002314 0.029331691563129425
v 0.005898360628634691 -0.006714300252497196 0.026079902425408363
v 0.008113790303468704 -0.0038381703197956085 0.028386730700731277
v 0.008113790303468704 -0.003164880210533738 0.029143299907445908
v 0.00587166054174304 -0.004670700524002314 0.029331691563129425
v 0.008113790303468704 -0.0038381703197956085 0.028386730700731277
v 0.005898360628634691 -0.0030593001283705235 0.0310899019241333
v 0.00587166054174304 -0.004670700524002314 0.029331691563129425
v 0.008113790303468704 -0.003164880210533738 0.029143299907445908
v 0.005898360628634691 0.00555840041488409 0.028988901525735855
v 0.005898360628634691 0.0031420201994478703 0.031069891527295113
v 0.008113790303468704 0.003127030096948147 0.02912055142223835
v 0.005898360628634691 0.00555840041488409 0.028988901525735855
v 0.008113790303468704 0.003127030096948147 0.02912055142223835
v 0.008113790303468704 0.003997300285845995 0.02801867015659809
v 0.008113790303468704 0.003997300285845995 0.02801867015659809
v 0.00811425969004631 0.004950330127030611 0.025050900876522064
v 0.005898360628634691 0.00555840041488409 0.028988901525735855
v 0.008999960497021675 0.00311434012837708 0.027469901368021965
v 0.00811425969004631 0.004950330127030611 0.025050900876522064
v 0.008113790303468704 0.003997300285845995 0.02801867015659809
v 0.008113790303468704 0.003997300285845995 0.02801867015659809
v 0.008113790303468704 0.003127030096948147 0.02912055142223835
v 0.008999960497021675 0.00311434012837708 0.027469901368021965
v 0.005898360628634691 0.0031420201994478703 0.031069891527295113
v 0.00811425969004631 2.1880001440877095e-05 0.029932901263237
v 0.008113790303468704 0.003127030096948147 0.02912055142223835
v 0.008113790303468704 -0.003164880210533738 0.029143299907445908
v 0.00811425969004631 2.1880001440877095e-05 0.029932901263237
v 0.005898360628634691 -0.0030593001283705235 0.0310899019241333
v 0.008113790303468704 -0.003164880210533738 0.029143299907445908
v 0.008113790303468704 -0.0038381703197956085 0.028386730700731277
v 0.008999960497021675 -0.0026055900380015373 0.027581030502915382
v 0.008999960497021675 -0.0035867802798748016 0.02582201175391674
v 0.008999960497021675 -0.0026055900380015373 0.027581030502915382
v 0.008113790303468704 -0.0038381703197956085 0.028386730700731277
v 0.008113790303468704 -0.0038381703197956085 0.028386730700731277
v 0.008113790303468704 -0.004784040153026581 0.025948541238904
v 0.008999960497021675 -0.0035867802798748016 0.02582201175391674
v 0.008113790303468704 -0.004784040153026581 0.025948541238904
v 0.007962120696902275 -0.004728900268673897 0.022715112194418907
v 0.00876643043011427 -0.0033491102512925863 0.022568849846720695
v 0.007962120696902275 -0.004728900268673897 0.022715112194418907
v 0.007457060273736715 -0.004932370502501726 0.019659381359815598
v 0.00876643043011427 -0.0033491102512925863 0.022568849846720695
v 0.005898360628634691 -0.006467490456998348 0.02290090173482895
v 0.007457060273736715 -0.004932370502501726 0.019659381359815598
v 0.007962120696902275 -0.004728900268673897 0.022715112194418907
v 0.008999960497021675 0.00311434012837708 0.027469901368021965
v 0.009000000543892384 2.1880001440877095e-05 0.028726141899824142
v 0.009000190533697605 2.6420000722282566e-05 0.023152902722358704
v 0.008999960497021675 0.00311434012837708 0.027469901368021965
v 0.009000190533697605 2.6420000722282566e-05 0.023152902722358704
v 0.008999960497021675 0.0038781201001256704 0.025230342522263527
v 0.005147760268300772 -0.005651640240103006 0.005676900036633015
v 0.003999830223619938 -0.0058231898583471775 0.005848899949342012
v 0.004757230170071125 -0.0070776804350316525 0.003798900404945016
v 0.005147760268300772 -0.005651640240103006 0.005676900036633015
v 0.004757230170071125 -0.0070776804350316525 0.003798900404945016
v 0.006871660705655813 -0.0068123904056847095 0.002176899928599596
v 0.00845102034509182 -0.003706150222569704 0.005688800010830164
v 0.00651674997061491 -0.0048651001416146755 0.00563612999394536
v 0.008492790162563324 -0.003558340249583125 0.0043419101275503635
v 0.008473760448396206 -0.004318420309573412 0.0069878906942903996
v 0.00651674997061491 -0.0048651001416146755 0.00563612999394536
v 0.00845102034509182 -0.003706150222569704 0.005688800010830164
v 0.00845102034509182 -0.003706150222569704 0.005688800010830164
v 0.008492960594594479 2.1880001440877095e-05 0.00546990055590868
v 0.008473760448396206 -0.004318420309573412 0.0069878906942903996
v 0.008492790162563324 -0.003558340249583125 0.0043419101275503635
v 0.008492960594594479 2.1880001440877095e-05 0.00546990055590868
v 0.00845102034509182 -0.003706150222569704 0.005688800010830164
v 0.00651674997061491 -0.0048651001416146755 0.00563612999394536
v 0.007871660403907299 -0.0054078600369393826 0.002463000128045678
v 0.008492790162563324 -0.003558340249583125 0.0043419101275503635
v 0.00674745999276638 -0.0059053306467831135 0.0039065200835466385
v 0.007871660403907299 -0.0054078600369393826 0.002463000128045678
v 0.00651674997061491 -0.0048651001416146755 0.00563612999394536
v 0.006871660705655813 -0.0068123904056847095 0.002176899928599596
v 0.007871660403907299 -0.0054078600369393826 0.002463000128045678
v 0.00674745999276638 -0.0059053306467831135 0.0039065200835466385
v 0.00674745999276638 -0.0059053306467831135 0.0039065200835466385
v 0.005147760268300772 -0.005651640240103006 0.005676900036633015
v 0.006871660705655813 -0.0068123904056847095 0.002176899928599596
v 0.00651674997061491 -0.0048651001416146755 0.00563612999394536
v 0.005147760268300772 -0.005651640240103006 0.005676900036633015
v 0.00674745999276638 -0.0059053306467831135 0.0039065200835466385
v 0.005147760268300772 -0.005651640240103006 0.005676900036633015
v 0.00651674997061491 -0.0048651001416146755 0.00563612999394536
v 0.00800675991922617 -0.005977890454232693 0.007982400245964527
v 0.00800675991922617 -0.005977890454232693 0.007982400245964527
v 0.00651674997061491 -0.0048651001416146755 0.00563612999394536
v 0.008473760448396206 -0.004318420309573412 0.0069878906942903996
v 0.004750360269099474 0.007781740743666887 0.002145900158211589
v 0.006724560167640448 0.0066855004988610744 0.0028724002186208963
v 0.005898360628634691 0.0076341405510902405 -0.00042209000093862414
v 0.0034929602406919003 0.007979650050401688 0.0012188999680802226
v 0.004750360269099474 0.007781740743666887 0.002145900158211589
v 0.005898360628634691 0.0076341405510902405 -0.00042209000093862414
v 0.00811236072331667 -0.005837210454046726 0.012861900962889194
v 0.007069359999150038 -0.0071526202373206615 0.01653590053319931
v 0.007028460502624512 -0.0074578202329576015 0.012930899858474731
v 0.00811236072331667 -0.005837210454046726 0.012861900962889194
v 0.008019860833883286 -0.005462310276925564 0.017552049830555916
v 0.007069359999150038 -0.0071526202373206615 0.01653590053319931
v 0.008492960594594479 -0.003889610292389989 0.012777900323271751
v 0.008019860833883286 -0.005462310276925564 0.017552049830555916
v 0.00811236072331667 -0.005837210454046726 0.012861900962889194
v 0.008492960594594479 -0.003889610292389989 0.012777900323271751
v 0.008482160046696663 -0.003705560229718685 0.018597891554236412
v 0.008019860833883286 -0.005462310276925564 0.017552049830555916
v 0.008113790303468704 0.005473260302096605 -0.0025360402651131153
v 0.00811425969004631 0.006008870434015989 0.00010432000271975994
v 0.009000000543892384 0.00374480034224689 -0.0010991001036018133
v 0.005898360628634691 0.00694247055798769 -0.0036411001347005367
v 0.00811425969004631 0.006008870434015989 0.00010432000271975994
v 0.008113790303468704 0.005473260302096605 -0.0025360402651131153
v 0.008113790303468704 0.005473260302096605 -0.0025360402651131153
v 0.008113790303468704 0.0046181404031813145 -0.004139520227909088
v 0.005898360628634691 0.00694247055798769 -0.0036411001347005367
v 0.006871660705655813 0.003669480327516794 -0.006170100532472134
v 0.005898360628634691 0.00694247055798769 -0.0036411001347005367
v 0.008113790303468704 0.0046181404031813145 -0.004139520227909088
v 0.008113790303468704 0.0046181404031813145 -0.004139520227909088
v 0.00811425969004631 0.00163616007193923 -0.005701099988073111
v 0.006871660705655813 0.003669480327516794 -0.006170100532472134
v 0.009000000543892384 0.00225978996604681 -0.003076100256294012
v 0.00811425969004631 0.00163616007193923 -0.005701099988073111
v 0.008113790303468704 0.0046181404031813145 -0.004139520227909088
v 0.008492790162563324 -0.003558340249583125 0.0043419101275503635
v 0.009000000543892384 -0.00359913008287549 -0.0011731000849977136
v 0.009000000543892384 2.1880001440877095e-05 0.004392910283058882
v 0.008492960594594479 2.1880001440877095e-05 0.00546990055590868
v 0.008492790162563324 -0.003558340249583125 0.0043419101275503635
v 0.009000000543892384 2.1880001440877095e-05 0.004392910283058882
v 0.008422460407018661 0.0036942900624126196 0.0041879103519022465
v 0.009000000543892384 2.1880001440877095e-05 0.004392910283058882
v 0.009000000543892384 0.00374480034224689 -0.0010991001036018133
v 0.009000000543892384 2.1880001440877095e-05 0.004392910283058882
v 0.009000000543892384 0.00225978996604681 -0.003076100256294012
v 0.009000000543892384 0.00374480034224689 -0.0010991001036018133
v 0.009000000543892384 2.1880001440877095e-05 0.004392910283058882
v 0.009000000543892384 2.1880001440877095e-05 -0.004580100066959858
v 0.009000000543892384 0.00225978996604681 -0.003076100256294012
v 0.006871660705655813 -0.0068123904056847095 0.002176899928599596
v 0.00811425969004631 -0.005890999920666218 -0.0004291000368539244
v 0.007871660403907299 -0.0054078600369393826 0.002463000128045678
v 0.009000000543892384 -0.0022160301450639963 -0.003076100256294012
v 0.008113790303468704 -0.004852409940212965 -0.004186100326478481
v 0.00811425969004631 -0.0014427801361307502 -0.005741100292652845
v 0.006398360710591078 -0.004618150182068348 -0.0062931003049016
v 0.00811425969004631 -0.0014427801361307502 -0.005741100292652845
v 0.008113790303468704 -0.004852409940212965 -0.004186100326478481
v 0.006871660705655813 -0.0068123904056847095 0.002176899928599596
v 0.004757230170071125 -0.007783830631524324 0.0019718999974429607
v 0.006871660705655813 -0.007133550476282835 0.00048090002383105457
v 0.004757230170071125 -0.007783830631524324 0.0019718999974429607
v 0.004757230170071125 -0.008028080686926842 2.8890002795378678e-05
v 0.006871660705655813 -0.007133550476282835 0.00048090002383105457
v 0.004757230170071125 -0.008028080686926842 2.8890002795378678e-05
v 0.004757230170071125 -0.007796000223606825 -0.0019151100423187017
v 0.006871660705655813 -0.007133550476282835 0.00048090002383105457
v 0.006871660705655813 -0.006538240239024162 -0.0028931002598255873
v 0.006871660705655813 -0.007133550476282835 0.00048090002383105457
v 0.004757230170071125 -0.007796000223606825 -0.0019151100423187017
v 0.003999830223619938 -0.00521444994956255 0.01976890116930008
v 0.007457060273736715 -0.004932370502501726 0.019659381359815598
v 0.004487960133701563 -0.005617099814116955 0.02077290043234825
v 0.0055191898718476295 -0.008058871142566204 0.01599106192588806
v 0.004725560545921326 -0.007886829786002636 0.017096901312470436
v 0.003424480091780424 -0.008644049987196922 0.01562890037894249
v 0.004725560545921326 -0.007886829786002636 0.017096901312470436
v 0.0055191898718476295 -0.008058871142566204 0.01599106192588806
v 0.006406160071492195 -0.007450560573488474 0.01715490035712719
v 0.0055191898718476295 -0.008058871142566204 0.01599106192588806
v 0.007069359999150038 -0.0071526202373206615 0.01653590053319931
v 0.006406160071492195 -0.007450560573488474 0.01715490035712719
v 0.008019860833883286 -0.005462310276925564 0.017552049830555916
v 0.006406160071492195 -0.007450560573488474 0.01715490035712719
v 0.007069359999150038 -0.0071526202373206615 0.01653590053319931
v 0.006406160071492195 -0.007450560573488474 0.01715490035712719
v 0.008019860833883286 -0.005462310276925564 0.017552049830555916
v 0.007457060273736715 -0.004932370502501726 0.019659381359815598
v 0.008482160046696663 -0.003705560229718685 0.018597891554236412
v 0.007457060273736715 -0.004932370502501726 0.019659381359815598
v 0.008019860833883286 -0.005462310276925564 0.017552049830555916
v 0.008482160046696663 -0.003705560229718685 0.018597891554236412
v 0.00844282004982233 -0.0033396303188055754 0.020409321412444115
v 0.007457060273736715 -0.004932370502501726 0.019659381359815598
v 0.008482160046696663 -0.003705560229718685 0.018597891554236412
v 0.008492960594594479 2.1880001440877095e-05 0.020537901669740677
v 0.00844282004982233 -0.0033396303188055754 0.020409321412444115
v 0.00811425969004631 0.00163616007193923 -0.005701099988073111
v 0.009000000543892384 2.1880001440877095e-05 -0.004580100066959858
v 0.00811425969004631 -0.0014427801361307502 -0.005741100292652845
v 0.009000000543892384 -0.0022160301450639963 -0.003076100256294012
v 0.00811425969004631 -0.0014427801361307502 -0.005741100292652845
v 0.009000000543892384 2.1880001440877095e-05 -0.004580100066959858
v 0.009000000543892384 -0.00359913008287549 -0.0011731000849977136
v 0.008113790303468704 -0.004852409940212965 -0.004186100326478481
v 0.009000000543892384 -0.0022160301450639963 -0.003076100256294012
v 0.009000000543892384 -0.00359913008287549 -0.0011731000849977136
v 0.00811425969004631 -0.00560089061036706 -0.0018761102110147476
v 0.008113790303468704 -0.004852409940212965 -0.004186100326478481
v 0.00811425969004631 -0.00560089061036706 -0.0018761102110147476
v 0.009000000543892384 -0.00359913008287549 -0.0011731000849977136
v 0.00811425969004631 -0.005890999920666218 -0.0004291000368539244
v 0.007871660403907299 -0.0054078600369393826 0.002463000128045678
v 0.00811425969004631 -0.005890999920666218 -0.0004291000368539244
v 0.009000000543892384 -0.00359913008287549 -0.0011731000849977136
v 0.0034929602406919003 -0.008976071141660213 0.009813900105655193
v 0.0034929602406919003 -0.008705390617251396 0.008825910277664661
v 0.005661860108375549 -0.008477780967950821 0.00950590055435896
v 0.006724560167640448 0.0066855004988610744 0.0028724002186208963
v 0.007745360489934683 0.0055344803258776665 0.003444480011239648
v 0.005898360628634691 0.0076341405510902405 -0.00042209000093862414
v 0.00811425969004631 0.006008870434015989 0.00010432000271975994
v 0.005898360628634691 0.0076341405510902405 -0.00042209000093862414
v 0.007745360489934683 0.0055344803258776665 0.003444480011239648
v 0.006871660705655813 0.003669480327516794 -0.006170100532472134
v 0.00811425969004631 0.00163616007193923 -0.005701099988073111
v 0.005898360628634691 0.001770760165527463 -0.007620090153068304
v 0.005898360628634691 0.001770760165527463 -0.007620090153068304
v 0.00811425969004631 0.00163616007193923 -0.005701099988073111
v 0.005898360628634691 -0.0015686801634728909 -0.007337640039622784
v 0.00811425969004631 -0.0014427801361307502 -0.005741100292652845
v 0.005898360628634691 -0.0015686801634728909 -0.007337640039622784
v 0.00811425969004631 0.00163616007193923 -0.005701099988073111
v 0.005898360628634691 -0.0015686801634728909 -0.007337640039622784
v 0.00811425969004631 -0.0014427801361307502 -0.005741100292652845
v 0.006398360710591078 -0.004618150182068348 -0.0062931003049016
v 0.006398360710591078 -0.004618150182068348 -0.0062931003049016
v 0.008113790303468704 -0.004852409940212965 -0.004186100326478481
v 0.006871660705655813 -0.005854020360857248 -0.004573890008032322
v 0.006871660705655813 -0.005854020360857248 -0.004573890008032322
v 0.008113790303468704 -0.004852409940212965 -0.004186100326478481
v 0.006871660705655813 -0.006538240239024162 -0.0028931002598255873
v 0.00811425969004631 -0.00560089061036706 -0.0018761102110147476
v 0.006871660705655813 -0.006538240239024162 -0.0028931002598255873
v 0.008113790303468704 -0.004852409940212965 -0.004186100326478481
v 0.00811425969004631 -0.005890999920666218 -0.0004291000368539244
v 0.006871660705655813 -0.006538240239024162 -0.0028931002598255873
v 0.00811425969004631 -0.00560089061036706 -0.0018761102110147476
v 0.006871660705655813 -0.006538240239024162 -0.0028931002598255873
v 0.00811425969004631 -0.005890999920666218 -0.0004291000368539244
v 0.006871660705655813 -0.007133550476282835 0.00048090002383105457
v 0.006871660705655813 -0.007133550476282835 0.00048090002383105457
v 0.00811425969004631 -0.005890999920666218 -0.0004291000368539244
v 0.006871660705655813 -0.0068123904056847095 0.002176899928599596
v 0.008422460407018661 0.0036942900624126196 0.0041879103519022465
v 0.008492960594594479 2.1880001440877095e-05 0.00546990055590868
v 0.009000000543892384 2.1880001440877095e-05 0.004392910283058882
v 0.00811425969004631 0.006008870434015989 0.00010432000271975994
v 0.008422460407018661 0.0036942900624126196 0.0041879103519022465
v 0.009000000543892384 0.00374480034224689 -0.0010991001036018133
v 0.00811425969004631 0.006008870434015989 0.00010432000271975994
v 0.007745360489934683 0.0055344803258776665 0.003444480011239648
v 0.008422460407018661 0.0036942900624126196 0.0041879103519022465
v 0.009000000543892384 0.00225978996604681 -0.003076100256294012
v 0.009000000543892384 2.1880001440877095e-05 -0.004580100066959858
v 0.00811425969004631 0.00163616007193923 -0.005701099988073111
v 0.009000000543892384 2.1880001440877095e-05 -0.004580100066959858
v 0.009000000543892384 2.1880001440877095e-05 0.004392910283058882
v 0.009000000543892384 -0.0022160301450639963 -0.003076100256294012
v 0.009000000543892384 -0.0022160301450639963 -0.003076100256294012
v 0.009000000543892384 2.1880001440877095e-05 0.004392910283058882
v 0.009000000543892384 -0.00359913008287549 -0.0011731000849977136
v 0.007871660403907299 -0.0054078600369393826 0.002463000128045678
v 0.009000000543892384 -0.00359913008287549 -0.0011731000849977136
v 0.008492790162563324 -0.003558340249583125 0.0043419101275503635
v 0.006978730671107769 -0.007507730275392532 0.008862470276653767
v 0.005661860108375549 -0.008477780967950821 0.00950590055435896
v 0.0034929602406919003 -0.008705390617251396 0.008825910277664661
v 0.0034929602406919003 0.007979650050401688 0.0012188999680802226
v 0.005898360628634691 0.0076341405510902405 -0.00042209000093862414
v 0.004757230170071125 0.007880620658397675 -0.0017401000950485468
v 0.005898360628634691 0.0076341405510902405 -0.00042209000093862414
v 0.00811425969004631 0.006008870434015989 0.00010432000271975994
v 0.005898360628634691 0.00694247055798769 -0.0036411001347005367
v 0.004757230170071125 0.007226940710097551 -0.0035861001815646887
v 0.005898360628634691 0.00694247055798769 -0.0036411001347005367
v 0.004757230170071125 0.006146920379251242 -0.005220100283622742
v 0.005898360628634691 0.0047913603484630585 -0.006195110268890858
v 0.004757230170071125 0.006146920379251242 -0.005220100283622742
v 0.005898360628634691 0.00694247055798769 -0.0036411001347005367
v 0.004757230170071125 0.006146920379251242 -0.005220100283622742
v 0.005898360628634691 0.0047913603484630585 -0.006195110268890858
v 0.004757230170071125 0.004704470280557871 -0.006544100120663643
v 0.006871660705655813 0.003669480327516794 -0.006170100532472134
v 0.005898360628634691 0.0047913603484630585 -0.006195110268890858
v 0.005898360628634691 0.00694247055798769 -0.0036411001347005367
v 0.005898360628634691 0.0047913603484630585 -0.006195110268890858
v 0.006871660705655813 0.003669480327516794 -0.006170100532472134
v 0.005898360628634691 0.001770760165527463 -0.007620090153068304
v 0.005898360628634691 0.001770760165527463 -0.007620090153068304
v 0.004757230170071125 0.002984900027513504 -0.007481100503355265
v 0.005898360628634691 0.0047913603484630585 -0.006195110268890858
v 0.005898360628634691 0.0047913603484630585 -0.006195110268890858
v 0.004757230170071125 0.002984900027513504 -0.007481100503355265
v 0.004757230170071125 0.004704470280557871 -0.006544100120663643
v 0.004757230170071125 0.002984900027513504 -0.007481100503355265
v 0.005898360628634691 0.001770760165527463 -0.007620090153068304
v 0.004757230170071125 0.0010901001514866948 -0.007975100539624691
v 0.004757230170071125 -0.004513470456004143 -0.006647100206464529
v 0.006398360710591078 -0.004618150182068348 -0.0062931003049016
v 0.004757230170071125 -0.005985130090266466 -0.005355090368539095
v 0.006871660705655813 -0.005854020360857248 -0.004573890008032322
v 0.004757230170071125 -0.005985130090266466 -0.005355090368539095
v 0.006398360710591078 -0.004618150182068348 -0.0062931003049016
v 0.006871660705655813 -0.006538240239024162 -0.0028931002598255873
v 0.004757230170071125 -0.007796000223606825 -0.0019151100423187017
v 0.006871660705655813 -0.005854020360857248 -0.004573890008032322
v 0.006871660705655813 -0.005854020360857248 -0.004573890008032322
v 0.004757230170071125 -0.007796000223606825 -0.0019151100423187017
v 0.004757230170071125 -0.005985130090266466 -0.005355090368539095
v 0.004757230170071125 -0.007783830631524324 0.0019718999974429607
v 0.006871660705655813 -0.0068123904056847095 0.002176899928599596
v 0.004757230170071125 -0.0070776804350316525 0.003798900404945016
v 0.008999960497021675 -0.0035867802798748016 0.02582201175391674
v 0.00876643043011427 -0.0033491102512925863 0.022568849846720695
v 0.009000190533697605 2.6420000722282566e-05 0.023152902722358704
v 0.008492960594594479 2.1880001440877095e-05 0.020537901669740677
v 0.009000190533697605 2.6420000722282566e-05 0.023152902722358704
v 0.00876643043011427 -0.0033491102512925863 0.022568849846720695
v 0.00876643043011427 -0.0033491102512925863 0.022568849846720695
v 0.00844282004982233 -0.0033396303188055754 0.020409321412444115
v 0.008492960594594479 2.1880001440877095e-05 0.020537901669740677
v 0.008999960497021675 -0.0035867802798748016 0.02582201175391674
v 0.009000190533697605 2.6420000722282566e-05 0.023152902722358704
v 0.008999960497021675 -0.0026055900380015373 0.027581030502915382
v 0.008999960497021675 -0.0026055900380015373 0.027581030502915382
v 0.009000190533697605 2.6420000722282566e-05 0.023152902722358704
v 0.009000000543892384 2.1880001440877095e-05 0.028726141899824142
v 0.008218460716307163 0.0037377001717686653 0.021843500435352325
v 0.008999960497021675 0.0038781201001256704 0.025230342522263527
v 0.009000190533697605 2.6420000722282566e-05 0.023152902722358704
v 0.008218460716307163 0.0037377001717686653 0.021843500435352325
v 0.009000190533697605 2.6420000722282566e-05 0.023152902722358704
v 0.008492960594594479 2.1880001440877095e-05 0.020537901669740677
v 0.00811425969004631 0.004950330127030611 0.025050900876522064
v 0.008218460716307163 0.0037377001717686653 0.021843500435352325
v 0.0076203602366149426 0.004939400590956211 0.022204652428627014
v 0.008218460716307163 0.0037377001717686653 0.021843500435352325
v 0.00811425969004631 0.004950330127030611 0.025050900876522064
v 0.008999960497021675 0.0038781201001256704 0.025230342522263527
v 0.008999960497021675 0.0038781201001256704 0.025230342522263527
v 0.00811425969004631 0.004950330127030611 0.025050900876522064
v 0.008999960497021675 0.00311434012837708 0.027469901368021965
v 0.0076203602366149426 0.004939400590956211 0.022204652428627014
v 0.006304060108959675 0.006251020357012749 0.022773902863264084
v 0.00811425969004631 0.004950330127030611 0.025050900876522064
v 0.005898360628634691 0.006764830555766821 0.026036910712718964
v 0.00811425969004631 0.004950330127030611 0.025050900876522064
v 0.006304060108959675 0.006251020357012749 0.022773902863264084
v 0.005898360628634691 0.00555840041488409 0.028988901525735855
v 0.00811425969004631 0.004950330127030611 0.025050900876522064
v 0.005898360628634691 0.006764830555766821 0.026036910712718964
v 0.005898360628634691 4.37400012742728e-05 0.03182591125369072
v 0.00811425969004631 2.1880001440877095e-05 0.029932901263237
v 0.005898360628634691 0.0031420201994478703 0.031069891527295113
v 0.005898360628634691 -0.0030593001283705235 0.0310899019241333
v 0.00811425969004631 2.1880001440877095e-05 0.029932901263237
v 0.005898360628634691 4.37400012742728e-05 0.03182591125369072
v 0.00876643043011427 -0.0033491102512925863 0.022568849846720695
v 0.007457060273736715 -0.004932370502501726 0.019659381359815598
v 0.00844282004982233 -0.0033396303188055754 0.020409321412444115
v 0.005898360628634691 0.006764830555766821 0.026036910712718964
v 0.006304060108959675 0.006251020357012749 0.022773902863264084
v 0.004290860611945391 0.007002770435065031 0.024018900468945503
v 0.005898360628634691 0.006764830555766821 0.026036910712718964
v 0.004290860611945391 0.007002770435065031 0.024018900468945503
v 0.004757230170071125 0.00705771055072546 0.02545091137290001
v 0.004757230170071125 0.006687160115689039 0.02730090171098709
v 0.005898360628634691 0.006764830555766821 0.026036910712718964
v 0.004757230170071125 0.00705771055072546 0.02545091137290001
v 0.005898360628634691 0.006764830555766821 0.026036910712718964
v 0.004757230170071125 0.006687160115689039 0.02730090171098709
v 0.005898360628634691 0.00555840041488409 0.028988901525735855
v 0.004757230170071125 0.0045741102658212185 0.030386900529265404
v 0.005898360628634691 0.00555840041488409 0.028988901525735855
v 0.004757230170071125 0.006687160115689039 0.02730090171098709
v 0.005898360628634691 0.00555840041488409 0.028988901525735855
v 0.004757230170071125 0.0045741102658212185 0.030386900529265404
v 0.005898360628634691 0.0031420201994478703 0.031069891527295113
v 0.004757230170071125 0.0029830101411789656 0.03140190243721008
v 0.005898360628634691 0.0031420201994478703 0.031069891527295113
v 0.004757230170071125 0.0045741102658212185 0.030386900529265404
v 0.005898360628634691 0.0031420201994478703 0.031069891527295113
v 0.004757230170071125 0.0029830101411789656 0.03140190243721008
v 0.005898360628634691 4.37400012742728e-05 0.03182591125369072
v 0.005898360628634691 4.37400012742728e-05 0.03182591125369072
v 0.004757230170071125 0.0029830101411789656 0.03140190243721008
v 0.004757230170071125 0.0011798001360148191 0.031957902014255524
v 0.004757230170071125 -0.002540570218116045 0.0315718911588192
v 0.005898360628634691 4.37400012742728e-05 0.03182591125369072
v 0.004757230170071125 0.0011798001360148191 0.031957902014255524
v 0.005898360628634691 4.37400012742728e-05 0.03182591125369072
v 0.004757230170071125 -0.002540570218116045 0.0315718911588192
v 0.005898360628634691 -0.0030593001283705235 0.0310899019241333
v 0.004757230170071125 -0.004190930165350437 0.030656902119517326
v 0.005898360628634691 -0.0030593001283705235 0.0310899019241333
v 0.004757230170071125 -0.002540570218116045 0.0315718911588192
v 0.005898360628634691 -0.0030593001283705235 0.0310899019241333
v 0.004757230170071125 -0.004190930165350437 0.030656902119517326
v 0.00587166054174304 -0.004670700524002314 0.029331691563129425
v 0.00587166054174304 -0.004670700524002314 0.029331691563129425
v 0.004757230170071125 -0.004190930165350437 0.030656902119517326
v 0.004757230170071125 -0.006489649880677462 0.027705902233719826
v 0.00587166054174304 -0.004670700524002314 0.029331691563129425
v 0.004757230170071125 -0.006489649880677462 0.027705902233719826
v 0.005898360628634691 -0.006714300252497196 0.026079902425408363
v 0.004757230170071125 -0.006973210256546736 0.02588191069662571
v 0.005898360628634691 -0.006714300252497196 0.026079902425408363
v 0.004757230170071125 -0.006489649880677462 0.027705902233719826
v 0.005898360628634691 -0.006714300252497196 0.026079902425408363
v 0.004757230170071125 -0.006973210256546736 0.02588191069662571
v 0.005898360628634691 -0.006467490456998348 0.02290090173482895
v 0.005898360628634691 -0.006467490456998348 0.02290090173482895
v 0.004757230170071125 -0.006973210256546736 0.02588191069662571
v 0.004750360269099474 -0.006438000593334436 0.022179899737238884
v 0.005898360628634691 -0.006467490456998348 0.02290090173482895
v 0.004750360269099474 -0.006438000593334436 0.022179899737238884
v 0.007457060273736715 -0.004932370502501726 0.019659381359815598
v 0.007457060273736715 -0.004932370502501726 0.019659381359815598
v 0.004750360269099474 -0.006438000593334436 0.022179899737238884
v 0.004487960133701563 -0.005617099814116955 0.02077290043234825
v 0.004757230170071125 0.00705771055072546 0.02545091137290001
v 0.004290860611945391 0.007002770435065031 0.024018900468945503
v 0.0034998301416635513 0.0070498003624379635 0.024446891620755196
v 0.005406360607594252 -0.008540680631995201 0.012828340753912926
v 0.0034929602406919003 -0.00893332064151764 0.012688900344073772
v 0.0034929602406919003 -0.008976071141660213 0.009813900105655193
v 0.005406360607594252 -0.008540680631995201 0.012828340753912926
v 0.003424480091780424 -0.008644049987196922 0.01562890037894249
v 0.0034929602406919003 -0.00893332064151764 0.012688900344073772
v 0.003424480091780424 -0.008644049987196922 0.01562890037894249
v 0.005406360607594252 -0.008540680631995201 0.012828340753912926
v 0.0055191898718476295 -0.008058871142566204 0.01599106192588806
v 0.005661860108375549 -0.008477780967950821 0.00950590055435896
v 0.005406360607594252 -0.008540680631995201 0.012828340753912926
v 0.0034929602406919003 -0.008976071141660213 0.009813900105655193
v 0.005406360607594252 -0.008540680631995201 0.012828340753912926
v 0.005661860108375549 -0.008477780967950821 0.00950590055435896
v 0.007028460502624512 -0.0074578202329576015 0.012930899858474731
v 0.007028460502624512 -0.0074578202329576015 0.012930899858474731
v 0.005661860108375549 -0.008477780967950821 0.00950590055435896
v 0.006978730671107769 -0.007507730275392532 0.008862470276653767
v 0.007028460502624512 -0.0074578202329576015 0.012930899858474731
v 0.007069359999150038 -0.0071526202373206615 0.01653590053319931
v 0.005406360607594252 -0.008540680631995201 0.012828340753912926
v 0.005406360607594252 -0.008540680631995201 0.012828340753912926
v 0.007069359999150038 -0.0071526202373206615 0.01653590053319931
v 0.0055191898718476295 -0.008058871142566204 0.01599106192588806
v 0.007028460502624512 -0.0074578202329576015 0.012930899858474731
v 0.006978730671107769 -0.007507730275392532 0.008862470276653767
v 0.00811236072331667 -0.005837210454046726 0.012861900962889194
v 0.00811236072331667 -0.005837210454046726 0.012861900962889194
v 0.006978730671107769 -0.007507730275392532 0.008862470276653767
v 0.00800675991922617 -0.005977890454232693 0.007982400245964527
v 0.00811236072331667 -0.005837210454046726 0.012861900962889194
v 0.00800675991922617 -0.005977890454232693 0.007982400245964527
v 0.008492960594594479 -0.003889610292389989 0.012777900323271751
v 0.008492960594594479 -0.003889610292389989 0.012777900323271751
v 0.00800675991922617 -0.005977890454232693 0.007982400245964527
v 0.008473760448396206 -0.004318420309573412 0.0069878906942903996
v 0.005147760268300772 -0.005651640240103006 0.005676900036633015
v 0.0034929602406919003 -0.008705390617251396 0.008825910277664661
v 0.003999830223619938 -0.0058231898583471775 0.005848899949342012
v 0.0034929602406919003 -0.008705390617251396 0.008825910277664661
v 0.005147760268300772 -0.005651640240103006 0.005676900036633015
v 0.006978730671107769 -0.007507730275392532 0.008862470276653767
v 0.004725560545921326 -0.007886829786002636 0.017096901312470436
v 0.003999830223619938 -0.00521444994956255 0.01976890116930008
v 0.003424480091780424 -0.008644049987196922 0.01562890037894249
v 0.003999830223619938 -0.00521444994956255 0.01976890116930008
v 0.004725560545921326 -0.007886829786002636 0.017096901312470436
v 0.007457060273736715 -0.004932370502501726 0.019659381359815598
v 0.006406160071492195 -0.007450560573488474 0.01715490035712719
v 0.007457060273736715 -0.004932370502501726 0.019659381359815598
v 0.004725560545921326 -0.007886829786002636 0.017096901312470436
v 0.008422460407018661 0.0036942900624126196 0.0041879103519022465
v 0.008218460716307163 0.0037377001717686653 0.021843500435352325
v 0.008492960594594479 2.1880001440877095e-05 0.00546990055590868
v 0.007745360489934683 0.0055344803258776665 0.003444480011239648
v 0.008218460716307163 0.0037377001717686653 0.021843500435352325
v 0.008422460407018661 0.0036942900624126196 0.0041879103519022465
v 0.008218460716307163 0.0037377001717686653 0.021843500435352325
v 0.007745360489934683 0.0055344803258776665 0.003444480011239648
v 0.0076203602366149426 0.004939400590956211 0.022204652428627014
v 0.0076203602366149426 0.004939400590956211 0.022204652428627014
v 0.007745360489934683 0.0055344803258776665 0.003444480011239648
v 0.006304060108959675 0.006251020357012749 0.022773902863264084
v 0.006724560167640448 0.0066855004988610744 0.0028724002186208963
v 0.006304060108959675 0.006251020357012749 0.022773902863264084
v 0.007745360489934683 0.0055344803258776665 0.003444480011239648
v 0.006304060108959675 0.006251020357012749 0.022773902863264084
v 0.006724560167640448 0.0066855004988610744 0.0028724002186208963
v 0.004290860611945391 0.007002770435065031 0.024018900468945503
v 0.004750360269099474 0.007781740743666887 0.002145900158211589
v 0.004290860611945391 0.007002770435065031 0.024018900468945503
v 0.006724560167640448 0.0066855004988610744 0.0028724002186208963
v 0.004290860611945391 0.007002770435065031 0.024018900468945503
v 0.004750360269099474 0.007781740743666887 0.002145900158211589
v 0.0034929602406919003 0.007979650050401688 0.0012188999680802226
v 0.004290860611945391 0.007002770435065031 0.024018900468945503
v 0.0034929602406919003 0.007979650050401688 0.0012188999680802226
v 0.0034998301416635513 0.0070498003624379635 0.024446891620755196
v 0.008218460716307163 0.0037377001717686653 0.021843500435352325
v 0.008492960594594479 2.1880001440877095e-05 0.020537901669740677
v 0.008492960594594479 2.1880001440877095e-05 0.00546990055590868
v 0.008492960594594479 2.1880001440877095e-05 0.00546990055590868
v 0.008492960594594479 2.1880001440877095e-05 0.020537901669740677
v 0.008482160046696663 -0.003705560229718685 0.018597891554236412
v 0.008492960594594479 2.1880001440877095e-05 0.00546990055590868
v 0.008482160046696663 -0.003705560229718685 0.018597891554236412
v 0.008492960594594479 -0.003889610292389989 0.012777900323271751
v 0.008492960594594479 2.1880001440877095e-05 0.00546990055590868
v 0.008492960594594479 -0.003889610292389989 0.012777900323271751
v 0.008473760448396206 -0.004318420309573412 0.0069878906942903996
v 0.005147760268300772 -0.005651640240103006 0.005676900036633015
v 0.00800675991922617 -0.005977890454232693 0.007982400245964527
v 0.006978730671107769 -0.007507730275392532 0.008862470276653767
v 0.004487960133701563 -0.005617099814116955 0.02077290043234825
v 0.004750360269099474 -0.006438000593334436 0.022179899737238884
v -0.004495170433074236 -0.005617099814116955 0.02077290043234825
f 1 2 3
f 4 5 6
f 7 8 9
f 10 11 12
f 13 14 15
f 16 17 18
f 19 20 21
f 22 23 24
f 25 26 27
f 28 29 30
f 31 32 33
f 34 35 36
f 37 38 39
f 40 41 42
f 43 44 45
f 46 47 48
f 49 50 51
f 52 53 54
f 55 56 57
f 58 59 60
f 61 62 63
f 64 65 66
f 67 68 69
f 70 71 72
f 73 74 75
f 76 77 78
f 79 80 81
f 82 83 84
f 85 86 87
f 88 89 90
f 91 92 93
f 94 95 96
f 97 98 99
f 100 101 102
f 103 104 105
f 106 107 108
f 109 110 111
f 112 113 114
f 115 116 117
f 118 119 120
f 121 122 123
f 124 125 126
f 127 128 129
f 130 131 132
f 133 134 135
f 136 137 138
f 139 140 141
f 142 143 144
f 145 146 147
f 148 149 150
f 151 152 153
f 154 155 156
f 157 158 159
f 160 161 162
f 163 164 165
f 166 167 168
f 169 170 171
f 172 173 174
f 175 176 177
f 178 179 180
f 181 182 183
f 184 185 186
f 187 188 189
f 190 191 192
f 193 194 195
f 196 197 198
f 199 200 201
f 202 203 204
f 205 206 207
f 208 209 210
f 211 212 213
f 214 215 216
f 217 218 219
f 220 221 222
f 223 224 225
f 226 227 228
f 229 230 231
f 232 233 234
f 235 236 237
f 238 239 240
f 241 242 243
f 244 245 246
f 247 248 249
f 250 251 252
f 253 254 255
f 256 257 258
f 259 260 261
f 262 263 264
f 265 266 267
f 268 269 270
f 271 272 273
f 274 275 276
f 277 278 279
f 280 281 282
f 283 284 285
f 286 287 288
f 289 290 291
f 292 293 294
f 295 296 297
f 298 299 300
f 301 302 303
f 304 305 306
f 307 308 309
f 310 311 312
f 313 314 315
f 316 317 318
f 319 320 321
f 322 323 324
f 325 326 327
f 328 329 330
f 331 332 333
f 334 335 336
f 337 338 339
f 340 341 342
f 343 344 345
f 346 347 348
f 349 350 351
f 352 353 354
f 355 356 357
f 358 359 360
f 361 362 363
f 364 365 366
f 367 368 369
f 370 371 372
f 373 374 375
f 376 377 378
f 379 380 381
f 382 383 384
f 385 386 387
f 388 389 390
f 391 392 393
f 394 395 396
f 397 398 399
f 400 401 402
f 403 404 405
f 406 407 408
f 409 410 411
f 412 413 414
f 415 416 417
f 418 419 420
f 421 422 423
f 424 425 426
f 427 428 429
f 430 431 432
f 433 434 435
f 436 437 438
f 439 440 441
f 442 443 444
f 445 446 447
f 448 449 450
f 451 452 453
f 454 455 456
f 457 458 459
f 460 461 462
f 463 464 465
f 466 467 468
f 469 470 471
f 472 473 474
f 475 476 477
f 478 479 480
f 481 482 483
f 484 485 486
f 487 488 489
f 490 491 492
f 493 494 495
f 496 497 498
f 499 500 501
f 502 503 504
f 505 506 507
f 508 509 510
f 511 512 513
f 514 515 516
f 517 518 519
f 520 521 522
f 523 524 525
f 526 527 528
f 529 530 531
f 532 533 534
f 535 536 537
f 538 539 540
f 541 542 543
f 544 545 546
f 547 548 549
f 550 551 552
f 553 554 555
f 556 557 558
f 559 560 561
f 562 563 564
f 565 566 567
f 568 569 570
f 571 572 573
f 574 575 576
f 577 578 579
f 580 581 582
f 583 584 585
f 586 587 588
f 589 590 591
f 592 593 594
f 595 596 597
f 598 599 600
f 601 602 603
f 604 605 606
f 607 608 609
f 610 611 612
f 613 614 615
f 616 617 618
f 619 620 621
f 622 623 624
f 625 626 627
f 628 629 630
f 631 632 633
f 634 635 636
f 637 638 639
f 640 641 642
f 643 644 645
f 646 647 648
f 649 650 651
f 652 653 654
f 655 656 657
f 658 659 660
f 661 662 663
f 664 665 666
f 667 668 669
f 670 671 672
f 673 674 675
f 676 677 678
f 679 680 681
f 682 683 684
f 685 686 687
f 688 689 690
f 691 692 693
f 694 695 696
f 697 698 699
f 700 701 702
f 703 704 705
f 706 707 708
f 709 710 711
f 712 713 714
f 715 716 717
f 718 719 720
f 721 722 723
f 724 725 726
f 727 728 729
f 730 731 732
f 733 734 735
f 736 737 738
f 739 740 741
f 742 743 744
f 745 746 747
f 748 749 750
f 751 752 753
f 754 755 756
f 757 758 759
f 760 761 762
f 763 764 765
f 766 767 768
f 769 770 771
f 772 773 774
f 775 776 777
f 778 779 780
f 781 782 783
f 784 785 786
f 787 788 789
f 790 791 792
f 793 794 795
f 796 797 798
f 799 800 801
f 802 803 804
f 805 806 807
f 808 809 810
f 811 812 813
f 814 815 816
f 817 818 819
f 820 821 822
f 823 824 825
f 826 827 828
f 829 830 831
f 832 833 834
f 835 836 837
f 838 839 840
f 841 842 843
f 844 845 846
f 847 848 849
f 850 851 852
f 853 854 855
f 856 857 858
f 859 860 861
f 862 863 864
f 865 866 867
f 868 869 870
f 871 872 873
f 874 875 876
f 877 878 879
f 880 881 882
f 883 884 885
f 886 887 888
f 889 890 891
f 892 893 894
f 895 896 897
f 898 899 900
f 901 902 903
f 904 905 906
f 907 908 909
f 910 911 912
f 913 914 915
f 916 917 918
f 919 920 921
f 922 923 924
f 925 926 927
f 928 929 930
f 931 932 933
f 934 935 936
f 937 938 939
f 940 941 942
f 943 944 945
f 946 947 948
f 949 950 951
f 952 953 954
f 955 956 957
f 958 959 960
f 961 962 963
f 964 965 966
f 967 968 969
f 970 971 972
f 973 974 975
f 976 977 978
f 979 980 981
f 982 983 984
f 985 986 987
f 988 989 990
f 991 992 993
f 994 995 996
f 997 998 999
f 1000 1001 1002
f 1003 1004 1005
f 1006 1007 1008
f 1009 1010 1011
f 1012 1013 1014
f 1015 1016 1017
f 1018 1019 1020
f 1021 1022 1023
f 1024 1025 1026
f 1027 1028 1029
f 1030 1031 1032
f 1033 1034 1035
f 1036 1037 1038
f 1039 1040 1041
f 1042 1043 1044
f 1045 1046 1047
f 1048 1049 1050
f 1051 1052 1053
f 1054 1055 1056
f 1057 1058 1059
f 1060 1061 1062
f 1063 1064 1065
f 1066 1067 1068
f 1069 1070 1071
f 1072 1073 1074
f 1075 1076 1077
f 1078 1079 1080
f 1081 1082 1083
f 1084 1085 1086
f 1087 1088 1089
f 1090 1091 1092
f 1093 1094 1095
f 1096 1097 1098
f 1099 1100 1101
f 1102 1103 1104
f 1105 1106 1107
f 1108 1109 1110
f 1111 1112 1113
f 1114 1115 1116
f 1117 1118 1119
f 1120 1121 1122
f 1123 1124 1125
f 1126 1127 1128
f 1129 1130 1131
f 1132 1133 1134
f 1135 1136 1137
f 1138 1139 1140
f 1141 1142 1143
f 1144 1145 1146
f 1147 1148 1149
f 1150 1151 1152
f 1153 1154 1155
f 1156 1157 1158
f 1159 1160 1161
f 1162 1163 1164
f 1165 1166 1167
f 1168 1169 1170
f 1171 1172 1173
f 1174 1175 1176
f 1177 1178 1179
f 1180 1181 1182
f 1183 1184 1185
f 1186 1187 1188
f 1189 1190 1191
f 1192 1193 1194
f 1195 1196 1197
f 1198 1199 1200
f 1201 1202 1203
f 1204 1205 1206
f 1207 1208 1209
f 1210 1211 1212
f 1213 1214 1215
f 1216 1217 1218
f 1219 1220 1221
f 1222 1223 1224
f 1225 1226 1227
f 1228 1229 1230
f 1231 1232 1233
f 1234 1235 1236
f 1237 1238 1239
f 1240 1241 1242
f 1243 1244 1245
f 1246 1247 1248
f 1249 1250 1251
f 1252 1253 1254
f 1255 1256 1257
f 1258 1259 1260
f 1261 1262 1263
f 1264 1265 1266
f 1267 1268 1269
f 1270 1271 1272
f 1273 1274 1275
f 1276 1277 1278
f 1279 1280 1281
f 1282 1283 1284
f 1285 1286 1287
f 1288 1289 1290
f 1291 1292 1293
f 1294 1295 1296
f 1297 1298 1299
f 1300 1301 1302
f 1303 1304 1305
f 1306 1307 1308
f 1309 1310 1311
f 1312 1313 1314
f 1315 1316 1317
f 1318 1319 1320
f 1321 1322 1323
f 1324 1325 1326
f 1327 1328 1329
f 1330 1331 1332
