v 0.006562990602105856 -0.0023827701807022095 0.04724268242716789
v 0.005352630279958248 -0.004479269962757826 0.04724261164665222
v 0.008872469887137413 -0.0032233702950179577 0.04439990222454071
v 0.006562990602105856 -0.0023827701807022095 0.04724268242716789
v 0.006609160453081131 1.1299999869152089e-06 0.04753578454256058
v 0.0028467902448028326 -0.0023765701334923506 0.04909227043390274
v 0.002542210277169943 0.0013979000505059958 0.049166180193424225
v 0.0028467902448028326 -0.0023765701334923506 0.04909227043390274
v 0.006609160453081131 1.1299999869152089e-06 0.04753578454256058
v 0.012342160567641258 0.0026217401027679443 0.003915269859135151
v 0.011527860537171364 0.005127820186316967 0.003915269859135151
v 0.011016340926289558 1.1299999869152089e-06 0.012128600850701332
v 0.009958090260624886 0.004428919870406389 0.03715411201119423
v 0.010661380365490913 0.0022644801065325737 0.03715411201119423
v 0.010153960436582565 1.1299999869152089e-06 0.028836270794272423
v 0.011016340926289558 1.1299999869152089e-06 0.012128600850701332
v 0.008875570259988308 0.0064400602132081985 0.012121890671551228
v 0.010192280635237694 1.1299999869152089e-06 0.020462151616811752
v 0.008875570259988308 0.0064400602132081985 0.012121890671551228
v 0.011016340926289558 1.1299999869152089e-06 0.012128600850701332
v 0.011527860537171364 0.005127820186316967 0.003915269859135151
v 0.010192280635237694 1.1299999869152089e-06 0.020462151616811752
v 0.008195269852876663 0.005945820361375809 0.020458750426769257
v 0.010153960436582565 1.1299999869152089e-06 0.028836270794272423
v 0.008195269852876663 0.005945820361375809 0.020458750426769257
v 0.010192280635237694 1.1299999869152089e-06 0.020462151616811752
v 0.008875570259988308 0.0064400602132081985 0.012121890671551228
v 0.010153960436582565 1.1299999869152089e-06 0.028836270794272423
v 0.008177800104022026 0.005933080334216356 0.028837891295552254
v 0.009958090260624886 0.004428919870406389 0.03715411201119423
v 0.008177800104022026 0.005933080334216356 0.028837891295552254
v 0.010153960436582565 1.1299999869152089e-06 0.028836270794272423
v 0.008195269852876663 0.005945820361375809 0.020458750426769257
v 0.011527860537171364 0.005127820186316967 0.003915269859135151
v 0.008447140455245972 0.009368060156702995 0.003915280103683472
v 0.008875570259988308 0.0064400602132081985 0.012121890671551228
v 0.006452030502259731 0.00886355061084032 0.012121880427002907
v 0.008875570259988308 0.0064400602132081985 0.012121890671551228
v 0.008447140455245972 0.009368060156702995 0.003915280103683472
v 0.008875570259988308 0.0064400602132081985 0.012121890671551228
v 0.006452030502259731 0.00886355061084032 0.012121880427002907
v 0.008195269852876663 0.005945820361375809 0.020458750426769257
v 0.005957840476185083 0.008183300495147705 0.02045874111354351
v 0.008195269852876663 0.005945820361375809 0.020458750426769257
v 0.006452030502259731 0.00886355061084032 0.012121880427002907
v 0.008195269852876663 0.005945820361375809 0.020458750426769257
v 0.005957840476185083 0.008183300495147705 0.02045874111354351
v 0.008177800104022026 0.005933080334216356 0.028837891295552254
v 0.005945050623267889 0.008165759965777397 0.028837900608778
v 0.008177800104022026 0.005933080334216356 0.028837891295552254
v 0.005957840476185083 0.008183300495147705 0.02045874111354351
v 0.005945050623267889 0.008165759965777397 0.028837900608778
v 0.007297320291399956 0.008091100491583347 0.0371541790664196
v 0.009958090260624886 0.004428919870406389 0.03715411201119423
v 0.008177800104022026 0.005933080334216356 0.028837891295552254
v 0.005945050623267889 0.008165759965777397 0.028837900608778
v 0.009958090260624886 0.004428919870406389 0.03715411201119423
v 0.008447140455245972 0.009368060156702995 0.003915280103683472
v 0.006315350532531738 0.010916899889707565 0.003915280103683472
v 0.006452030502259731 0.00886355061084032 0.012121880427002907
v 0.006452030502259731 0.00886355061084032 0.012121880427002907
v 0.00339832017198205 0.010419530794024467 0.012121890671551228
v 0.005957840476185083 0.008183300495147705 0.02045874111354351
v 0.006452030502259731 0.00886355061084032 0.012121880427002907
v 0.006315350532531738 0.010916899889707565 0.003915280103683472
v 0.003908080514520407 0.011988670565187931 0.003915269859135151
v 0.00339832017198205 0.010419530794024467 0.012121890671551228
v 0.006452030502259731 0.00886355061084032 0.012121880427002907
v 0.003908080514520407 0.011988670565187931 0.003915269859135151
v 0.005957840476185083 0.008183300495147705 0.02045874111354351
v 0.003138459986075759 0.009619850665330887 0.020458750426769257
v 0.005945050623267889 0.008165759965777397 0.028837900608778
v 0.003138459986075759 0.009619850665330887 0.020458750426769257
v 0.005957840476185083 0.008183300495147705 0.02045874111354351
v 0.00339832017198205 0.010419530794024467 0.012121890671551228
v 0.005945050623267889 0.008165759965777397 0.028837900608778
v 0.0031317502725869417 0.009599230252206326 0.028837891295552254
v 0.007297320291399956 0.008091100491583347 0.0371541790664196
v 0.0031317502725869417 0.009599230252206326 0.028837891295552254
v 0.005945050623267889 0.008165759965777397 0.028837900608778
v 0.003138459986075759 0.009619850665330887 0.020458750426769257
v 0.003377120243385434 0.010354450903832912 0.037154171615839005
v 0.007297320291399956 0.008091100491583347 0.0371541790664196
v 0.0031317502725869417 0.009599230252206326 0.028837891295552254
v 0.003908080514520407 0.011988670565187931 0.003915269859135151
v 0.001330670085735619 0.012536530382931232 0.003915280103683472
v 0.00339832017198205 0.010419530794024467 0.012121890671551228
v -0.003372080158442259 0.010419530794024467 0.012121890671551228
v 0.00339832017198205 0.010419530794024467 0.012121890671551228
v 0.001330670085735619 0.012536530382931232 0.003915280103683472
v 0.00339832017198205 0.010419530794024467 0.012121890671551228
v -0.003372080158442259 0.010419530794024467 0.012121890671551228
v 0.003138459986075759 0.009619850665330887 0.020458750426769257
v 0.003138459986075759 0.009619850665330887 0.020458750426769257
v -0.0031122202053666115 0.009619850665330887 0.020458750426769257
v 0.0031317502725869417 0.009599230252206326 0.028837891295552254
v -0.0031122202053666115 0.009619850665330887 0.020458750426769257
v 0.003138459986075759 0.009619850665330887 0.020458750426769257
v -0.003372080158442259 0.010419530794024467 0.012121890671551228
v 0.0031317502725869417 0.009599230252206326 0.028837891295552254
v -0.00310550001449883 0.009599230252206326 0.028837891295552254
v 0.003377120243385434 0.010354450903832912 0.037154171615839005
v -0.00310550001449883 0.009599230252206326 0.028837891295552254
v 0.0031317502725869417 0.009599230252206326 0.028837891295552254
v -0.0031122202053666115 0.009619850665330887 0.020458750426769257
v 0.001330670085735619 0.012536530382931232 0.003915280103683472
v -0.001304430072195828 0.012536530382931232 0.003915280103683472
v -0.003372080158442259 0.010419530794024467 0.012121890671551228
v -0.0011247501242905855 0.010827620513737202 0.0371541790664196
v 0.003377120243385434 0.010354450903832912 0.037154171615839005
v -0.00310550001449883 0.009599230252206326 0.028837891295552254
v -0.003372080158442259 0.010419530794024467 0.012121890671551228
v -0.001304430072195828 0.012536530382931232 0.003915280103683472
v -0.003881840268149972 0.011988670565187931 0.003915269859135151
v -0.003881840268149972 0.011988670565187931 0.003915269859135151
v -0.006289110518991947 0.010916899889707565 0.003915280103683472
v -0.003372080158442259 0.010419530794024467 0.012121890671551228
v -0.003372080158442259 0.010419530794024467 0.012121890671551228
v -0.006425790023058653 0.00886355061084032 0.012121890671551228
v -0.0031122202053666115 0.009619850665330887 0.020458750426769257
v -0.006425790023058653 0.00886355061084032 0.012121890671551228
v -0.003372080158442259 0.010419530794024467 0.012121890671551228
v -0.006289110518991947 0.010916899889707565 0.003915280103683472
v -0.005931600462645292 0.008183300495147705 0.020458750426769257
v -0.0031122202053666115 0.009619850665330887 0.020458750426769257
v -0.006425790023058653 0.00886355061084032 0.012121890671551228
v -0.0031122202053666115 0.009619850665330887 0.020458750426769257
v -0.005931600462645292 0.008183300495147705 0.020458750426769257
v -0.00310550001449883 0.009599230252206326 0.028837891295552254
v -0.005918800365179777 0.008165759965777397 0.028837891295552254
v -0.00310550001449883 0.009599230252206326 0.028837891295552254
v -0.005931600462645292 0.008183300495147705 0.020458750426769257
v -0.005918800365179777 0.008165759965777397 0.028837891295552254
v -0.00727106025442481 0.008091100491583347 0.0371541790664196
v -0.0011247501242905855 0.010827620513737202 0.0371541790664196
v -0.00310550001449883 0.009599230252206326 0.028837891295552254
v -0.005918800365179777 0.008165759965777397 0.028837891295552254
v -0.0011247501242905855 0.010827620513737202 0.0371541790664196
v -0.006289110518991947 0.010916899889707565 0.003915280103683472
v -0.00842090044170618 0.009368060156702995 0.003915280103683472
v -0.006425790023058653 0.00886355061084032 0.012121890671551228
v -0.006425790023058653 0.00886355061084032 0.012121890671551228
v -0.00842090044170618 0.009368060156702995 0.003915280103683472
v -0.011501620523631573 0.005127820186316967 0.003915280103683472
v -0.008849330246448517 0.0064400602132081985 0.012121890671551228
v -0.006425790023058653 0.00886355061084032 0.012121890671551228
v -0.011501620523631573 0.005127820186316967 0.003915280103683472
v -0.006425790023058653 0.00886355061084032 0.012121890671551228
v -0.008849330246448517 0.0064400602132081985 0.012121890671551228
v -0.005931600462645292 0.008183300495147705 0.020458750426769257
v -0.008169020526111126 0.005945820361375809 0.020458750426769257
v -0.005931600462645292 0.008183300495147705 0.020458750426769257
v -0.008849330246448517 0.0064400602132081985 0.012121890671551228
v -0.005931600462645292 0.008183300495147705 0.020458750426769257
v -0.008169020526111126 0.005945820361375809 0.020458750426769257
v -0.005918800365179777 0.008165759965777397 0.028837891295552254
v -0.005918800365179777 0.008165759965777397 0.028837891295552254
v -0.008151560090482235 0.005933080334216356 0.028837891295552254
v -0.00727106025442481 0.008091100491583347 0.0371541790664196
v -0.008151560090482235 0.005933080334216356 0.028837891295552254
v -0.005918800365179777 0.008165759965777397 0.028837891295552254
v -0.008169020526111126 0.005945820361375809 0.020458750426769257
v -0.009931840002536774 0.004428919870406389 0.03715411201119423
v -0.00727106025442481 0.008091100491583347 0.0371541790664196
v -0.008151560090482235 0.005933080334216356 0.028837891295552254
v -0.010990099981427193 1.1299999869152089e-06 0.012128600850701332
v -0.008849330246448517 0.0064400602132081985 0.012121890671551228
v -0.011501620523631573 0.005127820186316967 0.003915280103683472
v -0.008849330246448517 0.0064400602132081985 0.012121890671551228
v -0.010990099981427193 1.1299999869152089e-06 0.012128600850701332
v -0.008169020526111126 0.005945820361375809 0.020458750426769257
v -0.010166030377149582 1.1299999869152089e-06 0.020462140440940857
v -0.008169020526111126 0.005945820361375809 0.020458750426769257
v -0.010990099981427193 1.1299999869152089e-06 0.012128600850701332
v -0.008169020526111126 0.005945820361375809 0.020458750426769257
v -0.010166030377149582 1.1299999869152089e-06 0.020462140440940857
v -0.008151560090482235 0.005933080334216356 0.028837891295552254
v -0.008151560090482235 0.005933080334216356 0.028837891295552254
v -0.010127711109817028 1.1299999869152089e-06 0.028836270794272423
v -0.009931840002536774 0.004428919870406389 0.03715411201119423
v -0.010127711109817028 1.1299999869152089e-06 0.028836270794272423
v -0.008151560090482235 0.005933080334216356 0.028837891295552254
v -0.010166030377149582 1.1299999869152089e-06 0.020462140440940857
v -0.011501620523631573 0.005127820186316967 0.003915280103683472
v -0.012591340579092503 1.1299999869152089e-06 0.003915349952876568
v -0.010990099981427193 1.1299999869152089e-06 0.012128600850701332
v -0.010635141283273697 0.0022644801065325737 0.03715411201119423
v -0.009931840002536774 0.004428919870406389 0.03715411201119423
v -0.010127711109817028 1.1299999869152089e-06 0.028836270794272423
v 0.005352630279958248 -0.004479269962757826 0.04724261164665222
v 0.003498250152915716 -0.006035270635038614 0.04724268242716789
v 0.007235230412334204 -0.006058970466256142 0.04439990222454071
v 0.005352630279958248 -0.004479269962757826 0.04724261164665222
v 0.006562990602105856 -0.0023827701807022095 0.04724268242716789
v 0.0028467902448028326 -0.0023765701334923506 0.04909227043390274
v 0.006609160453081131 1.1299999869152089e-06 0.04753578454256058
v 0.006562990602105856 -0.0023827701807022095 0.04724268242716789
v 0.009679700247943401 -8.860000889399089e-06 0.04425639286637306
v 0.010147950612008572 -0.0036876702215522528 0.04089576005935669
v 0.01065737009048462 -5.540000074688578e-06 0.041136059910058975
v 0.008872469887137413 -0.0032233702950179577 0.04439990222454071
v 0.011527860537171364 0.005127820186316967 0.003915269859135151
v 0.012342160567641258 0.0026217401027679443 0.003915269859135151
v 0.012917130254209042 0.0010947900591418147 -0.00014384000678546727
v 0.008306490257382393 0.006026620045304298 -0.007261750753968954
v 0.009762571193277836 0.00316892028786242 -0.007261750753968954
v 0.004715470131486654 0.005683280061930418 -0.009958290494978428
v 0.006038590334355831 0.008294500410556793 -0.007261680439114571
v 0.008306490257382393 0.006026620045304298 -0.007261750753968954
v 0.004715470131486654 0.005683280061930418 -0.009958290494978428
v 0.007235230412334204 -0.006058970466256142 0.04439990222454071
v 0.004727059975266457 -0.00816367007791996 0.04439983144402504
v 0.008275100030004978 -0.006931470241397619 0.04089576005935669
v 0.007642450276762247 0.010502040386199951 9.080000381800346e-06
v 0.008447140455245972 0.009368060156702995 0.003915280103683472
v 0.011527860537171364 0.005127820186316967 0.003915269859135151
v 0.006315350532531738 0.010916899889707565 0.003915280103683472
v 0.008447140455245972 0.009368060156702995 0.003915280103683472
v 0.007642450276762247 0.010502040386199951 9.080000381800346e-06
v 0.006038590334355831 0.008294500410556793 -0.007261680439114571
v 0.003180890344083309 0.009750571101903915 -0.007261680439114571
v 0.0071670603938400745 0.009847770445048809 -0.00383483013138175
v 0.003180890344083309 0.009750571101903915 -0.007261680439114571
v 0.006038590334355831 0.008294500410556793 -0.007261680439114571
v 0.004715470131486654 0.005683280061930418 -0.009958290494978428
v 0.003774220123887062 0.011576550081372261 -0.00383483013138175
v 0.0071670603938400745 0.009847770445048809 -0.00383483013138175
v 0.003180890344083309 0.009750571101903915 -0.007261680439114571
v 0.0071670603938400745 0.009847770445048809 -0.00383483013138175
v 0.003774220123887062 0.011576550081372261 -0.00383483013138175
v 0.007642450276762247 0.010502040386199951 9.080000381800346e-06
v 0.004024109803140163 0.012345690280199051 9.139999747276306e-06
v 0.007642450276762247 0.010502040386199951 9.080000381800346e-06
v 0.003774220123887062 0.011576550081372261 -0.00383483013138175
v 0.007642450276762247 0.010502040386199951 9.080000381800346e-06
v 0.004024109803140163 0.012345690280199051 9.139999747276306e-06
v 0.006315350532531738 0.010916899889707565 0.003915280103683472
v 0.003908080514520407 0.011988670565187931 0.003915269859135151
v 0.006315350532531738 0.010916899889707565 0.003915280103683472
v 0.004024109803140163 0.012345690280199051 9.139999747276306e-06
v 0.003180890344083309 0.009750571101903915 -0.007261680439114571
v -0.0031547201797366142 0.009750571101903915 -0.007261750753968954
v 0.003774220123887062 0.011576550081372261 -0.00383483013138175
v -0.0031547201797366142 0.009750571101903915 -0.007261750753968954
v 0.003180890344083309 0.009750571101903915 -0.007261680439114571
v -0.0022721802815794945 0.007034460548311472 -0.0099587207660079
v 0.003774220123887062 0.011576550081372261 -0.00383483013138175
v 1.3120001312927343e-05 0.01217225007712841 -0.00383483013138175
v 0.004024109803140163 0.012345690280199051 9.139999747276306e-06
v 1.3120001312927343e-05 0.01217225007712841 -0.00383483013138175
v 0.003774220123887062 0.011576550081372261 -0.00383483013138175
v -0.0031547201797366142 0.009750571101903915 -0.007261750753968954
v 1.3120001312927343e-05 0.012980970554053783 9.139999747276306e-06
v 0.001330670085735619 0.012536530382931232 0.003915280103683472
v 0.003908080514520407 0.011988670565187931 0.003915269859135151
v 0.004024109803140163 0.012345690280199051 9.139999747276306e-06
v 1.3120001312927343e-05 0.012980970554053783 9.139999747276306e-06
v 0.003908080514520407 0.011988670565187931 0.003915269859135151
v 1.3120001312927343e-05 0.012980970554053783 9.139999747276306e-06
v 0.004024109803140163 0.012345690280199051 9.139999747276306e-06
v 1.3120001312927343e-05 0.01217225007712841 -0.00383483013138175
v -0.001304430072195828 0.012536530382931232 0.003915280103683472
v 0.001330670085735619 0.012536530382931232 0.003915280103683472
v 1.3120001312927343e-05 0.012980970554053783 9.139999747276306e-06
v -0.0037479803431779146 0.011576550081372261 -0.003834820119664073
v 1.3120001312927343e-05 0.01217225007712841 -0.00383483013138175
v -0.0031547201797366142 0.009750571101903915 -0.007261750753968954
v 1.3120001312927343e-05 0.01217225007712841 -0.00383483013138175
v -0.0037479803431779146 0.011576550081372261 -0.003834820119664073
v 1.3120001312927343e-05 0.012980970554053783 9.139999747276306e-06
v 1.3120001312927343e-05 0.012980970554053783 9.139999747276306e-06
v -0.00399787025526166 0.012345690280199051 9.150000551017001e-06
v -0.001304430072195828 0.012536530382931232 0.003915280103683472
v -0.00399787025526166 0.012345690280199051 9.150000551017001e-06
v 1.3120001312927343e-05 0.012980970554053783 9.139999747276306e-06
v -0.0037479803431779146 0.011576550081372261 -0.003834820119664073
v -0.003881840268149972 0.011988670565187931 0.003915269859135151
v -0.001304430072195828 0.012536530382931232 0.003915280103683472
v -0.00399787025526166 0.012345690280199051 9.150000551017001e-06
v -0.005641700234264135 0.004785560537129641 -0.009956840425729752
v -0.0022721802815794945 0.007034460548311472 -0.0099587207660079
v -0.0031130702700465918 0.0022724501322954893 -0.011679540388286114
v -0.0022721802815794945 0.007034460548311472 -0.0099587207660079
v -0.005641700234264135 0.004785560537129641 -0.009956840425729752
v -0.0031547201797366142 0.009750571101903915 -0.007261750753968954
v -0.0060124206356704235 0.008294500410556793 -0.007261750753968954
v -0.0031547201797366142 0.009750571101903915 -0.007261750753968954
v -0.005641700234264135 0.004785560537129641 -0.009956840425729752
v -0.0031547201797366142 0.009750571101903915 -0.007261750753968954
v -0.0060124206356704235 0.008294500410556793 -0.007261750753968954
v -0.0037479803431779146 0.011576550081372261 -0.003834820119664073
v -0.0037479803431779146 0.011576550081372261 -0.003834820119664073
v -0.00714089022949338 0.009847770445048809 -0.0038348999805748463
v -0.00399787025526166 0.012345690280199051 9.150000551017001e-06
v -0.00714089022949338 0.009847770445048809 -0.0038348999805748463
v -0.0037479803431779146 0.011576550081372261 -0.003834820119664073
v -0.0060124206356704235 0.008294500410556793 -0.007261750753968954
v -0.007616210263222456 0.010502040386199951 9.080000381800346e-06
v -0.00399787025526166 0.012345690280199051 9.150000551017001e-06
v -0.00714089022949338 0.009847770445048809 -0.0038348999805748463
v -0.007616210263222456 0.010502040386199951 9.080000381800346e-06
v -0.006289110518991947 0.010916899889707565 0.003915280103683472
v -0.003881840268149972 0.011988670565187931 0.003915269859135151
v -0.00399787025526166 0.012345690280199051 9.150000551017001e-06
v -0.007616210263222456 0.010502040386199951 9.080000381800346e-06
v -0.003881840268149972 0.011988670565187931 0.003915269859135151
v -0.00842090044170618 0.009368060156702995 0.003915280103683472
v -0.006289110518991947 0.010916899889707565 0.003915280103683472
v -0.007616210263222456 0.010502040386199951 9.080000381800346e-06
v -0.0060124206356704235 0.008294500410556793 -0.007261750753968954
v -0.008280250243842602 0.006026620045304298 -0.007261750753968954
v -0.00714089022949338 0.009847770445048809 -0.0038348999805748463
v -0.008280250243842602 0.006026620045304298 -0.007261750753968954
v -0.0060124206356704235 0.008294500410556793 -0.007261750753968954
v -0.005641700234264135 0.004785560537129641 -0.009956840425729752
v -0.00983349047601223 0.00715513015165925 -0.003834820119664073
v -0.00714089022949338 0.009847770445048809 -0.0038348999805748463
v -0.008280250243842602 0.006026620045304298 -0.007261750753968954
v -0.00714089022949338 0.009847770445048809 -0.0038348999805748463
v -0.00983349047601223 0.00715513015165925 -0.003834820119664073
v -0.007616210263222456 0.010502040386199951 9.080000381800346e-06
v -0.010487770661711693 0.007630490232259035 9.080000381800346e-06
v -0.007616210263222456 0.010502040386199951 9.080000381800346e-06
v -0.00983349047601223 0.00715513015165925 -0.003834820119664073
v -0.007616210263222456 0.010502040386199951 9.080000381800346e-06
v -0.010487770661711693 0.007630490232259035 9.080000381800346e-06
v -0.00842090044170618 0.009368060156702995 0.003915280103683472
v -0.011501620523631573 0.005127820186316967 0.003915280103683472
v -0.00842090044170618 0.009368060156702995 0.003915280103683472
v -0.010487770661711693 0.007630490232259035 9.080000381800346e-06
v -0.005641700234264135 0.004785560537129641 -0.009956840425729752
v -0.006828840356320143 0.0023137701209634542 -0.009958100505173206
v -0.008280250243842602 0.006026620045304298 -0.007261750753968954
v -0.006828840356320143 0.0023137701209634542 -0.009958100505173206
v -0.005641700234264135 0.004785560537129641 -0.009956840425729752
v -0.0031130702700465918 0.0022724501322954893 -0.011679540388286114
v -0.00973633024841547 0.00316892028786242 -0.007261750753968954
v -0.008280250243842602 0.006026620045304298 -0.007261750753968954
v -0.006828840356320143 0.0023137701209634542 -0.009958100505173206
v -0.008280250243842602 0.006026620045304298 -0.007261750753968954
v -0.00973633024841547 0.00316892028786242 -0.007261750753968954
v -0.00983349047601223 0.00715513015165925 -0.003834820119664073
v -0.01156236045062542 0.0037622100207954645 -0.003834820119664073
v -0.00983349047601223 0.00715513015165925 -0.003834820119664073
v -0.00973633024841547 0.00316892028786242 -0.007261750753968954
v -0.00983349047601223 0.00715513015165925 -0.003834820119664073
v -0.01156236045062542 0.0037622100207954645 -0.003834820119664073
v -0.010487770661711693 0.007630490232259035 9.080000381800346e-06
v -0.010487770661711693 0.007630490232259035 9.080000381800346e-06
v -0.012331480160355568 0.004012119956314564 9.080000381800346e-06
v -0.011501620523631573 0.005127820186316967 0.003915280103683472
v -0.012331480160355568 0.004012119956314564 9.080000381800346e-06
v -0.010487770661711693 0.007630490232259035 9.080000381800346e-06
v -0.01156236045062542 0.0037622100207954645 -0.003834820119664073
v -0.012591340579092503 1.1299999869152089e-06 0.003915349952876568
v -0.011501620523631573 0.005127820186316967 0.003915280103683472
v -0.012331480160355568 0.004012119956314564 9.080000381800346e-06
v -0.012085490860044956 3.692999962368049e-05 -0.003513460047543049
v -0.01156236045062542 0.0037622100207954645 -0.003834820119664073
v -0.00973633024841547 0.00316892028786242 -0.007261750753968954
v -0.01156236045062542 0.0037622100207954645 -0.003834820119664073
v -0.012085490860044956 3.692999962368049e-05 -0.003513460047543049
v -0.012331480160355568 0.004012119956314564 9.080000381800346e-06
v -0.012331480160355568 0.004012119956314564 9.080000381800346e-06
v -0.012759300880134106 -6.820000271545723e-05 -7.480000476789428e-06
v -0.012591340579092503 1.1299999869152089e-06 0.003915349952876568
v -0.012759300880134106 -6.820000271545723e-05 -7.480000476789428e-06
v -0.012331480160355568 0.004012119956314564 9.080000381800346e-06
v -0.012085490860044956 3.692999962368049e-05 -0.003513460047543049
v 0.008872469887137413 -0.0032233702950179577 0.04439990222454071
v 0.01065737009048462 -5.540000074688578e-06 0.041136059910058975
v 0.009679700247943401 -8.860000889399089e-06 0.04425639286637306
v 0.010661380365490913 0.0022644801065325737 0.03715411201119423
v 0.009958090260624886 0.004428919870406389 0.03715411201119423
v 0.01065737009048462 -5.540000074688578e-06 0.041136059910058975
v 0.008275100030004978 0.006933760363608599 0.04089576005935669
v 0.01065737009048462 -5.540000074688578e-06 0.041136059910058975
v 0.009958090260624886 0.004428919870406389 0.03715411201119423
v 0.01065737009048462 -5.540000074688578e-06 0.041136059910058975
v 0.008275100030004978 0.006933760363608599 0.04089576005935669
v 0.009679700247943401 -8.860000889399089e-06 0.04425639286637306
v 0.009679700247943401 -8.860000889399089e-06 0.04425639286637306
v 0.007235240191221237 0.0060612503439188 0.04439990222454071
v 0.006609160453081131 1.1299999869152089e-06 0.04753578454256058
v 0.007235240191221237 0.0060612503439188 0.04439990222454071
v 0.009679700247943401 -8.860000889399089e-06 0.04425639286637306
v 0.008275100030004978 0.006933760363608599 0.04089576005935669
v 0.006609160453081131 1.1299999869152089e-06 0.04753578454256058
v 0.005352630279958248 0.004481490235775709 0.04724261164665222
v 0.002542210277169943 0.0013979000505059958 0.049166180193424225
v 0.005352630279958248 0.004481490235775709 0.04724261164665222
v 0.006609160453081131 1.1299999869152089e-06 0.04753578454256058
v 0.007235240191221237 0.0060612503439188 0.04439990222454071
v 0.009958090260624886 0.004428919870406389 0.03715411201119423
v 0.007297320291399956 0.008091100491583347 0.0371541790664196
v 0.008275100030004978 0.006933760363608599 0.04089576005935669
v 0.008275100030004978 0.006933760363608599 0.04089576005935669
v 0.005405810195952654 0.009341441094875336 0.04089576005935669
v 0.007235240191221237 0.0060612503439188 0.04439990222454071
v 0.005405810195952654 0.009341441094875336 0.04089576005935669
v 0.008275100030004978 0.006933760363608599 0.04089576005935669
v 0.007297320291399956 0.008091100491583347 0.0371541790664196
v 0.007235240191221237 0.0060612503439188 0.04439990222454071
v 0.004727059975266457 0.00816590990871191 0.04439983144402504
v 0.005352630279958248 0.004481490235775709 0.04724261164665222
v 0.004727059975266457 0.00816590990871191 0.04439983144402504
v 0.007235240191221237 0.0060612503439188 0.04439990222454071
v 0.005405810195952654 0.009341441094875336 0.04089576005935669
v 0.005352630279958248 0.004481490235775709 0.04724261164665222
v 0.003498240141198039 0.006037500221282244 0.04724268242716789
v 0.002542210277169943 0.0013979000505059958 0.049166180193424225
v 0.003498240141198039 0.006037500221282244 0.04724268242716789
v 0.005352630279958248 0.004481490235775709 0.04724261164665222
v 0.004727059975266457 0.00816590990871191 0.04439983144402504
v 0.007297320291399956 0.008091100491583347 0.0371541790664196
v 0.003377120243385434 0.010354450903832912 0.037154171615839005
v 0.005405810195952654 0.009341441094875336 0.04089576005935669
v 0.0018859701231122017 0.01062254048883915 0.04089576005935669
v 0.005405810195952654 0.009341441094875336 0.04089576005935669
v 0.003377120243385434 0.010354450903832912 0.037154171615839005
v 0.005405810195952654 0.009341441094875336 0.04089576005935669
v 0.0018859701231122017 0.01062254048883915 0.04089576005935669
v 0.004727059975266457 0.00816590990871191 0.04439983144402504
v 0.004727059975266457 0.00816590990871191 0.04439983144402504
v 0.0016502200160175562 0.009285771287977695 0.04439990222454071
v 0.003498240141198039 0.006037500221282244 0.04724268242716789
v 0.0016502200160175562 0.009285771287977695 0.04439990222454071
v 0.004727059975266457 0.00816590990871191 0.04439983144402504
v 0.0018859701231122017 0.01062254048883915 0.04089576005935669
v 0.0018859701231122017 0.01062254048883915 0.04089576005935669
v -0.0018597100861370564 0.01062254048883915 0.04089576005935669
v 0.0016502200160175562 0.009285771287977695 0.04439990222454071
v 0.0018859701231122017 0.01062254048883915 0.04089576005935669
v 0.003377120243385434 0.010354450903832912 0.037154171615839005
v -0.0011247501242905855 0.010827620513737202 0.0371541790664196
v -0.0018597100861370564 0.01062254048883915 0.04089576005935669
v 0.0018859701231122017 0.01062254048883915 0.04089576005935669
v -0.0011247501242905855 0.010827620513737202 0.0371541790664196
v 0.0016502200160175562 0.009285771287977695 0.04439990222454071
v -0.0016239701071754098 0.009285771287977695 0.04439990222454071
v 0.003498240141198039 0.006037500221282244 0.04724268242716789
v -0.0016239701071754098 0.009285771287977695 0.04439990222454071
v 0.0016502200160175562 0.009285771287977695 0.04439990222454071
v -0.0018597100861370564 0.01062254048883915 0.04089576005935669
v -0.0011972300708293915 0.0068654404021799564 0.04724269360303879
v 0.003498240141198039 0.006037500221282244 0.04724268242716789
v -0.0016239701071754098 0.009285771287977695 0.04439990222454071
v 0.003498240141198039 0.006037500221282244 0.04724268242716789
v -0.0011972300708293915 0.0068654404021799564 0.04724269360303879
v 0.002542210277169943 0.0013979000505059958 0.049166180193424225
v -0.0028205399867147207 0.002378839999437332 0.04909227043390274
v 0.002542210277169943 0.0013979000505059958 0.049166180193424225
v -0.0011972300708293915 0.0068654404021799564 0.04724269360303879
v -0.0018597100861370564 0.01062254048883915 0.04089576005935669
v -0.0053795501589775085 0.009341441094875336 0.040895771235227585
v -0.0016239701071754098 0.009285771287977695 0.04439990222454071
v -0.0018597100861370564 0.01062254048883915 0.04089576005935669
v -0.0011247501242905855 0.010827620513737202 0.0371541790664196
v -0.00727106025442481 0.008091100491583347 0.0371541790664196
v -0.0053795501589775085 0.009341441094875336 0.040895771235227585
v -0.0018597100861370564 0.01062254048883915 0.04089576005935669
v -0.00727106025442481 0.008091100491583347 0.0371541790664196
v -0.0016239701071754098 0.009285771287977695 0.04439990222454071
v -0.0047008804976940155 0.00816590990871191 0.04439990222454071
v -0.0011972300708293915 0.0068654404021799564 0.04724269360303879
v -0.0047008804976940155 0.00816590990871191 0.04439990222454071
v -0.0016239701071754098 0.009285771287977695 0.04439990222454071
v -0.0053795501589775085 0.009341441094875336 0.040895771235227585
v -0.0053795501589775085 0.009341441094875336 0.040895771235227585
v -0.008248850703239441 0.006933760363608599 0.040895771235227585
v -0.0047008804976940155 0.00816590990871191 0.04439990222454071
v -0.008248850703239441 0.006933760363608599 0.040895771235227585
v -0.0053795501589775085 0.009341441094875336 0.040895771235227585
v -0.00727106025442481 0.008091100491583347 0.0371541790664196
v -0.0047008804976940155 0.00816590990871191 0.04439990222454071
v -0.007208980619907379 0.0060612503439188 0.044399913400411606
v -0.0011972300708293915 0.0068654404021799564 0.04724269360303879
v -0.007208980619907379 0.0060612503439188 0.044399913400411606
v -0.0047008804976940155 0.00816590990871191 0.04439990222454071
v -0.008248850703239441 0.006933760363608599 0.040895771235227585
v -0.005326380021870136 0.004481490235775709 0.04724261909723282
v -0.0011972300708293915 0.0068654404021799564 0.04724269360303879
v -0.007208980619907379 0.0060612503439188 0.044399913400411606
v -0.0011972300708293915 0.0068654404021799564 0.04724269360303879
v -0.005326380021870136 0.004481490235775709 0.04724261909723282
v -0.0028205399867147207 0.002378839999437332 0.04909227043390274
v -0.00727106025442481 0.008091100491583347 0.0371541790664196
v -0.009931840002536774 0.004428919870406389 0.03715411201119423
v -0.008248850703239441 0.006933760363608599 0.040895771235227585
v -0.010610570199787617 0.0016554301837459207 0.04089317098259926
v -0.008248850703239441 0.006933760363608599 0.040895771235227585
v -0.009931840002536774 0.004428919870406389 0.03715411201119423
v -0.008248850703239441 0.006933760363608599 0.040895771235227585
v -0.010610570199787617 0.0016554301837459207 0.04089317098259926
v -0.007208980619907379 0.0060612503439188 0.044399913400411606
v -0.007208980619907379 0.0060612503439188 0.044399913400411606
v -0.009637320414185524 0.0011188400676473975 0.04452992230653763
v -0.005326380021870136 0.004481490235775709 0.04724261909723282
v -0.009637320414185524 0.0011188400676473975 0.04452992230653763
v -0.007208980619907379 0.0060612503439188 0.044399913400411606
v -0.010610570199787617 0.0016554301837459207 0.04089317098259926
v -0.006582910194993019 1.1299999869152089e-06 0.047535791993141174
v -0.005326380021870136 0.004481490235775709 0.04724261909723282
v -0.009637320414185524 0.0011188400676473975 0.04452992230653763
v -0.005326380021870136 0.004481490235775709 0.04724261909723282
v -0.006582910194993019 1.1299999869152089e-06 0.047535791993141174
v -0.0028205399867147207 0.002378839999437332 0.04909227043390274
v -0.009931840002536774 0.004428919870406389 0.03715411201119423
v -0.010635141283273697 0.0022644801065325737 0.03715411201119423
v -0.010610570199787617 0.0016554301837459207 0.04089317098259926
v 0.009679700247943401 -8.860000889399089e-06 0.04425639286637306
v 0.006562990602105856 -0.0023827701807022095 0.04724268242716789
v 0.008872469887137413 -0.0032233702950179577 0.04439990222454071
v 0.009958090260624886 -0.0044266702607274055 0.03715411201119423
v 0.010661380365490913 -0.002262270078063011 0.03715411201119423
v 0.010147950612008572 -0.0036876702215522528 0.04089576005935669
v -0.012591340579092503 1.1299999869152089e-06 0.003915349952876568
v -0.012315920554101467 -0.0026194702368229628 0.003915280103683472
v -0.010990099981427193 1.1299999869152089e-06 0.012128600850701332
v 0.007235230412334204 -0.006058970466256142 0.04439990222454071
v 0.008872469887137413 -0.0032233702950179577 0.04439990222454071
v 0.005352630279958248 -0.004479269962757826 0.04724261164665222
v -0.010990099981427193 1.1299999869152089e-06 0.012128600850701332
v -0.010405249893665314 -0.003383970120921731 0.012121890671551228
v -0.010166030377149582 1.1299999869152089e-06 0.020462140440940857
v -0.010405249893665314 -0.003383970120921731 0.012121890671551228
v -0.010990099981427193 1.1299999869152089e-06 0.012128600850701332
v -0.012315920554101467 -0.0026194702368229628 0.003915280103683472
v -0.009605580940842628 -0.0031241702381521463 0.020458750426769257
v -0.010166030377149582 1.1299999869152089e-06 0.020462140440940857
v -0.010405249893665314 -0.003383970120921731 0.012121890671551228
v -0.009605580940842628 -0.0031241702381521463 0.020458750426769257
v -0.010127711109817028 1.1299999869152089e-06 0.028836270794272423
v -0.010166030377149582 1.1299999869152089e-06 0.020462140440940857
v -0.009585000574588776 -0.003117470070719719 0.028837891295552254
v -0.010127711109817028 1.1299999869152089e-06 0.028836270794272423
v -0.009605580940842628 -0.0031241702381521463 0.020458750426769257
v -0.009585000574588776 -0.003117470070719719 0.028837891295552254
v -0.010635141283273697 -0.002262270078063011 0.03715411201119423
v -0.010635141283273697 0.0022644801065325737 0.03715411201119423
v -0.009585000574588776 -0.003117470070719719 0.028837891295552254
v -0.010635141283273697 0.0022644801065325737 0.03715411201119423
v -0.010127711109817028 1.1299999869152089e-06 0.028836270794272423
v 0.008275100030004978 -0.006931470241397619 0.04089576005935669
v 0.010147950612008572 -0.0036876702215522528 0.04089576005935669
v 0.007235230412334204 -0.006058970466256142 0.04439990222454071
v -0.012315920554101467 -0.0026194702368229628 0.003915280103683472
v -0.011501620523631573 -0.005125570110976696 0.003915280103683472
v -0.010405249893665314 -0.003383970120921731 0.012121890671551228
v -0.009931840002536774 -0.0044266702607274055 0.03715411201119423
v -0.010635141283273697 -0.002262270078063011 0.03715411201119423
v -0.009585000574588776 -0.003117470070719719 0.028837891295552254
v -0.010405249893665314 -0.003383970120921731 0.012121890671551228
v -0.008849330246448517 -0.006437770090997219 0.012121890671551228
v -0.009605580940842628 -0.0031241702381521463 0.020458750426769257
v -0.008849330246448517 -0.006437770090997219 0.012121890671551228
v -0.010405249893665314 -0.003383970120921731 0.012121890671551228
v -0.011501620523631573 -0.005125570110976696 0.003915280103683472
v -0.009605580940842628 -0.0031241702381521463 0.020458750426769257
v -0.008169020526111126 -0.005943570286035538 0.020458750426769257
v -0.009585000574588776 -0.003117470070719719 0.028837891295552254
v -0.008169020526111126 -0.005943570286035538 0.020458750426769257
v -0.009605580940842628 -0.0031241702381521463 0.020458750426769257
v -0.008849330246448517 -0.006437770090997219 0.012121890671551228
v -0.009585000574588776 -0.003117470070719719 0.028837891295552254
v -0.008151560090482235 -0.005930870305746794 0.028837891295552254
v -0.009931840002536774 -0.0044266702607274055 0.03715411201119423
v -0.008151560090482235 -0.005930870305746794 0.028837891295552254
v -0.009585000574588776 -0.003117470070719719 0.028837891295552254
v -0.008169020526111126 -0.005943570286035538 0.020458750426769257
v -0.011501620523631573 -0.005125570110976696 0.003915280103683472
v -0.00842090044170618 -0.00936577096581459 0.003915280103683472
v -0.008849330246448517 -0.006437770090997219 0.012121890671551228
v -0.006425790023058653 -0.008861270733177662 0.012121890671551228
v -0.008849330246448517 -0.006437770090997219 0.012121890671551228
v -0.00842090044170618 -0.00936577096581459 0.003915280103683472
v -0.008849330246448517 -0.006437770090997219 0.012121890671551228
v -0.006425790023058653 -0.008861270733177662 0.012121890671551228
v -0.008169020526111126 -0.005943570286035538 0.020458750426769257
v -0.008169020526111126 -0.005943570286035538 0.020458750426769257
v -0.005931600462645292 -0.008181070908904076 0.020458750426769257
v -0.008151560090482235 -0.005930870305746794 0.028837891295552254
v -0.005931600462645292 -0.008181070908904076 0.020458750426769257
v -0.008169020526111126 -0.005943570286035538 0.020458750426769257
v -0.006425790023058653 -0.008861270733177662 0.012121890671551228
v -0.005918800365179777 -0.008163470774888992 0.028837891295552254
v -0.008151560090482235 -0.005930870305746794 0.028837891295552254
v -0.005931600462645292 -0.008181070908904076 0.020458750426769257
v -0.005918800365179777 -0.008163470774888992 0.028837891295552254
v -0.00727106025442481 -0.008088869974017143 0.0371541790664196
v -0.009931840002536774 -0.0044266702607274055 0.03715411201119423
v -0.008151560090482235 -0.005930870305746794 0.028837891295552254
v -0.005918800365179777 -0.008163470774888992 0.028837891295552254
v -0.009931840002536774 -0.0044266702607274055 0.03715411201119423
v -0.00842090044170618 -0.00936577096581459 0.003915280103683472
v -0.006289110518991947 -0.010914670303463936 0.003915280103683472
v -0.006425790023058653 -0.008861270733177662 0.012121890671551228
v -0.006425790023058653 -0.008861270733177662 0.012121890671551228
v -0.003372080158442259 -0.010417270474135876 0.012121890671551228
v -0.005931600462645292 -0.008181070908904076 0.020458750426769257
v -0.006425790023058653 -0.008861270733177662 0.012121890671551228
v -0.006289110518991947 -0.010914670303463936 0.003915280103683472
v -0.003881840268149972 -0.01198637019842863 0.003915280103683472
v -0.003372080158442259 -0.010417270474135876 0.012121890671551228
v -0.006425790023058653 -0.008861270733177662 0.012121890671551228
v -0.003881840268149972 -0.01198637019842863 0.003915280103683472
v -0.0031122202053666115 -0.009617570787668228 0.020458750426769257
v -0.005931600462645292 -0.008181070908904076 0.020458750426769257
v -0.003372080158442259 -0.010417270474135876 0.012121890671551228
v -0.005931600462645292 -0.008181070908904076 0.020458750426769257
v -0.0031122202053666115 -0.009617570787668228 0.020458750426769257
v -0.005918800365179777 -0.008163470774888992 0.028837891295552254
v -0.005918800365179777 -0.008163470774888992 0.028837891295552254
v -0.00310550001449883 -0.009596969932317734 0.028837891295552254
v -0.00727106025442481 -0.008088869974017143 0.0371541790664196
v -0.00310550001449883 -0.009596969932317734 0.028837891295552254
v -0.005918800365179777 -0.008163470774888992 0.028837891295552254
v -0.0031122202053666115 -0.009617570787668228 0.020458750426769257
v -0.003350860206410289 -0.01035217009484768 0.037154171615839005
v -0.00727106025442481 -0.008088869974017143 0.0371541790664196
v -0.00310550001449883 -0.009596969932317734 0.028837891295552254
v -0.003881840268149972 -0.01198637019842863 0.003915280103683472
v -0.001304430072195828 -0.012534270994365215 0.003915280103683472
v -0.003372080158442259 -0.010417270474135876 0.012121890671551228
v -0.001304430072195828 -0.012534270994365215 0.003915280103683472
v 0.001330670085735619 -0.012534270994365215 0.003915280103683472
v -0.003372080158442259 -0.010417270474135876 0.012121890671551228
v 0.001151000033132732 -0.01082537043839693 0.0371541790664196
v -0.003350860206410289 -0.01035217009484768 0.037154171615839005
v -0.00310550001449883 -0.009596969932317734 0.028837891295552254
v -0.003372080158442259 -0.010417270474135876 0.012121890671551228
v 0.00339832017198205 -0.010417270474135876 0.012121890671551228
v -0.0031122202053666115 -0.009617570787668228 0.020458750426769257
v -0.0031122202053666115 -0.009617570787668228 0.020458750426769257
v 0.003138459986075759 -0.009617570787668228 0.020458750426769257
v -0.00310550001449883 -0.009596969932317734 0.028837891295552254
v 0.003138459986075759 -0.009617570787668228 0.020458750426769257
v -0.0031122202053666115 -0.009617570787668228 0.020458750426769257
v 0.00339832017198205 -0.010417270474135876 0.012121890671551228
v -0.00310550001449883 -0.009596969932317734 0.028837891295552254
v 0.0031317502725869417 -0.009596969932317734 0.028837891295552254
v 0.001151000033132732 -0.01082537043839693 0.0371541790664196
v 0.0031317502725869417 -0.009596969932317734 0.028837891295552254
v -0.00310550001449883 -0.009596969932317734 0.028837891295552254
v 0.003138459986075759 -0.009617570787668228 0.020458750426769257
v 0.003908080514520407 -0.01198637019842863 0.003915280103683472
v 0.006315350532531738 -0.010914670303463936 0.003915280103683472
v 0.00339832017198205 -0.010417270474135876 0.012121890671551228
v 0.006452030502259731 -0.008861270733177662 0.012121880427002907
v 0.00339832017198205 -0.010417270474135876 0.012121890671551228
v 0.006315350532531738 -0.010914670303463936 0.003915280103683472
v 0.00339832017198205 -0.010417270474135876 0.012121890671551228
v 0.006452030502259731 -0.008861270733177662 0.012121880427002907
v 0.003138459986075759 -0.009617570787668228 0.020458750426769257
v 0.003138459986075759 -0.009617570787668228 0.020458750426769257
v 0.005957840476185083 -0.008181070908904076 0.02045874111354351
v 0.0031317502725869417 -0.009596969932317734 0.028837891295552254
v 0.005957840476185083 -0.008181070908904076 0.02045874111354351
v 0.003138459986075759 -0.009617570787668228 0.020458750426769257
v 0.006452030502259731 -0.008861270733177662 0.012121880427002907
v 0.005945050623267889 -0.008163470774888992 0.028837900608778
v 0.0031317502725869417 -0.009596969932317734 0.028837891295552254
v 0.005957840476185083 -0.008181070908904076 0.02045874111354351
v 0.005945050623267889 -0.008163470774888992 0.028837900608778
v 0.007297320291399956 -0.008088869974017143 0.0371541790664196
v 0.001151000033132732 -0.01082537043839693 0.0371541790664196
v 0.0031317502725869417 -0.009596969932317734 0.028837891295552254
v 0.005945050623267889 -0.008163470774888992 0.028837900608778
v 0.001151000033132732 -0.01082537043839693 0.0371541790664196
v 0.006315350532531738 -0.010914670303463936 0.003915280103683472
v 0.008447140455245972 -0.00936577096581459 0.003915280103683472
v 0.006452030502259731 -0.008861270733177662 0.012121880427002907
v 0.006452030502259731 -0.008861270733177662 0.012121880427002907
v 0.008447140455245972 -0.00936577096581459 0.003915280103683472
v 0.011527860537171364 -0.005125570110976696 0.003915269859135151
v 0.008875570259988308 -0.006437770090997219 0.012121890671551228
v 0.006452030502259731 -0.008861270733177662 0.012121880427002907
v 0.011527860537171364 -0.005125570110976696 0.003915269859135151
v 0.006452030502259731 -0.008861270733177662 0.012121880427002907
v 0.008875570259988308 -0.006437770090997219 0.012121890671551228
v 0.005957840476185083 -0.008181070908904076 0.02045874111354351
v 0.005957840476185083 -0.008181070908904076 0.02045874111354351
v 0.008195269852876663 -0.005943570286035538 0.020458750426769257
v 0.005945050623267889 -0.008163470774888992 0.028837900608778
v 0.008195269852876663 -0.005943570286035538 0.020458750426769257
v 0.005957840476185083 -0.008181070908904076 0.02045874111354351
v 0.008875570259988308 -0.006437770090997219 0.012121890671551228
v 0.005945050623267889 -0.008163470774888992 0.028837900608778
v 0.008177800104022026 -0.005930870305746794 0.028837891295552254
v 0.007297320291399956 -0.008088869974017143 0.0371541790664196
v 0.008177800104022026 -0.005930870305746794 0.028837891295552254
v 0.005945050623267889 -0.008163470774888992 0.028837900608778
v 0.008195269852876663 -0.005943570286035538 0.020458750426769257
v 0.009958090260624886 -0.0044266702607274055 0.03715411201119423
v 0.007297320291399956 -0.008088869974017143 0.0371541790664196
v 0.008177800104022026 -0.005930870305746794 0.028837891295552254
v 0.008875570259988308 -0.006437770090997219 0.012121890671551228
v 0.01043149083852768 -0.003383970120921731 0.012121880427002907
v 0.008195269852876663 -0.005943570286035538 0.020458750426769257
v 0.01043149083852768 -0.003383970120921731 0.012121880427002907
v 0.008875570259988308 -0.006437770090997219 0.012121890671551228
v 0.011527860537171364 -0.005125570110976696 0.003915269859135151
v 0.008195269852876663 -0.005943570286035538 0.020458750426769257
v 0.009631830267608166 -0.0031241702381521463 0.020458750426769257
v 0.008177800104022026 -0.005930870305746794 0.028837891295552254
v 0.009631830267608166 -0.0031241702381521463 0.020458750426769257
v 0.008195269852876663 -0.005943570286035538 0.020458750426769257
v 0.01043149083852768 -0.003383970120921731 0.012121880427002907
v 0.008177800104022026 -0.005930870305746794 0.028837891295552254
v 0.009611250832676888 -0.003117470070719719 0.028837900608778
v 0.009958090260624886 -0.0044266702607274055 0.03715411201119423
v 0.009611250832676888 -0.003117470070719719 0.028837900608778
v 0.008177800104022026 -0.005930870305746794 0.028837891295552254
v 0.009631830267608166 -0.0031241702381521463 0.020458750426769257
v 0.011527860537171364 -0.005125570110976696 0.003915269859135151
v 0.012342160567641258 -0.0026194702368229628 0.003915269859135151
v 0.01043149083852768 -0.003383970120921731 0.012121880427002907
v 0.010661380365490913 -0.002262270078063011 0.03715411201119423
v 0.009958090260624886 -0.0044266702607274055 0.03715411201119423
v 0.009611250832676888 -0.003117470070719719 0.028837900608778
v 0.01043149083852768 -0.003383970120921731 0.012121880427002907
v 0.012342160567641258 -0.0026194702368229628 0.003915269859135151
v 0.012342160567641258 0.0026217401027679443 0.003915269859135151
v 0.01043149083852768 -0.003383970120921731 0.012121880427002907
v 0.012342160567641258 0.0026217401027679443 0.003915269859135151
v 0.011016340926289558 1.1299999869152089e-06 0.012128600850701332
v 0.010147950612008572 -0.0036876702215522528 0.04089576005935669
v 0.008275100030004978 -0.006931470241397619 0.04089576005935669
v 0.009958090260624886 -0.0044266702607274055 0.03715411201119423
v 0.01043149083852768 -0.003383970120921731 0.012121880427002907
v 0.011016340926289558 1.1299999869152089e-06 0.012128600850701332
v 0.009631830267608166 -0.0031241702381521463 0.020458750426769257
v 0.009631830267608166 -0.0031241702381521463 0.020458750426769257
v 0.010192280635237694 1.1299999869152089e-06 0.020462151616811752
v 0.009611250832676888 -0.003117470070719719 0.028837900608778
v 0.009631830267608166 -0.0031241702381521463 0.020458750426769257
v 0.011016340926289558 1.1299999869152089e-06 0.012128600850701332
v 0.010192280635237694 1.1299999869152089e-06 0.020462151616811752
v 0.009611250832676888 -0.003117470070719719 0.028837900608778
v 0.010153960436582565 1.1299999869152089e-06 0.028836270794272423
v 0.010661380365490913 -0.002262270078063011 0.03715411201119423
v 0.008872469887137413 -0.0032233702950179577 0.04439990222454071
v 0.007235230412334204 -0.006058970466256142 0.04439990222454071
v 0.010147950612008572 -0.0036876702215522528 0.04089576005935669
v 0.010153960436582565 1.1299999869152089e-06 0.028836270794272423
v 0.009611250832676888 -0.003117470070719719 0.028837900608778
v 0.010192280635237694 1.1299999869152089e-06 0.020462151616811752
v 0.010661380365490913 0.0022644801065325737 0.03715411201119423
v 0.010661380365490913 -0.002262270078063011 0.03715411201119423
v 0.010153960436582565 1.1299999869152089e-06 0.028836270794272423
v -0.0031130702700465918 0.0022724501322954893 -0.011679540388286114
v -0.00366193032823503 -0.0011929700849577785 -0.011679540388286114
v -0.006828840356320143 0.0023137701209634542 -0.009958100505173206
v -0.006965720560401678 -0.0012996901059523225 -0.009956520982086658
v -0.006828840356320143 0.0023137701209634542 -0.009958100505173206
v -0.00366193032823503 -0.0011929700849577785 -0.011679540388286114
v -0.006828840356320143 0.0023137701209634542 -0.009958100505173206
v -0.006965720560401678 -0.0012996901059523225 -0.009956520982086658
v -0.00973633024841547 0.00316892028786242 -0.007261750753968954
v -0.00973633024841547 -0.003166670212522149 -0.007261740509420633
v -0.012085490860044956 3.692999962368049e-05 -0.003513460047543049
v -0.00973633024841547 0.00316892028786242 -0.007261750753968954
v -0.00973633024841547 -0.003166670212522149 -0.007261740509420633
v -0.00973633024841547 0.00316892028786242 -0.007261750753968954
v -0.006965720560401678 -0.0012996901059523225 -0.009956520982086658
v -0.01164271030575037 -0.003811340080574155 -0.003895890200510621
v -0.012085490860044956 3.692999962368049e-05 -0.003513460047543049
v -0.00973633024841547 -0.003166670212522149 -0.007261740509420633
v -0.01164271030575037 -0.003811340080574155 -0.003895890200510621
v -0.012759300880134106 -6.820000271545723e-05 -7.480000476789428e-06
v -0.012085490860044956 3.692999962368049e-05 -0.003513460047543049
v -0.012331480160355568 -0.00400987034663558 9.080000381800346e-06
v -0.012315920554101467 -0.0026194702368229628 0.003915280103683472
v -0.012591340579092503 1.1299999869152089e-06 0.003915349952876568
v -0.012331480160355568 -0.00400987034663558 9.080000381800346e-06
v -0.012591340579092503 1.1299999869152089e-06 0.003915349952876568
v -0.012759300880134106 -6.820000271545723e-05 -7.480000476789428e-06
v -0.012331480160355568 -0.00400987034663558 9.080000381800346e-06
v -0.012759300880134106 -6.820000271545723e-05 -7.480000476789428e-06
v -0.01164271030575037 -0.003811340080574155 -0.003895890200510621
v -0.011501620523631573 -0.005125570110976696 0.003915280103683472
v -0.012315920554101467 -0.0026194702368229628 0.003915280103683472
v -0.012331480160355568 -0.00400987034663558 9.080000381800346e-06
v -0.005969780031591654 -0.0043456703424453735 -0.0099587207660079
v -0.006965720560401678 -0.0012996901059523225 -0.009956520982086658
v -0.00366193032823503 -0.0011929700849577785 -0.011679540388286114
v -0.006965720560401678 -0.0012996901059523225 -0.009956520982086658
v -0.005969780031591654 -0.0043456703424453735 -0.0099587207660079
v -0.00973633024841547 -0.003166670212522149 -0.007261740509420633
v -0.00973633024841547 -0.003166670212522149 -0.007261740509420633
v -0.008280250243842602 -0.006024370435625315 -0.007261750753968954
v -0.01164271030575037 -0.003811340080574155 -0.003895890200510621
v -0.008280250243842602 -0.006024370435625315 -0.007261750753968954
v -0.00973633024841547 -0.003166670212522149 -0.007261740509420633
v -0.005969780031591654 -0.0043456703424453735 -0.0099587207660079
v -0.01164271030575037 -0.003811340080574155 -0.003895890200510621
v -0.00983349047601223 -0.007152870297431946 -0.003834820119664073
v -0.012331480160355568 -0.00400987034663558 9.080000381800346e-06
v -0.00983349047601223 -0.007152870297431946 -0.003834820119664073
v -0.01164271030575037 -0.003811340080574155 -0.003895890200510621
v -0.008280250243842602 -0.006024370435625315 -0.007261750753968954
v -0.010487770661711693 -0.007628270424902439 9.080000381800346e-06
v -0.012331480160355568 -0.00400987034663558 9.080000381800346e-06
v -0.00983349047601223 -0.007152870297431946 -0.003834820119664073
v -0.012331480160355568 -0.00400987034663558 9.080000381800346e-06
v -0.010487770661711693 -0.007628270424902439 9.080000381800346e-06
v -0.011501620523631573 -0.005125570110976696 0.003915280103683472
v -0.008280250243842602 -0.006024370435625315 -0.007261750753968954
v -0.0060124206356704235 -0.00829226989299059 -0.007261750753968954
v -0.00983349047601223 -0.007152870297431946 -0.003834820119664073
v -0.0060124206356704235 -0.00829226989299059 -0.007261750753968954
v -0.008280250243842602 -0.006024370435625315 -0.007261750753968954
v -0.005969780031591654 -0.0043456703424453735 -0.0099587207660079
v -0.00983349047601223 -0.007152870297431946 -0.003834820119664073
v -0.00714089022949338 -0.009845471009612083 -0.0038348999805748463
v -0.010487770661711693 -0.007628270424902439 9.080000381800346e-06
v -0.00714089022949338 -0.009845471009612083 -0.0038348999805748463
v -0.00983349047601223 -0.007152870297431946 -0.003834820119664073
v -0.0060124206356704235 -0.00829226989299059 -0.007261750753968954
v -0.007616210263222456 -0.010499770753085613 9.080000381800346e-06
v -0.010487770661711693 -0.007628270424902439 9.080000381800346e-06
v -0.00714089022949338 -0.009845471009612083 -0.0038348999805748463
v -0.006289110518991947 -0.010914670303463936 0.003915280103683472
v -0.00842090044170618 -0.00936577096581459 0.003915280103683472
v -0.007616210263222456 -0.010499770753085613 9.080000381800346e-06
v -0.00714089022949338 -0.009845471009612083 -0.0038348999805748463
v -0.0037479803431779146 -0.011574271135032177 -0.003834820119664073
v -0.007616210263222456 -0.010499770753085613 9.080000381800346e-06
v -0.007616210263222456 -0.010499770753085613 9.080000381800346e-06
v -0.00399787025526166 -0.012343470007181168 9.150000551017001e-06
v -0.006289110518991947 -0.010914670303463936 0.003915280103683472
v -0.00399787025526166 -0.012343470007181168 9.150000551017001e-06
v -0.007616210263222456 -0.010499770753085613 9.080000381800346e-06
v -0.0037479803431779146 -0.011574271135032177 -0.003834820119664073
v -0.003881840268149972 -0.01198637019842863 0.003915280103683472
v -0.006289110518991947 -0.010914670303463936 0.003915280103683472
v -0.00399787025526166 -0.012343470007181168 9.150000551017001e-06
v -0.0037479803431779146 -0.011574271135032177 -0.003834820119664073
v 1.3120001312927343e-05 -0.012169970199465752 -0.00383483013138175
v -0.00399787025526166 -0.012343470007181168 9.150000551017001e-06
v 1.3120001312927343e-05 -0.012169970199465752 -0.00383483013138175
v -0.0037479803431779146 -0.011574271135032177 -0.003834820119664073
v 1.3120001312927343e-05 -0.010250070132315159 -0.007261750753968954
v 1.3120001312927343e-05 -0.012978671118617058 9.150000551017001e-06
v -0.00399787025526166 -0.012343470007181168 9.150000551017001e-06
v 1.3120001312927343e-05 -0.012169970199465752 -0.00383483013138175
v 1.3120001312927343e-05 -0.012978671118617058 9.150000551017001e-06
v -0.001304430072195828 -0.012534270994365215 0.003915280103683472
v -0.003881840268149972 -0.01198637019842863 0.003915280103683472
v -0.00399787025526166 -0.012343470007181168 9.150000551017001e-06
v 1.3120001312927343e-05 -0.012978671118617058 9.150000551017001e-06
v -0.003881840268149972 -0.01198637019842863 0.003915280103683472
v 0.001330670085735619 -0.012534270994365215 0.003915280103683472
v -0.001304430072195828 -0.012534270994365215 0.003915280103683472
v 1.3120001312927343e-05 -0.012978671118617058 9.150000551017001e-06
v -0.00366193032823503 -0.0011929700849577785 -0.011679540388286114
v 0.003139310050755739 -0.002270170021802187 -0.011679540388286114
v 1.3120001312927343e-05 -0.007394170388579369 -0.00995864998549223
v 0.003139310050755739 -0.002270170021802187 -0.011679540388286114
v -0.00366193032823503 -0.0011929700849577785 -0.011679540388286114
v -0.0031130702700465918 0.0022724501322954893 -0.011679540388286114
v 0.002298420062288642 -0.007032169960439205 -0.009958730079233646
v 1.3120001312927343e-05 -0.007394170388579369 -0.00995864998549223
v 0.003139310050755739 -0.002270170021802187 -0.011679540388286114
v 1.3120001312927343e-05 -0.007394170388579369 -0.00995864998549223
v 0.002298420062288642 -0.007032169960439205 -0.009958730079233646
v 1.3120001312927343e-05 -0.010250070132315159 -0.007261750753968954
v 1.3120001312927343e-05 -0.010250070132315159 -0.007261750753968954
v 0.003180890344083309 -0.009748270735144615 -0.007261680439114571
v 1.3120001312927343e-05 -0.012169970199465752 -0.00383483013138175
v 0.003180890344083309 -0.009748270735144615 -0.007261680439114571
v 1.3120001312927343e-05 -0.010250070132315159 -0.007261750753968954
v 0.002298420062288642 -0.007032169960439205 -0.009958730079233646
v 1.3120001312927343e-05 -0.012169970199465752 -0.00383483013138175
v 0.003774220123887062 -0.011574271135032177 -0.00383483013138175
v 1.3120001312927343e-05 -0.012978671118617058 9.150000551017001e-06
v 0.003774220123887062 -0.011574271135032177 -0.00383483013138175
v 1.3120001312927343e-05 -0.012169970199465752 -0.00383483013138175
v 0.003180890344083309 -0.009748270735144615 -0.007261680439114571
v 0.004024109803140163 -0.012343470007181168 9.150000551017001e-06
v 1.3120001312927343e-05 -0.012978671118617058 9.150000551017001e-06
v 0.003774220123887062 -0.011574271135032177 -0.00383483013138175
v 1.3120001312927343e-05 -0.012978671118617058 9.150000551017001e-06
v 0.004024109803140163 -0.012343470007181168 9.150000551017001e-06
v 0.001330670085735619 -0.012534270994365215 0.003915280103683472
v 0.003908080514520407 -0.01198637019842863 0.003915280103683472
v 0.001330670085735619 -0.012534270994365215 0.003915280103683472
v 0.004024109803140163 -0.012343470007181168 9.150000551017001e-06
v 0.005996020045131445 -0.0043456703424453735 -0.009958730079233646
v 0.002298420062288642 -0.007032169960439205 -0.009958730079233646
v 0.003139310050755739 -0.002270170021802187 -0.011679540388286114
v 0.002298420062288642 -0.007032169960439205 -0.009958730079233646
v 0.005996020045131445 -0.0043456703424453735 -0.009958730079233646
v 0.003180890344083309 -0.009748270735144615 -0.007261680439114571
v 0.003180890344083309 -0.009748270735144615 -0.007261680439114571
v 0.006038590334355831 -0.00829226989299059 -0.007261680439114571
v 0.003774220123887062 -0.011574271135032177 -0.00383483013138175
v 0.006038590334355831 -0.00829226989299059 -0.007261680439114571
v 0.003180890344083309 -0.009748270735144615 -0.007261680439114571
v 0.005996020045131445 -0.0043456703424453735 -0.009958730079233646
v 0.003774220123887062 -0.011574271135032177 -0.00383483013138175
v 0.0071670603938400745 -0.009845471009612083 -0.00383483013138175
v 0.004024109803140163 -0.012343470007181168 9.150000551017001e-06
v 0.0071670603938400745 -0.009845471009612083 -0.00383483013138175
v 0.003774220123887062 -0.011574271135032177 -0.00383483013138175
v 0.006038590334355831 -0.00829226989299059 -0.007261680439114571
v 0.007642450276762247 -0.010499770753085613 9.080000381800346e-06
v 0.004024109803140163 -0.012343470007181168 9.150000551017001e-06
v 0.0071670603938400745 -0.009845471009612083 -0.00383483013138175
v 0.007642450276762247 -0.010499770753085613 9.080000381800346e-06
v 0.006315350532531738 -0.010914670303463936 0.003915280103683472
v 0.003908080514520407 -0.01198637019842863 0.003915280103683472
v 0.004024109803140163 -0.012343470007181168 9.150000551017001e-06
v 0.007642450276762247 -0.010499770753085613 9.080000381800346e-06
v 0.003908080514520407 -0.01198637019842863 0.003915280103683472
v 0.008447140455245972 -0.00936577096581459 0.003915280103683472
v 0.006315350532531738 -0.010914670303463936 0.003915280103683472
v 0.007642450276762247 -0.010499770753085613 9.080000381800346e-06
v 0.008306490257382393 -0.006024370435625315 -0.007261750753968954
v 0.006038590334355831 -0.00829226989299059 -0.007261680439114571
v 0.005996020045131445 -0.0043456703424453735 -0.009958730079233646
v 0.006038590334355831 -0.00829226989299059 -0.007261680439114571
v 0.008306490257382393 -0.006024370435625315 -0.007261750753968954
v 0.0071670603938400745 -0.009845471009612083 -0.00383483013138175
v 0.0098597202450037 -0.007152870297431946 -0.00383483013138175
v 0.0071670603938400745 -0.009845471009612083 -0.00383483013138175
v 0.008306490257382393 -0.006024370435625315 -0.007261750753968954
v 0.0071670603938400745 -0.009845471009612083 -0.00383483013138175
v 0.0098597202450037 -0.007152870297431946 -0.00383483013138175
v 0.007642450276762247 -0.010499770753085613 9.080000381800346e-06
v 0.010514010675251484 -0.007628270424902439 9.070000487554353e-06
v 0.007642450276762247 -0.010499770753085613 9.080000381800346e-06
v 0.0098597202450037 -0.007152870297431946 -0.00383483013138175
v 0.007642450276762247 -0.010499770753085613 9.080000381800346e-06
v 0.010514010675251484 -0.007628270424902439 9.070000487554353e-06
v 0.008447140455245972 -0.00936577096581459 0.003915280103683472
v 0.011527860537171364 -0.005125570110976696 0.003915269859135151
v 0.008447140455245972 -0.00936577096581459 0.003915280103683472
v 0.010514010675251484 -0.007628270424902439 9.070000487554353e-06
v 0.007046500686556101 -0.002284170128405094 -0.0099587207660079
v 0.005996020045131445 -0.0043456703424453735 -0.009958730079233646
v 0.003139310050755739 -0.002270170021802187 -0.011679540388286114
v 0.005996020045131445 -0.0043456703424453735 -0.009958730079233646
v 0.007046500686556101 -0.002284170128405094 -0.0099587207660079
v 0.008306490257382393 -0.006024370435625315 -0.007261750753968954
v 0.008306490257382393 -0.006024370435625315 -0.007261750753968954
v 0.009762571193277836 -0.003166670212522149 -0.007261750753968954
v 0.0098597202450037 -0.007152870297431946 -0.00383483013138175
v 0.009762571193277836 -0.003166670212522149 -0.007261750753968954
v 0.008306490257382393 -0.006024370435625315 -0.007261750753968954
v 0.007046500686556101 -0.002284170128405094 -0.0099587207660079
v 0.01158860046416521 -0.0037599701900035143 -0.00383483013138175
v 0.0098597202450037 -0.007152870297431946 -0.00383483013138175
v 0.009762571193277836 -0.003166670212522149 -0.007261750753968954
v 0.0098597202450037 -0.007152870297431946 -0.00383483013138175
v 0.01158860046416521 -0.0037599701900035143 -0.00383483013138175
v 0.010514010675251484 -0.007628270424902439 9.070000487554353e-06
v 0.010514010675251484 -0.007628270424902439 9.070000487554353e-06
v 0.012357721105217934 -0.00400987034663558 9.070000487554353e-06
v 0.011527860537171364 -0.005125570110976696 0.003915269859135151
v 0.012357721105217934 -0.00400987034663558 9.070000487554353e-06
v 0.010514010675251484 -0.007628270424902439 9.070000487554353e-06
v 0.01158860046416521 -0.0037599701900035143 -0.00383483013138175
v 0.012342160567641258 -0.0026194702368229628 0.003915269859135151
v 0.011527860537171364 -0.005125570110976696 0.003915269859135151
v 0.012357721105217934 -0.00400987034663558 9.070000487554353e-06
v 0.003139310050755739 -0.002270170021802187 -0.011679540388286114
v -0.0031130702700465918 0.0022724501322954893 -0.011679540388286114
v 0.004715470131486654 0.005683280061930418 -0.009958290494978428
v 0.009762571193277836 -0.003166670212522149 -0.007261750753968954
v 0.009762571193277836 0.00316892028786242 -0.007261750753968954
v 0.01158860046416521 -0.0037599701900035143 -0.00383483013138175
v 0.01158860046416521 -0.0037599701900035143 -0.00383483013138175
v 0.012917130254209042 0.0010947900591418147 -0.00014384000678546727
v 0.012357721105217934 -0.00400987034663558 9.070000487554353e-06
v 0.012357721105217934 -0.00400987034663558 9.070000487554353e-06
v 0.012917130254209042 0.0010947900591418147 -0.00014384000678546727
v 0.012342160567641258 -0.0026194702368229628 0.003915269859135151
v 0.012342160567641258 0.0026217401027679443 0.003915269859135151
v 0.012342160567641258 -0.0026194702368229628 0.003915269859135151
v 0.012917130254209042 0.0010947900591418147 -0.00014384000678546727
v -0.010635141283273697 0.0022644801065325737 0.03715411201119423
v -0.010635141283273697 -0.002262270078063011 0.03715411201119423
v -0.010610570199787617 0.0016554301837459207 0.04089317098259926
v -0.01012170035392046 -0.0036876702215522528 0.040895771235227585
v -0.009637320414185524 0.0011188400676473975 0.04452992230653763
v -0.010610570199787617 0.0016554301837459207 0.04089317098259926
v -0.01012170035392046 -0.0036876702215522528 0.040895771235227585
v -0.010610570199787617 0.0016554301837459207 0.04089317098259926
v -0.010635141283273697 -0.002262270078063011 0.03715411201119423
v 0.003498250152915716 -0.006035270635038614 0.04724268242716789
v 0.005352630279958248 -0.004479269962757826 0.04724261164665222
v 0.0028467902448028326 -0.0023765701334923506 0.04909227043390274
v -0.009637320414185524 0.0011188400676473975 0.04452992230653763
v -0.008846220560371876 -0.0032233702950179577 0.044399913400411606
v -0.006582910194993019 1.1299999869152089e-06 0.047535791993141174
v -0.008846220560371876 -0.0032233702950179577 0.044399913400411606
v -0.009637320414185524 0.0011188400676473975 0.04452992230653763
v -0.01012170035392046 -0.0036876702215522528 0.040895771235227585
v -0.006536740344017744 -0.0023827701807022095 0.04724269360303879
v -0.006582910194993019 1.1299999869152089e-06 0.047535791993141174
v -0.008846220560371876 -0.0032233702950179577 0.044399913400411606
v 0.007297320291399956 -0.008088869974017143 0.0371541790664196
v 0.009958090260624886 -0.0044266702607274055 0.03715411201119423
v 0.008275100030004978 -0.006931470241397619 0.04089576005935669
v -0.0034628703724592924 -0.0012640199856832623 0.04909227043390274
v -0.0028205399867147207 0.002378839999437332 0.04909227043390274
v -0.006536740344017744 -0.0023827701807022095 0.04724269360303879
v -0.010635141283273697 -0.002262270078063011 0.03715411201119423
v -0.009931840002536774 -0.0044266702607274055 0.03715411201119423
v -0.01012170035392046 -0.0036876702215522528 0.040895771235227585
v -0.008248850703239441 -0.006931470241397619 0.040895771235227585
v -0.01012170035392046 -0.0036876702215522528 0.040895771235227585
v -0.009931840002536774 -0.0044266702607274055 0.03715411201119423
v -0.01012170035392046 -0.0036876702215522528 0.040895771235227585
v -0.008248850703239441 -0.006931470241397619 0.040895771235227585
v -0.008846220560371876 -0.0032233702950179577 0.044399913400411606
v -0.008846220560371876 -0.0032233702950179577 0.044399913400411606
v -0.007208980619907379 -0.006058970466256142 0.044399913400411606
v -0.006536740344017744 -0.0023827701807022095 0.04724269360303879
v -0.007208980619907379 -0.006058970466256142 0.044399913400411606
v -0.008846220560371876 -0.0032233702950179577 0.044399913400411606
v -0.008248850703239441 -0.006931470241397619 0.040895771235227585
v -0.005326380021870136 -0.004479269962757826 0.04724261909723282
v -0.006536740344017744 -0.0023827701807022095 0.04724269360303879
v -0.007208980619907379 -0.006058970466256142 0.044399913400411606
v -0.006536740344017744 -0.0023827701807022095 0.04724269360303879
v -0.005326380021870136 -0.004479269962757826 0.04724261909723282
v -0.0034628703724592924 -0.0012640199856832623 0.04909227043390274
v -0.009931840002536774 -0.0044266702607274055 0.03715411201119423
v -0.00727106025442481 -0.008088869974017143 0.0371541790664196
v -0.008248850703239441 -0.006931470241397619 0.040895771235227585
v -0.0053795501589775085 -0.009339170530438423 0.040895771235227585
v -0.008248850703239441 -0.006931470241397619 0.040895771235227585
v -0.00727106025442481 -0.008088869974017143 0.0371541790664196
v -0.008248850703239441 -0.006931470241397619 0.040895771235227585
v -0.0053795501589775085 -0.009339170530438423 0.040895771235227585
v -0.007208980619907379 -0.006058970466256142 0.044399913400411606
v -0.0047008804976940155 -0.00816367007791996 0.044399913400411606
v -0.007208980619907379 -0.006058970466256142 0.044399913400411606
v -0.0053795501589775085 -0.009339170530438423 0.040895771235227585
v -0.007208980619907379 -0.006058970466256142 0.044399913400411606
v -0.0047008804976940155 -0.00816367007791996 0.044399913400411606
v -0.005326380021870136 -0.004479269962757826 0.04724261909723282
v -0.005326380021870136 -0.004479269962757826 0.04724261909723282
v -0.0034719903487712145 -0.006035270635038614 0.04724269360303879
v -0.0034628703724592924 -0.0012640199856832623 0.04909227043390274
v -0.0034719903487712145 -0.006035270635038614 0.04724269360303879
v -0.005326380021870136 -0.004479269962757826 0.04724261909723282
v -0.0047008804976940155 -0.00816367007791996 0.044399913400411606
v -0.00727106025442481 -0.008088869974017143 0.0371541790664196
v -0.003350860206410289 -0.01035217009484768 0.037154171615839005
v -0.0053795501589775085 -0.009339170530438423 0.040895771235227585
v -0.0053795501589775085 -0.009339170530438423 0.040895771235227585
v -0.0018597100861370564 -0.010620269924402237 0.04089576005935669
v -0.0047008804976940155 -0.00816367007791996 0.044399913400411606
v -0.0018597100861370564 -0.010620269924402237 0.04089576005935669
v -0.0053795501589775085 -0.009339170530438423 0.040895771235227585
v -0.003350860206410289 -0.01035217009484768 0.037154171615839005
v -0.0047008804976940155 -0.00816367007791996 0.044399913400411606
v -0.0016239701071754098 -0.009283470921218395 0.044399913400411606
v -0.0034719903487712145 -0.006035270635038614 0.04724269360303879
v -0.0016239701071754098 -0.009283470921218395 0.044399913400411606
v -0.0047008804976940155 -0.00816367007791996 0.044399913400411606
v -0.0018597100861370564 -0.010620269924402237 0.04089576005935669
v -0.0018597100861370564 -0.010620269924402237 0.04089576005935669
v -0.003350860206410289 -0.01035217009484768 0.037154171615839005
v 0.001151000033132732 -0.01082537043839693 0.0371541790664196
v 0.0018859701231122017 -0.010620269924402237 0.04089576005935669
v -0.0018597100861370564 -0.010620269924402237 0.04089576005935669
v 0.001151000033132732 -0.01082537043839693 0.0371541790664196
v -0.0018597100861370564 -0.010620269924402237 0.04089576005935669
v 0.0018859701231122017 -0.010620269924402237 0.04089576005935669
v -0.0016239701071754098 -0.009283470921218395 0.044399913400411606
v 0.0016502200160175562 -0.009283470921218395 0.04439990222454071
v -0.0016239701071754098 -0.009283470921218395 0.044399913400411606
v 0.0018859701231122017 -0.010620269924402237 0.04089576005935669
v -0.0016239701071754098 -0.009283470921218395 0.044399913400411606
v 0.0016502200160175562 -0.009283470921218395 0.04439990222454071
v -0.0034719903487712145 -0.006035270635038614 0.04724269360303879
v 0.003498250152915716 -0.006035270635038614 0.04724268242716789
v -0.0034719903487712145 -0.006035270635038614 0.04724269360303879
v 0.0016502200160175562 -0.009283470921218395 0.04439990222454071
v -0.0034719903487712145 -0.006035270635038614 0.04724269360303879
v 0.003498250152915716 -0.006035270635038614 0.04724268242716789
v -0.0034628703724592924 -0.0012640199856832623 0.04909227043390274
v 0.0028467902448028326 -0.0023765701334923506 0.04909227043390274
v -0.0034628703724592924 -0.0012640199856832623 0.04909227043390274
v 0.003498250152915716 -0.006035270635038614 0.04724268242716789
v -0.0034628703724592924 -0.0012640199856832623 0.04909227043390274
v 0.0028467902448028326 -0.0023765701334923506 0.04909227043390274
v -0.0028205399867147207 0.002378839999437332 0.04909227043390274
v 0.0018859701231122017 -0.010620269924402237 0.04089576005935669
v 0.005405810195952654 -0.009339170530438423 0.04089576005935669
v 0.0016502200160175562 -0.009283470921218395 0.04439990222454071
v 0.004727059975266457 -0.00816367007791996 0.04439983144402504
v 0.0016502200160175562 -0.009283470921218395 0.04439990222454071
v 0.005405810195952654 -0.009339170530438423 0.04089576005935669
v 0.0016502200160175562 -0.009283470921218395 0.04439990222454071
v 0.004727059975266457 -0.00816367007791996 0.04439983144402504
v 0.003498250152915716 -0.006035270635038614 0.04724268242716789
v 0.008275100030004978 -0.006931470241397619 0.04089576005935669
v 0.005405810195952654 -0.009339170530438423 0.04089576005935669
v 0.007297320291399956 -0.008088869974017143 0.0371541790664196
v 0.005405810195952654 -0.009339170530438423 0.04089576005935669
v 0.008275100030004978 -0.006931470241397619 0.04089576005935669
v 0.004727059975266457 -0.00816367007791996 0.04439983144402504
v 0.004727059975266457 -0.00816367007791996 0.04439983144402504
v 0.007235230412334204 -0.006058970466256142 0.04439990222454071
v 0.003498250152915716 -0.006035270635038614 0.04724268242716789
v 0.010661380365490913 0.0022644801065325737 0.03715411201119423
v 0.01065737009048462 -5.540000074688578e-06 0.041136059910058975
v 0.010661380365490913 -0.002262270078063011 0.03715411201119423
v 0.010147950612008572 -0.0036876702215522528 0.04089576005935669
v 0.010661380365490913 -0.002262270078063011 0.03715411201119423
v 0.01065737009048462 -5.540000074688578e-06 0.041136059910058975
v 0.001151000033132732 -0.01082537043839693 0.0371541790664196
v 0.005405810195952654 -0.009339170530438423 0.04089576005935669
v 0.0018859701231122017 -0.010620269924402237 0.04089576005935669
v 0.001151000033132732 -0.01082537043839693 0.0371541790664196
v 0.007297320291399956 -0.008088869974017143 0.0371541790664196
v 0.005405810195952654 -0.009339170530438423 0.04089576005935669
v -0.00842090044170618 -0.00936577096581459 0.003915280103683472
v -0.010487770661711693 -0.007628270424902439 9.080000381800346e-06
v -0.007616210263222456 -0.010499770753085613 9.080000381800346e-06
v -0.011501620523631573 -0.005125570110976696 0.003915280103683472
v -0.010487770661711693 -0.007628270424902439 9.080000381800346e-06
v -0.00842090044170618 -0.00936577096581459 0.003915280103683472
v -0.005969780031591654 -0.0043456703424453735 -0.0099587207660079
v -0.0031990702264010906 -0.006568490527570248 -0.009783740155398846
v -0.0060124206356704235 -0.00829226989299059 -0.007261750753968954
v 1.3120001312927343e-05 -0.007394170388579369 -0.00995864998549223
v -0.0031990702264010906 -0.006568490527570248 -0.009783740155398846
v -0.00366193032823503 -0.0011929700849577785 -0.011679540388286114
v -0.0031990702264010906 -0.006568490527570248 -0.009783740155398846
v -0.005969780031591654 -0.0043456703424453735 -0.0099587207660079
v -0.00366193032823503 -0.0011929700849577785 -0.011679540388286114
v 1.3120001312927343e-05 -0.010250070132315159 -0.007261750753968954
v -0.0037479803431779146 -0.011574271135032177 -0.003834820119664073
v -0.0037833501119166613 -0.009397950954735279 -0.007685140706598759
v 1.3120001312927343e-05 -0.007394170388579369 -0.00995864998549223
v 1.3120001312927343e-05 -0.010250070132315159 -0.007261750753968954
v -0.0037833501119166613 -0.009397950954735279 -0.007685140706598759
v -0.00714089022949338 -0.009845471009612083 -0.0038348999805748463
v -0.0037833501119166613 -0.009397950954735279 -0.007685140706598759
v -0.0037479803431779146 -0.011574271135032177 -0.003834820119664073
v -0.0060124206356704235 -0.00829226989299059 -0.007261750753968954
v -0.0037833501119166613 -0.009397950954735279 -0.007685140706598759
v -0.00714089022949338 -0.009845471009612083 -0.0038348999805748463
v 1.3120001312927343e-05 -0.007394170388579369 -0.00995864998549223
v -0.0037833501119166613 -0.009397950954735279 -0.007685140706598759
v -0.0031990702264010906 -0.006568490527570248 -0.009783740155398846
v -0.0060124206356704235 -0.00829226989299059 -0.007261750753968954
v -0.0031990702264010906 -0.006568490527570248 -0.009783740155398846
v -0.0037833501119166613 -0.009397950954735279 -0.007685140706598759
v 0.0071670603938400745 0.009847770445048809 -0.00383483013138175
v 0.009975859895348549 0.00639628991484642 -0.003987940493971109
v 0.006038590334355831 0.008294500410556793 -0.007261680439114571
v 0.012917130254209042 0.0010947900591418147 -0.00014384000678546727
v 0.010945740155875683 0.006098010577261448 -0.00028748001204803586
v 0.011527860537171364 0.005127820186316967 0.003915269859135151
v 0.010945740155875683 0.006098010577261448 -0.00028748001204803586
v 0.007642450276762247 0.010502040386199951 9.080000381800346e-06
v 0.011527860537171364 0.005127820186316967 0.003915269859135151
v 0.007642450276762247 0.010502040386199951 9.080000381800346e-06
v 0.010945740155875683 0.006098010577261448 -0.00028748001204803586
v 0.009975859895348549 0.00639628991484642 -0.003987940493971109
v 0.007642450276762247 0.010502040386199951 9.080000381800346e-06
v 0.009975859895348549 0.00639628991484642 -0.003987940493971109
v 0.0071670603938400745 0.009847770445048809 -0.00383483013138175
v 0.009762571193277836 0.00316892028786242 -0.007261750753968954
v 0.011566651053726673 0.0014405001420527697 -0.003961560316383839
v 0.01158860046416521 -0.0037599701900035143 -0.00383483013138175
v 0.011566651053726673 0.0014405001420527697 -0.003961560316383839
v 0.012917130254209042 0.0010947900591418147 -0.00014384000678546727
v 0.01158860046416521 -0.0037599701900035143 -0.00383483013138175
v 0.009762571193277836 0.00316892028786242 -0.007261750753968954
v 0.009975859895348549 0.00639628991484642 -0.003987940493971109
v 0.011566651053726673 0.0014405001420527697 -0.003961560316383839
v 0.009762571193277836 0.00316892028786242 -0.007261750753968954
v 0.008306490257382393 0.006026620045304298 -0.007261750753968954
v 0.009975859895348549 0.00639628991484642 -0.003987940493971109
v 0.008306490257382393 0.006026620045304298 -0.007261750753968954
v 0.006038590334355831 0.008294500410556793 -0.007261680439114571
v 0.009975859895348549 0.00639628991484642 -0.003987940493971109
v 0.012917130254209042 0.0010947900591418147 -0.00014384000678546727
v 0.009975859895348549 0.00639628991484642 -0.003987940493971109
v 0.010945740155875683 0.006098010577261448 -0.00028748001204803586
v 0.012917130254209042 0.0010947900591418147 -0.00014384000678546727
v 0.011566651053726673 0.0014405001420527697 -0.003961560316383839
v 0.009975859895348549 0.00639628991484642 -0.003987940493971109
v 0.004715470131486654 0.005683280061930418 -0.009958290494978428
v 0.0014419000362977386 0.007540370337665081 -0.009955090470612049
v 0.003180890344083309 0.009750571101903915 -0.007261680439114571
v 0.0014419000362977386 0.007540370337665081 -0.009955090470612049
v -0.0022721802815794945 0.007034460548311472 -0.0099587207660079
v 0.003180890344083309 0.009750571101903915 -0.007261680439114571
v -0.0022721802815794945 0.007034460548311472 -0.0099587207660079
v 0.0014419000362977386 0.007540370337665081 -0.009955090470612049
v -0.0031130702700465918 0.0022724501322954893 -0.011679540388286114
v 0.0014419000362977386 0.007540370337665081 -0.009955090470612049
v 0.004715470131486654 0.005683280061930418 -0.009958290494978428
v -0.0031130702700465918 0.0022724501322954893 -0.011679540388286114
v 0.004715470131486654 0.005683280061930418 -0.009958290494978428
v 0.0072298599407076836 0.0018847699975594878 -0.009952640160918236
v 0.003139310050755739 -0.002270170021802187 -0.011679540388286114
v 0.0072298599407076836 0.0018847699975594878 -0.009952640160918236
v 0.007046500686556101 -0.002284170128405094 -0.0099587207660079
v 0.003139310050755739 -0.002270170021802187 -0.011679540388286114
v 0.007046500686556101 -0.002284170128405094 -0.0099587207660079
v 0.0072298599407076836 0.0018847699975594878 -0.009952640160918236
v 0.009762571193277836 -0.003166670212522149 -0.007261750753968954
v 0.009762571193277836 -0.003166670212522149 -0.007261750753968954
v 0.0072298599407076836 0.0018847699975594878 -0.009952640160918236
v 0.009762571193277836 0.00316892028786242 -0.007261750753968954
v 0.0072298599407076836 0.0018847699975594878 -0.009952640160918236
v 0.004715470131486654 0.005683280061930418 -0.009958290494978428
v 0.009762571193277836 0.00316892028786242 -0.007261750753968954
v 0.001330670085735619 -0.012534270994365215 0.003915280103683472
v 0.003908080514520407 -0.01198637019842863 0.003915280103683472
v 0.00339832017198205 -0.010417270474135876 0.012121890671551228
v -0.003372080158442259 -0.010417270474135876 0.012121890671551228
v 0.001330670085735619 -0.012534270994365215 0.003915280103683472
v 0.00339832017198205 -0.010417270474135876 0.012121890671551228
v 0.0028467902448028326 -0.0023765701334923506 0.04909227043390274
v 0.002542210277169943 0.0013979000505059958 0.049166180193424225
v -0.0028205399867147207 0.002378839999437332 0.04909227043390274
v -0.0028205399867147207 0.002378839999437332 0.04909227043390274
v -0.006582910194993019 1.1299999869152089e-06 0.047535791993141174
v -0.006536740344017744 -0.0023827701807022095 0.04724269360303879
f 1 2 3
f 4 5 6
f 7 8 9
f 10 11 12
f 13 14 15
f 16 17 18
f 19 20 21
f 22 23 24
f 25 26 27
f 28 29 30
f 31 32 33
f 34 35 36
f 37 38 39
f 40 41 42
f 43 44 45
f 46 47 48
f 49 50 51
f 52 53 54
f 55 56 57
f 58 59 60
f 61 62 63
f 64 65 66
f 67 68 69
f 70 71 72
f 73 74 75
f 76 77 78
f 79 80 81
f 82 83 84
f 85 86 87
f 88 89 90
f 91 92 93
f 94 95 96
f 97 98 99
f 100 101 102
f 103 104 105
f 106 107 108
f 109 110 111
f 112 113 114
f 115 116 117
f 118 119 120
f 121 122 123
f 124 125 126
f 127 128 129
f 130 131 132
f 133 134 135
f 136 137 138
f 139 140 141
f 142 143 144
f 145 146 147
f 148 149 150
f 151 152 153
f 154 155 156
f 157 158 159
f 160 161 162
f 163 164 165
f 166 167 168
f 169 170 171
f 172 173 174
f 175 176 177
f 178 179 180
f 181 182 183
f 184 185 186
f 187 188 189
f 190 191 192
f 193 194 195
f 196 197 198
f 199 200 201
f 202 203 204
f 205 206 207
f 208 209 210
f 211 212 213
f 214 215 216
f 217 218 219
f 220 221 222
f 223 224 225
f 226 227 228
f 229 230 231
f 232 233 234
f 235 236 237
f 238 239 240
f 241 242 243
f 244 245 246
f 247 248 249
f 250 251 252
f 253 254 255
f 256 257 258
f 259 260 261
f 262 263 264
f 265 266 267
f 268 269 270
f 271 272 273
f 274 275 276
f 277 278 279
f 280 281 282
f 283 284 285
f 286 287 288
f 289 290 291
f 292 293 294
f 295 296 297
f 298 299 300
f 301 302 303
f 304 305 306
f 307 308 309
f 310 311 312
f 313 314 315
f 316 317 318
f 319 320 321
f 322 323 324
f 325 326 327
f 328 329 330
f 331 332 333
f 334 335 336
f 337 338 339
f 340 341 342
f 343 344 345
f 346 347 348
f 349 350 351
f 352 353 354
f 355 356 357
f 358 359 360
f 361 362 363
f 364 365 366
f 367 368 369
f 370 371 372
f 373 374 375
f 376 377 378
f 379 380 381
f 382 383 384
f 385 386 387
f 388 389 390
f 391 392 393
f 394 395 396
f 397 398 399
f 400 401 402
f 403 404 405
f 406 407 408
f 409 410 411
f 412 413 414
f 415 416 417
f 418 419 420
f 421 422 423
f 424 425 426
f 427 428 429
f 430 431 432
f 433 434 435
f 436 437 438
f 439 440 441
f 442 443 444
f 445 446 447
f 448 449 450
f 451 452 453
f 454 455 456
f 457 458 459
f 460 461 462
f 463 464 465
f 466 467 468
f 469 470 471
f 472 473 474
f 475 476 477
f 478 479 480
f 481 482 483
f 484 485 486
f 487 488 489
f 490 491 492
f 493 494 495
f 496 497 498
f 499 500 501
f 502 503 504
f 505 506 507
f 508 509 510
f 511 512 513
f 514 515 516
f 517 518 519
f 520 521 522
f 523 524 525
f 526 527 528
f 529 530 531
f 532 533 534
f 535 536 537
f 538 539 540
f 541 542 543
f 544 545 546
f 547 548 549
f 550 551 552
f 553 554 555
f 556 557 558
f 559 560 561
f 562 563 564
f 565 566 567
f 568 569 570
f 571 572 573
f 574 575 576
f 577 578 579
f 580 581 582
f 583 584 585
f 586 587 588
f 589 590 591
f 592 593 594
f 595 596 597
f 598 599 600
f 601 602 603
f 604 605 606
f 607 608 609
f 610 611 612
f 613 614 615
f 616 617 618
f 619 620 621
f 622 623 624
f 625 626 627
f 628 629 630
f 631 632 633
f 634 635 636
f 637 638 639
f 640 641 642
f 643 644 645
f 646 647 648
f 649 650 651
f 652 653 654
f 655 656 657
f 658 659 660
f 661 662 663
f 664 665 666
f 667 668 669
f 670 671 672
f 673 674 675
f 676 677 678
f 679 680 681
f 682 683 684
f 685 686 687
f 688 689 690
f 691 692 693
f 694 695 696
f 697 698 699
f 700 701 702
f 703 704 705
f 706 707 708
f 709 710 711
f 712 713 714
f 715 716 717
f 718 719 720
f 721 722 723
f 724 725 726
f 727 728 729
f 730 731 732
f 733 734 735
f 736 737 738
f 739 740 741
f 742 743 744
f 745 746 747
f 748 749 750
f 751 752 753
f 754 755 756
f 757 758 759
f 760 761 762
f 763 764 765
f 766 767 768
f 769 770 771
f 772 773 774
f 775 776 777
f 778 779 780
f 781 782 783
f 784 785 786
f 787 788 789
f 790 791 792
f 793 794 795
f 796 797 798
f 799 800 801
f 802 803 804
f 805 806 807
f 808 809 810
f 811 812 813
f 814 815 816
f 817 818 819
f 820 821 822
f 823 824 825
f 826 827 828
f 829 830 831
f 832 833 834
f 835 836 837
f 838 839 840
f 841 842 843
f 844 845 846
f 847 848 849
f 850 851 852
f 853 854 855
f 856 857 858
f 859 860 861
f 862 863 864
f 865 866 867
f 868 869 870
f 871 872 873
f 874 875 876
f 877 878 879
f 880 881 882
f 883 884 885
f 886 887 888
f 889 890 891
f 892 893 894
f 895 896 897
f 898 899 900
f 901 902 903
f 904 905 906
f 907 908 909
f 910 911 912
f 913 914 915
f 916 917 918
f 919 920 921
f 922 923 924
f 925 926 927
f 928 929 930
f 931 932 933
f 934 935 936
f 937 938 939
f 940 941 942
f 943 944 945
f 946 947 948
f 949 950 951
f 952 953 954
f 955 956 957
f 958 959 960
f 961 962 963
f 964 965 966
f 967 968 969
f 970 971 972
f 973 974 975
f 976 977 978
f 979 980 981
f 982 983 984
f 985 986 987
f 988 989 990
f 991 992 993
f 994 995 996
f 997 998 999
f 1000 1001 1002
f 1003 1004 1005
f 1006 1007 1008
f 1009 1010 1011
f 1012 1013 1014
f 1015 1016 1017
f 1018 1019 1020
f 1021 1022 1023
f 1024 1025 1026
f 1027 1028 1029
f 1030 1031 1032
f 1033 1034 1035
f 1036 1037 1038
f 1039 1040 1041
f 1042 1043 1044
f 1045 1046 1047
f 1048 1049 1050
f 1051 1052 1053
f 1054 1055 1056
f 1057 1058 1059
f 1060 1061 1062
f 1063 1064 1065
f 1066 1067 1068
f 1069 1070 1071
f 1072 1073 1074
f 1075 1076 1077
f 1078 1079 1080
f 1081 1082 1083
f 1084 1085 1086
f 1087 1088 1089
f 1090 1091 1092
f 1093 1094 1095
f 1096 1097 1098
f 1099 1100 1101
f 1102 1103 1104
f 1105 1106 1107
f 1108 1109 1110
f 1111 1112 1113
f 1114 1115 1116
f 1117 1118 1119
f 1120 1121 1122
f 1123 1124 1125
f 1126 1127 1128
f 1129 1130 1131
f 1132 1133 1134
f 1135 1136 1137
f 1138 1139 1140
f 1141 1142 1143
f 1144 1145 1146
f 1147 1148 1149
f 1150 1151 1152
f 1153 1154 1155
f 1156 1157 1158
f 1159 1160 1161
f 1162 1163 1164
f 1165 1166 1167
f 1168 1169 1170
f 1171 1172 1173
f 1174 1175 1176
f 1177 1178 1179
f 1180 1181 1182
f 1183 1184 1185
f 1186 1187 1188
f 1189 1190 1191
f 1192 1193 1194
f 1195 1196 1197
f 1198 1199 1200
f 1201 1202 1203
f 1204 1205 1206
f 1207 1208 1209
f 1210 1211 1212
f 1213 1214 1215
f 1216 1217 1218
f 1219 1220 1221
f 1222 1223 1224
f 1225 1226 1227
f 1228 1229 1230
